<svg xmlns="http://www.w3.org/2000/svg" viewBox="0 0 106.9 172"><path d="M2.3 166.2c.2 0 .2-.2.3-.3-.1-.1-.1-.3.1-.3 0 .1-.1.4.1.3.3 0 .2-.5.3-.6.2.2.4.1.6.1.1 0 .2.1.4.2.1.2.1.3.2.5-.1.1-.2.2-.1.4.3-.1.6.2.7-.1.1-.3-.2-.1-.3-.2.1-.1.1-.2.2-.3.2 0 0-.3.2-.3.2.1-.1.3 0 .4.3 0 .6.2.9 0 0 .2.2.1.3.2.1 0 .2.2.3.2h.3c.2.1.3.3.5.3s.4-.2.7-.2c-.2.1-.1.5-.2.7 0 .1-.2.1-.3.2-.1.2.2.2.2.4-.1.2-.3.3-.1.5.2.1.4-.1.7-.2.3-.1.6 0 .7-.2.1-.2-.3-.4.1-.5 0 .1-.1.1-.1.3.1.1.2.1.3 0-.3.1-.3.8 0 1 .3-.2.2-.5.3-.8l.3-.6c.1-.2.2-.4.3-.7.1-.3 0-.7 0-1.1 0-.3.2-.9.1-1.3.1-.2.3-.2.3-.4 0-.3-.4-.4-.3-.6.1-.2.2-.2.3-.4.1-.4-.2-.8-.2-1.2.1-.4.4-.5.6-.9.2-.5 0-1-.1-1.4.4-.4.8-.8 1-1.4-.1-.3-.1-.8-.1-1.3.2-.1.2-.4.3-.6.3-.1.3-.1.5-.3.1-.1.1-.2.1-.3 0 .2 0 .5.1.5.4 0 .4-.4.2-.7-.1-.1-.3-.1-.2-.2.3-.1.3.2.6.3.5.2 1.3.1 1.7.4.2 0 .3-.2.4 0 0 .1-.2.1-.2.3.1.2.4.3.3.6.1.1.2.1.3.2-.3.3.1.5.1.7 0 .3-.2.7-.1 1 0 .3.3.5.3.7.1.3.1.8 0 1-.1.2-.2.4-.3.7-.1.2-.3.4-.4.6v.3c-.1.1-.3.2-.3.4.1.1.3.1.4.3.1.7.4 1.4.4 2.3.7.4 1.2 1.4 2.2 1.2 0-.3-.2-.4-.2-.6.2-.2.3-.4.4-.6.3.2.1.7.4.9h-.4c0 .4-.3.5-.3.8 0 .2.3.6.4.8.2.3.5.6.8.8.2.2.6.3.7.5.2.3.2.6.5.7.2 0 0-.4.4-.3.2 0 0 .3.1.3-.1 0-.1-.2-.3-.1l-.3.6c-.1.2-.2.4-.4.6-.4.3-.9.2-1.5.2-.2.2-.4.1-.6.2-.1.1-.2.2-.3.2-.3.1-.9.2-1.3.1s-.7-.8-1.1-.8c-.1 0-.3.2-.5.1-.1.2 0 .3-.3.3-.1.2.2.3.1.3-.2-.1-.5 0-.9 0-.3 0-.7.1-1.1.2 0 .2-.3.3-.2.6.7.1 1.2-.3 1.9-.3 1.1-.1 2.4 0 3.6 0 .8 0 1.6 0 2.3-.1.6-.1 1.2-.4 1.9-.4h.4c.3-.1.6-.2 1-.2.6-.1.9-.1 1.3-.2.2-.1.5-.2.7-.3.5-.2 1-.1 1.3-.5-.1-.2-.1-.4-.1-.5.3-.1.3 0 .6 0 .2-.4.9-.1.9-.7-.5-.4-.8.3-1.2.3-.1-.1-.2-.2-.4-.2-.2.1-.3.3-.5.3-.3 0-.6-.2-.9-.2.1-.3.5-.3.6-.7-.2-.2-.4-.3-.3-.7-.1 0-.3 0-.3-.1.2.1.2-.1.3-.2.1.1.1.5.3.4.2-.1 0-.6.4-.5 0 .3-.3.6-.3.9 0 .3 0 .6.3.8.2 0 .1-.2.2-.3.2 0 .2.1.3.1.1-.1-.1-.4.1-.4.1.2 0 .6.4.5.1 0 .2-.2.1-.3.2.1.1-.3.2-.3.1.1.3.3.4.2.1-.2.2-.5.2-.8 0-.1-.3 0-.3-.1.2-.1.1-.4.2-.6.3.1 0 .8.3.8.4-.1 0-.7.2-1 .2.2 0 .8.2 1 .4-.1.5-.6.9-.7.1-.3.2-.5.4-.7 0-.1-.1-.2 0-.4.3-.3.5-.7.8-.9.7.2.9-.4 1-1-.6-.3-1.6-.8-1.1-1.6-.2-.1 0-.1 0-.3-.4-.3-.4-.8-.4-1.3.3 0 .3-.3.3-.6.2-.1.2-.3.5-.3.1-.2-.1-.2-.1-.3.1-.1.2-.1.3-.1.1-.8.6-1.4.3-2.3.1-.2.2-.3.2-.5s-.3-.1-.3-.3c.1-.3 0-.4-.1-.6-.5-.2-.7-.6-1.2-.5-.1-.1-.1-.4-.3-.4-.2-.1-.2.1-.5.1-.1-.2-.2-.2-.2-.5-.4-.2-.8-.4-1-.8-.3 0-.4-.2-.5-.3-.1 0-.2.1-.2-.1-.1-.2.1-.3 0-.6-.1-.1-.3 0-.3-.1-.2-.2 0-.3 0-.5-.1-.1-.3-.1-.3-.1-.2-.5-.7-1.2-1.4-1.3-.1-.2-.1-.2 0-.5-.2-.1-.5-.1-.6-.3.2-.4-.2-.5-.3-.8.2-.2.2-.6.4-.8 0-.6.1-.8.3-1.1 0-.3 0-.5.1-.6 0-.1.2 0 .2-.1.1-.2 0-.4.1-.6 0-.1.2 0 .2-.2 0-.5-.2-.8-.2-1.3.2 0 .2-.1.3-.2 25.8 0 51.6.1 77.3 0-.3-.6-.1-1.2-.3-1.8-.1-.3-.4-.5-.5-.8v-.5c-.1-.6-.5-.6-.7-1-.3-.4-.4-1.1-.9-1.4-.1-.1-.4 0-.5-.2v-.6c-.1-.1-.2-.2-.3-.4-.1-.3.2-.5.3-.8.2-.8-.6-1.4-.5-2.3.5-.2.6-.4.8-1 0-.2.1-.5.1-.6 0-.1-.1-.2-.1-.4s.1-.4 0-.5c0-.2-.2-.3-.2-.5.1-.4.4-.6.4-1 .1-.4-.1-.9.1-1.3.1-.1.3 0 .3-.2 0-.7-.2-1.3 0-1.8l.3-.6c.1-.2.1-.5.3-.6-.1-.5.1-.7.2-1-.1-.3-.4-.6-.5-1-.1-.3-.1-.8-.1-1.1 0-.1-.1-.3-.1-.4 0-.1.1-.2.1-.3 0-.1-.2-.2-.1-.3-.1-.1-.3-.1-.4-.2-.1-.2-.3-.2-.3-.4s.2-.2.1-.4c-.5-.5-1-1-1.3-1.6-.2-.5.1-.7.1-1.2 0-.2-.2-.5-.2-.9v-.4c0-.3-.4-.4-.4-.6.2-.5.4-1 .2-1.6 0-.2-.2-.3-.2-.5 0-.1.1-.2.1-.4v-.4c0-.2.2-.3.2-.5s0-.4-.1-.6c.2 0 .4-.1.6 0 .2-.2 0-.6 0-.7.2-.1.3-.3.5-.5s.4-.3.4-.6c0-.2-.1-.3-.1-.5.1-.2.4-.2.5-.4 0-.4-.1-.5-.1-.9.1-.4.4-.6.4-.9 0-.1-.1-.3-.1-.4 0-.4.1-.8.1-1.1v-.4c0-.2.2-.4.3-.6 0-.2-.2-.5-.2-.7-.1-.3-.1-.5-.1-.8.6-.5 1-1.1 1.4-1.7.3-.2 1.5-.3 1.4-.7 0-.3-.3 0-.4-.3.4-.4 1.2-.1 1.5-.3.1-.4.5-.8.3-1.1.2.1.4-.1.5-.3.1 0 .3 0 .3-.1-.1-.4-.5-.5-.8-.7-.3-.3-.5-.7-.8-.9-.4-.1-.7-.3-1-.4-.4-.2-.8-.3-.8-.7 0-.6.7-.5.7-1.2.2-.1.4-.1.3-.3 0-.3-.2-.1-.4-.3.1-.1.4 0 .5-.1 0-.3-.3-.3-.3-.6 0-.2.2-.2.3-.3.6-.8-.5-1-.8-1.6.1-.2.2-.2.2-.4-.3-.3-.2-1.2-.3-1.5-.3-.6-.9-1.2-1.3-1.7-.2-.2-.3-.4-.4-.6-.2-.2-.4-.3-.5-.5-.1-.2 0-.5 0-.7 0-.1-.3-.3-.3-.5.1-.1.2-.3.1-.4-.2-.1-.5-.1-.6-.2.1-.3.4-.2.4-.5.1-.4-.5-.7-.7-1-.1-.4-.2-.6-.3-1.1.1-.3.3-.4.2-.6-.1-.3-.5-.4-.8-.5 0-.1-.1-.2-.1-.4.1-.3.6-.2.6-.6-.1-.2-.3-.2-.5-.3-.1-.2-.1-.3-.3-.4-.2-.1-.4-.1-.5-.3-.1-.2 0-.5-.1-.9.7-.4.5-1.1-.4-1-.1-.3-.2-.4-.2-.8 0-.1-.2 0-.2-.2-4.1-25-8.3-49.9-12.4-74.9-2.3-.1-4.6 0-6.9-.1-2.5-.1-4.9 0-7.4-.1-4.3-.8-9-.6-13.7-.8-4.5-.2-9 0-13.4-.2-1.6-.1-3.2 0-4.8 0C32.4.3 26.3.5 20.2.3c-2.7-.1-5.3 0-8-.1C11 0 9.7.2 8.7 0h-1c-.1.2.1.4.2.5 0 .2.1.4.2.5.2.3.5.5.6.8.2.3.2.7.4 1 .1.2.3.3.4.4.1.2.3.4.4.5.3.2.6.3 1 .5-.1.4-.1.6-.1 1 0 .2.2.1.1.3-1 10.3-2.1 20.7-3.1 31.1-1 10.4-2 20.8-3.2 31.2-.8 7.5-1.5 15.2-2.3 22.8-.7 6.7-1.3 13.4-2 20-.1 1-.3 1.9-.3 2.9-.1 1 .1 2.1.1 3 .8 16.6 1.5 33 2.2 49.7z"/></svg>