<svg xmlns="http://www.w3.org/2000/svg" viewBox="0 0 232.2 117.6"><path d="M27.7 117.6c4.8.3 9.6.2 14.5.5 4.8.2 9.6.3 14.4.4 9.6.3 19.3.6 29 .7 2.4 0 4.9.1 7.3.1 2.4 0 4.9.2 7.3.2h74.7c5 0 9.9 0 14.7-.3 14-.7 28.4-.9 42.6-1.6 0-8.5-.4-17.4-.5-25.6 0-1.7-.1-3.4-.1-5.2-.2-3.4 0-6.9-.2-10.4-.3-6.7-.3-13.6-.5-20.4-.1-3.3-.1-6.9-.2-10.3 0-2.5-.2-5.2-.2-7.7 0-.7.2-1.6-.4-2.2 0-.5.6-.7.5-1.1-.3-.3-.8-.3-1.2-.5-.4-.1-.9-.4-1.2-.3-.5-.4-1.1-.6-1.8-.8-.3-.1-.3.3-.5.1-.6-.4-1.3-1.4-1.9-1.8-.2-.1-.2 0-.3-.2-.1-.2-.2-.8-.3-1-.2-.5-.8-.8-1.1-1.2-.3-.5-.8-1-.8-1.6 0-.9.9-1.3.5-2.3-.6-.4-1.1-.1-2-.3-.7-.7-1.2-1.5-2-2.1-.6-.4-.8-.5-1.1-1-.1-.2-.1-.5-.2-.6-.1-.2-.5-.3-.6-.4-.3-.3-.4-.5-.6-.9-.2-.3-.5-.5-.5-1 .7-.3 1.5-.4 1.9-1-.2-.7 0-1.3.1-1.8.3-.4.6-.8.9-1.1.3-.3.7-.7 1.2-.8.2-.6.4-1.2.8-1.7.5.2.8.4 1.2.3.1 0 .2-.2.3-.3.2-.1.5.1.5-.2 0-.3.1-.5.1-.7 0-.5-.4-.4-.5-.9-.1-.3-.6 0-.9-.1.2-.6.8-1 1-1.6-.5-.6-1.2-1.2-1.5-2-.1-.3-.2-.5-.4-.8-.1-.1-.3-.2-.5-.4s-.2-.3-.5-.4c-.4-.1-1.5-.2-1.9-.1-.8.5-.8 1.6-1.6 1.8h-1c-.7-.2-.9-1.1-1.4-1.4-.4-.2-.8-.1-1-.3-.1-.1-.1-.3-.2-.4-.1-.1-.3-.2-.4-.3-.2-.2-.4-.5-.6-.7-.2-.1-.9-.4-1-.5-.4-.1-.9-.1-1.2-.3-.3-.1-.4-.3-.7-.3-1-.1-2.1.1-3.3.1-2.9 0-6.3 0-9.4.1-4.2.2-8.5.1-12.7.1-8.4 0-17.1.3-25.3.3-8.5 0-17.1.1-25.6.1-8.6 0-17.1-.2-25.5-.2-4.2 0-8.5-.2-12.7-.2-4.2 0-8.5-.2-12.7-.2-4.1 0-8.2-.3-12.2-.4-4.1-.1-8.2-.4-12.3-.6-4.1-.2-8.2-.4-12.3-.5-4.1 0-8.1-.3-12.2-.4C23.3.8 15.2.2 7.1 0 7 0 7 .1 7 .2c-.5 14.4-1.4 28.9-2 43.2-.2 4.8-.6 9.6-.8 14.4-.4 9.4-1.1 19-1.5 28.6-.2 4.6-.6 9.3-.8 14.3-.1 2.2-.3 4.7-.5 7.1-.1 1.7-.1 3.7-.3 5.4 0 .7 0 1.4-.1 1.8-.1.3-.3.4-.5.5-.1.1-.5.2-.5.5 4.6.3 9.1.6 13.8.8 4.6.2 9.3.6 13.9.8z"/></svg>