<svg xmlns="http://www.w3.org/2000/svg" viewBox="0 0 341.8 127.6"><path d="M324.9 3.7c.1.3.4.5.5.9.1.3 0 .6 0 1s.3.9.3 1.4c.1 1 .2 1.5.7 1.9.1.5.3.8.4 1.2.1 1.5 1 2.6.9 4.2.4.3.7 1 .5 1.7 1.8 2.1 2.3 5.5 2.6 9 .7.6 1.5 1.1 1.7 2.2-.6.1-.4-.5-1-.4-.8.9.7 1.2 1.3 1.5.5.8 1.3 1.4 2.2 1.8.1.6.4 1.1.7 1.5-.1.5.2.5.2 1 .1.4-.2.4-.2.7.6.7.7 2 1.4 2.8.2.3.1.4.2.8.5.3.6.9 1.3 1 .5-1.3-.3-2-.8-3.1s-.9-2.1-1-3.4c-.4-.3-.7-.6-1.1-1 .1-.7-.6-1.3-.7-1.9-.1-.5-.2-.9-.3-1.1-.3-.4-.7-.5-1-.8-.3-.2-.2-.6-.6-.7-.1-1.9-.9-2.9-1.5-4.3-.2-.4-.2-.7-.4-1.1-.3-1-.7-1.8-1-2.6-.4-1.1-.9-2.2-1.2-3.3-.2-.6-.5-1.1-.6-1.7-.2-.6-.2-1.3-.3-2-.1-.3-.3-.6-.3-.9-.1-.6.1-1.1 0-1.7 0-.3-.3-.6-.3-.9-.3-1-.4-1.8-.6-2.6-.2-.8-.3-1.6-.4-2.4h-1.2c-.2.5-.2.8-.1 1.1-.3-.1-.4 0-.3.2zM324.9 6.6c.1-.1.3-.4-.1-.4-.1.1-.2.4.1.4zM326.6 12.4c-.2.5.1 1.2.6 1.4 0-.7-.2-1.1-.6-1.4zM327 14.4c-.3-.1-.4-.3-.7-.4.1.2.2.5.3.7.1 0 .4 0 .4-.3zM326.8 15.6c0-.3-.1-.4-.2-.6h-.5c0 .4.5.7.7.6z"/><path d="M335.9 35.5c-.4-.9-.1-2-.4-3-1.4-.9-2.5-2.3-4.4-2.3.5.6.6 1.6 1.4 1.9.4 1.2 1.9 1.8 1.4 3.7.4.9 1.8.7 2-.3zM341.8 45.8c0-.1-.2-.1-.2-.3-.1-1.5-.3-3.1-.9-4.2-.1-.4.2-.4.2-.7-.7-.9-1-2.2-1.8-2.9-.1.2-.3.3-.6.3.4.5.5.9.7 1.5.1.2.2.3.3.4.1.3.1.7.3 1 .1.2.3.3.3.5.1.5.1 1 .2 1.5s.4.9.5 1.4c.2 1 .2 1.9.4 2.8-.4 1.3-.7 2.8-.6 4.7-.7 1.5-.2 4-1.2 5.4.1.5-.1.7-.2 1 .3.3-.1.9.2 1.3-.4.6-.3 1.3-1 1.6-.7.3-1.6.1-2.5.3-.2.2-.4.5-.5.9-.5.1-.8.4-1.2.6-.4 0-.7 0-.9.2-.3-.3-.9-.7-1.3-.6.1 1-1 1.3-1.3 2.2 1.1.4 2.3-.4 3-.9 1-.1 2.5-.9 3.5-.9.3 0 .7.2 1 .3.4 0 .7-.3 1-.1.4-.5.4-1.3.5-2 .1-.7.4-1.4.5-2.1.1-.8.1-1.6.2-2.3.2-1.1.9-2.1.6-3.2.1-.4.4-.8.5-1.2.1-.6-.2-1.1-.2-1.7 0-.2.1-.5.2-.8v-.9c.1-.4.3-1.1.3-1.3.1-.5 0-1.1 0-1.8zM295.2 57.1c0 .4.4.4.8.3 0-.3-.4-.3-.8-.3zM310 58.3c0 .4 0 .7-.1 1 .3 0 .5.2.8.3 0-.5-.1-.5 0-.9-.2-.1-.4-.3-.7-.4z"/><path d="M334.2 60.1c.2-.3.1-.8-.3-.8-.3.4 0 .7.3.8zM335.3 59.5c-.2.1-.4.1-.4.3.2.1.4 0 .4-.3zM333.4 60.3c.1-.3-.1-.3-.1-.5-.2 0-.4 0-.5.1 0 .3.3.3.6.4zM303.7 64.8c.2.2 1 .2 1.3.1-.2-.2-.3-.4-.4-.6h-.7c.1.4-.3.3-.2.5zM326.3 66.1c-.3.2-.6.4-1 .5-1.1.6-2 1.2-3.1 1.6-.1-.1-.3-.2-.6-.2-.3.1-.4.3-.6.4.1 1-.6 1.2-.7 2 .8.2 1.1-.6 1.5-1 .3-.3.7-.4 1.1-.7.5-.4.9-.9 1.7-.9 1-.6 2.2-1.4 3.5-1.8.7-.3 1.5-.4 1.9-1-.5-.4-.9.3-1.4.3-1.1-.5-1.7.5-2.3.8zM317.8 70.5c-.3.2-.4.6-.5 1-.3.6-1 1-1.1 1.5.2.1.6.1.8.3.9-.9 2.1-1.5 2.9-2.5-.5 0-.9-.3-1.2-.3-.2-.2-.8-.1-.9 0zM309.6 74h.8c0-.5-.2-.7-.4-1-.1.4-.3.6-.4 1zM311 74.9c.2-.2.5-.5.5-.9-.2-.2-.4-.4-.7-.5.1.6-.2.7-.3 1.1.2.1.3.3.5.3zM315.4 74.8c.2-.2.3-.5.4-.8l-.6-.3c-.2.4-.3 1.1.2 1.1zM312.5 77c1-.3 1.5-1.1 2.2-1.7-1.2-.8-1.9.7-2.2 1.7zM311.5 78.4c.3-.3.5-.8.9-1-1.3-.3-1.8 1-2.3 1.8.6 0 1.1-.5 1.4-.8zM309.8 79.7c0-.1-.1-.1-.2-.1-1.3.3-1.5 1.7-2.7 2.2-.5.9-1.2 1.6-2.2 2.1-.1.9-.8 1.1-1.4 1.5-.1.3.3.1.3.3-.3.5-.4 1.4-1.1 1.5-.5 1.5-1.9 2.2-2 4.1-.3.2-.5.5-1 .4-.1.7.4.7.5 1.2.5-.2.8-.7.7-1.2 1.3-1.6 2.1-3.7 3.7-5 .3-1 1.2-1.4 1.5-2.3.2-.2.4-.4.7-.5-.1-.4.2-.3.2-.6.9-1.4 2.3-2.1 3-3.6zM293.1 87.5c-.3 0-1-.5-1.3-.3-.8.4-1.8 0-2.7.2-.7.1-1.3.4-2 .5-.9.1-1.3.2-2 .3-.4.1-.8 0-1.2.1-.2 0-.2.2-.4.3-.2.1-.5 0-.7.1l-1.2.3c-1.3.3-3 .4-3.3 1.5.5.4 1-.1 1.4-.3.8-.3 1.7-.6 2.5-.8 1-.3 2.1-.5 3.2-.6.7-.1 1.5-.2 2.2-.3 1 0 1.9-.2 2.9-.3 1.5-.1 3.1.1 4.3.1-.2-.8-1-.9-1.7-.8zM298.4 87.5c.4.3.7.6 1.4.7-.1-.6-1-1.5-1.4-.7zM295.7 88.5c.4.4 1.3.8 1.8.7-.3-.5-1.3-1.6-1.8-.7z"/><path d="M300.3 90.1c-.3-.3-1-.6-1.5-.5v.3c.7.1.9.6 1.4.9-.1-.4.3-.5.1-.7zM275.9 91.2c.7 0 1.2-.2 1.2-.8-.6-.3-.9.4-1.2.8zM274 92.4c.6-.1 1.1-.3 1.1-1-.5.1-.8.3-1.2.5 0 .2 0 .4.1.5zM273.2 92.3c-.1.1 0 .3.1.5.2.1.2-.2.3-.2 0-.2-.2-.3-.4-.3zM268.4 96.6c.5-.4 1.1-.8 1.4-1.5 0-.1 0-.2-.2-.2-.4.4-1 .7-1.5 1-.2.2.2.5-.2.5-2.7.5-4.8 1.6-6.5 3.1-.2.1-.2.4-.3.6-.6.1-1 .7-1.6 1-.7.5-1.8.7-2 1.7.4 0 .7-.2 1 0 .2-.2.5-.4.9-.5.3-.9 1.2-1.2 1.7-1.9.7-.3 1.3-.9 1.9-1.4.5-.4 1.1-.5 1.7-.8.4-.2.8-.6 1.2-.9.9-.1 1.7-.3 2.5-.7zM257.2 103.9v-.4c-.3.1-.4.3-.6.4h.6zM254.9 105.5c.3.1.2.4.5.4.2-.4.3-.8.7-1-.1-.3 0-.8-.4-.8-.2.2-.4.4-.2.7-.2.3-.5.4-.6.7zM253.4 108.1c.2-.1.3-.3.4-.5.3-.5 1.1-1.6.6-2.2-.1.6-.6.9-.9 1.4.6.4-.4.9-.1 1.3zM252.1 108.9h.6c.2-.8-.6-.5-.6 0zM252.4 109.2c-.2-.1-.4-.1-.6-.2-.4.7-1 1.3-.9 2.4.6-.6 1-1.5 1.5-2.2zM249.6 114.3c.6-.6.8-1.6 1.3-2.3-.2-.1-.4-.3-.7-.3.1.5-.3.5-.2 1-.9.9-1.4 2.2-1.5 3.9.8-.3.9-1.4 1.1-2.3zM244.6 127.6c.6-.2.9-.6 1-1.2.2-.5.1-.9.3-1.5.2-.9.8-1.6 1-2.3.4-1.1.5-2 .7-3.1.4-.5.7-1 1-1.7-.3-.1-.5-.3-.6-.6-.6.2-.9.3-1.2.8.1 1-.2 2 0 2.6-.8.8-.6 2.6-1.7 3.2-.4 0-.6.2-.9.3.3.8-.6 1-.6 1.7 0 .2.3.3.2.7.4 0 .5.3.7.5-.1.2-.1.4.1.6z"/><path d="M39.2 74c1.8-.1 3.5-.2 5.2-.2.8 0 1.9.2 2.7.1 1-.1 2.1-.6 3-1 3.1-.9 6.1-2 9.1-2.9.3.3 1 .2.9.9.5-.1.8-.5 1-.9 3.1-1.3 5.6-3.1 9-3.8.3 0 .3.2.6.1s.3-.4.5-.5c.3.3.8.3 1.1.5.3-.3.5-.6.9-.8.3-.6.7-1.3 1.3-1.6.4-.1 0 .6.4.4 16.9.8 34.2 1.7 50.8 2.5.4.9 1.5 1.5 1.5 2.5-.4-.2-.8-.2-1.2-.3-.5.6-.3 1.3-.3 2.1.4.2.6.5 1 .6 1.4-.6 2.4-1.7 3.7-2.3 2.1 2.1 3.8 4.6 5.7 6.9-.1 2.1-.3 4-.5 5.9 14.2.2 27.7.5 41.9.6-.1.6.1.8.1 1.4.4 0 1.6.1 2.2-.1.5.3.9.6 1.5.7 5.1 5.5 10.8 10.7 15.9 16 .4.4.9.8 1.3 1.2.5.6.9 1.2 1.5 1.7s1.1 1.1 1.7 1.7c.9.9 1.9 1.6 2.8 2.5 6 6.6 12.6 12.5 18.8 18.8 1.2-.9 3.2-.7 4.5-1.4.5-.3.7-.7 1.1-1 .5.3 1.1.5 1.7.8.5-.2.6-.7 1.1-1 1.3-.4 2.3 0 3.2.2.3.1.7.1 1 .1.9 0 1.5-.4 2.1-.4.7 0 1.5.3 2.3.4.8.2 1.5.4 2.3.3.2-.2-.1-.4.1-.6.5-.3 1.2-.5 1.7-1 .3-.3.8-1.2.9-1.7.1-.4 0-.9 0-1.4 0-.2.1-.4.2-.6.2-1.2-.1-2.3.1-3-.7.2-1.1.2-1.4-.3.2-.5.2-1.4.3-1.7.5 0 1 0 1.1.3-.1.4-.2.9-.3 1.2.5.5 1.9 1.8 2.2.2 0 .2-.1.4.2.3.6-.9.9-2.1 1.1-3.4.3-.5.5-1.1.6-1.8.3-.1.4-.4.8-.5.5-1.2 1.5-2.1 2.1-3.2.8-.2.9-1 1.3-1.5.1-.3-.2-.4-.1-.7 1.2-.4 1.9-1.5 2.7-2.2.1-.1.4-.1.5-.3.2-.2.4-.6.6-.8.5-.4 1.1-.6 1.6-1 .2-.1.2-.3.3-.4.5-.5 1.1-.6 1.6-1 .8-.6 1.2-1.6 2.2-1.8.2-.4.5-.9 1-.9.8-.1 1.7-.6 2.4-1 .3-.2.3 0 .6.1.2-.3.5-.5.9-.6.1-.5.2-1 .3-1.4-.6-.8-2-.9-2.4-1.8.2-.4.4-.7.6-1 .5.5 1.1.3 1.7-.1.4.3.4.8.3 1.4.5.2.9.5 1.4.7-.1.3-.5.5-.2.8.5.5.8 0 1.4-.1-.1.3-.7.4-.4.7.8.4 1.2-.5 1.6-.9.4-.4 1.2-.8 1-1.5-.9.3-1.3 1.1-2 1.6.4-1.1 1.2-2 2.6-2.2.7-.6 1.4-1.3 2.1-1.7.7-.5 1.4-1.5 1.9-1.7.3-.1.9 0 1.4 0 .8-.1 1.4-.3 2.1 0 .5-.3 1.1-.5 1.6-.8.6-.2 1.1-.6 1.7-.8.2-.1.5 0 .8-.1.2-.1.4-.3.6-.3.4-.1.9-.2 1.3-.2.2 0 .3.2.5.2 1.3.1 2.9-.2 4.2 0 .4.1.8.3 1.2.3.7-.1 1.3-.6 1.9-.6.1 1 1.3 1.3 2.1 1 .6-.8-.1-2.5.4-3.2.5.1.8-.1 1.2-.2.4 1-.4 1.2-.3 1.9.1 1.4 2 .8 3.2.9.2-.9-.2-1.3-.3-2.1.5-.6.5-1.6 1.7-1.6-.1.6-.9.9-.7 1.4 1.3.5 1.7-1.6 2.2-2.3.5-.9 1.1-1.5 2.3-1.6.4-.5 1-.8 1.7-1 .1-.5.5-.7.7-1.1.1-.4-.4-.2-.3-.6.3-.4.5-.7 1.1-.8.2-.5.7-.6.7-1.1 0-.3-.1-.2-.3-.5-.3-.5-.4-.9-1-.8 0-.5-.4-.7-.5-1.1.1-.3.6-.1.5-.5-.5-.3-1.5-.6-1.9-.7-.3 1.6 1 2.2 1.4 3.3-.7-.2-1.2-.6-2.2-.4-.3.3-.4.8-.8.9-.6-.2-1.3-.2-1.3-.9.4-.3 0-.5.3-1-.4-.9-.3-1.7-.4-2.9-.5 0-1.1-.4-1.4-.3v.9c-.1.2-.5.1-.7.3-.2.7-.4 1.5-.9 1.9-.7-.4-1.8.1-2.3.4-1-.1-2.1.4-3.3.4-.7.4-1.4 1.1-2.1 1.2-.5.5-.7 1.1-1.4 1.3-1.4.3-3-1-4.3-.6-.4-.2-.8-.7-1.4-.4-.8-.8-1.8-1.3-2.8-1.9-.3-.2-.5.2-.7 0-.4-1.7-1.2-3.3-1.7-4.5 1.1.2 1.6 1 2.3 1.6h.6c.7.6 1.5 1.4 2.5 2.2.4.3.9.5 1.5.9 1 .6 1 1.1 2.2.8.3-.1.7-.1.9-.2.9-.3 1.5-1.3 2.4-1.5 1.1-1.3 2.9-2 4.5-2.7 0-.5-.2-.9-.4-1.3.4-.3.7-.7 1.2-.6.4-.7.9-1.3 1.1-2.1-.3-.3-.9-.3-1.3-.5-.3.2-.4.5-.8.6-.2-.2-.6-.3-.8-.5-.3-.1-.7 0-.8-.4.6-.5 1.3-1 2-1.4.7.2 1.5.7 2.3.5.2-.7-.4-1.2-.7-1.7.7-.2 1.2-.6 1.9-.8.2-.4.3-.8 1-.8-.4-.6-.2-1.7-1-1.8-.1-.3.2-.2.2-.4-1.2-.7-3.5-1.4-5.1-.7-.3-1-1.6-1-2.6-1.4-.1.1-.9.3-1.1-.2.1-.2.6.1.5-.3-.4-.4-1-.6-1.6-.8-.9-.3-1.5-.6-2.3-.8-.5-.4-1.1-1-1.8-1.3-.3-.1-.7-.1-1-.2-.5-.2-.9-.8-1.4-.9-.6-.1-1.4.2-2.1.3-.1-.5-.6-.6-.5-1.2-.2-.3-.9-.3-.8-.7.4.3 1 .2 1.4.3 1.1.3 2 .8 3.1 1 .6.1 1.4-.1 2 .1.6.2 1.1.9 1.8 1.1 1.4.6 2.9.3 4.3.5.7.6 2.3 1.4 3.5.7-.3-1.3-.7-2.5-.9-3.9-.4-.3-.6-1-.9-1.5.5-.2.9-.4 1.2-.9.7 0 1.3.5 1.7.5.7.1 1.3-.4 2-.2.2-.1.5-.6.8-.4 0 .6 0 1-.1 1.3-1.1.5-2.9-.1-4.1.4.4.7 1.1 1.4.9 2.5.3.3.4.7 1 .8V55c.3.2.6.6 1 .3.4.4.9.8 1.6 1 .3-.1.2-.7.5-.8.3 0 .2.2.5.1.5-.6.9-1.5 1.7-1.8.4.2.2 1 .3 1.6.3.4.4.9.9 1.1.6-.2.7-.8 1.2-1 .6 1 1.5 1.8 2.6 2.3.3-.3.4-.8.8-1 .7.5 2.1 1.9 3 1 .3 0 .2.5.5.4 1-.7 2.2-1.2 3.4-1.7.2-.7.2-1.5.3-2.2.4-.2 1.2-.1 1.7-.1.2-.2.1-.6.1-1 .4-.2.6-.7.7-1.3.4-.4.6-1.1 1.5-1 .2-.5-.7-.5-.6-1.1.7-.3 1-1 1.8-1.1.3-.4.7-.9 1-1.3.1-.2.5-.2.6-.4.1-.6-.1-1.5.1-2 .9 1.1 1.5 2.6 3.8 2 .5-.9 1.2-1.5 2-2.1-.1-1.6-1.6-2.2-1.5-3.7.4-.1.8 0 1 .2 0 .3 0 .5.1.7.5.1.9.2 1.5.2-.1-.9-.7-1.8-.9-2.7-.1-.4-.1-.9-.2-1.3-.1-.3-.2-.4-.3-.6 0-.5.3-1 .3-1.5 0-1.3-.5-2-.9-2.9-.2-.6-.4-1.3-.6-1.7-.2-.4-.7-.6-.6-1.1-.7-.7-1.5-1.3-2.4-1.7-.3.3-.7 0-.9.1-1.1.9-1.9 2.1-3.7 2.3-.4 1-.9 2.1-1 3.4 0 .3.2.6.2.9 0 .1-.2.4-.2.6v1.6c0 .8-.2 1.2-.3 1.7-.3 1.4-.1 2.6-.6 3.6-.3.2-.7.2-.8.6-.2-.2-.5-.4-.7-.6.2-.4.5-.7.6-1.1-.8-.4-.6-1.1-.6-2.1 0-1.9-.3-3.9-.3-5.4.5-.9 1.4-2.1.4-2.9.3-.5.9-.7 1.2-1.2-.1-.4-.1-.6.1-1-.6-.3-1.1-.7-1.5-1.1-1.6-.2-3.3-.4-5-.3-1.2.1-2 .8-3 .8-.4.4-.9.5-1.3.9-.7 0-1.1.4-1.5.8-.5-.1-.8-.3-1.4-.3-.4-.6-.7-1.4-1.4-1.7-1.5.6-3.4 1-4.8 1.7-2.3.1-4.4.4-6.8.3-.2-.2-.4-.4-.5-.7.5-.7 1.2-1.1 1.6-2-.2-.4-.7-.4-.9-.8-.1-.3 0-.5 0-.8-1.1-1.5-1.1-4.1-2-5.8.3-1.3.2-3.3 1.3-3.7.4 1.3-.3 2.6-.2 3.7 0 .3.3.6.3.9.2.9.7 1.3.9 2.1.1.5 0 1 .2 1.6.8.3 2.2.1 3.1.3.2.3.2.6 0 .9.6.3.5 1 1.1 1.2 1 .3 2.2-.2 3.3-.2.4-.2.7-.5 1.2-.3 1-.9 1.6-2.3 3-2.8.8-.3 1.8-.1 2.7-.5-.5-1-1.4-1.6-2.8-1.7-.2-.4-.8-.7-.9-1v-.1.1c.9.6 2.1.8 3.5.9.5.4 1.3.8 2.2 1.1.8.3 1.9.7 2.6 0-.6-.8-1.7-1.1-1.5-2.7.3.3.6.7 1 1 .3.3.8.8 1.3.9.3 0 1.5-.4 1.7-.3.2 0 .3.2.5.2.1 0 .2-.1.4-.2h.6c.6-.2.9-.9 1.3-1-.5-1.3-1.5-2.3-2.3-3.3-.4-.5-.7-1.2-1.2-1.7-.4-.4-1-.6-1.4-.9 0-.2-.3-.5-.2-.6.9 0 1.4.6 2.2.3.7.9 1.8 1.7 2.8 2.6.5.5.8 1.1 1.3 1.6.9.8 2.5 1.5 4.3 1-.1-.5-.7-.4-1-.8-.3-1.1-.8-3-.4-4-.2.9.7 1.2 1 1.8.3.4.3 1.1.5 1.5.2.4.6.5.9.9.3.4.4.9.8 1.2-.5 2.3 1 3.7 3.1 3.8-.1-.8-.9-1.2-.6-2.2-.5-.4-.6-1.3-.9-1.9-.2-.3-.5-.6-.4-.9-.1-.5.3-.4.3-.7-.3-.4-.6-.8-.8-1.3-.1-.2-.5-.2-.5-.4-.5-1.3-.7-2.6-1.2-3.9-.2-.5-.6-.9-.8-1.5-.3-.9-.2-2-.2-3-.3-.1-.4-.5-.7-.6-.1.2-.3.3-.5.4-.1.8.4 1.4-.1 1.9-.8-.2-1.2-.8-1.4-1.7.1-.5.5-.2.8-.5 0-.6-.8-.5-1.3-.6-.7-.8-1.2-1.8-1.5-3 .4-.2.5-.8.7-1.2.9.4 1.4 1.2 1.7 2.3.3.2.6-.3 1-.3.3.3 1.2.2 1.6.1.2 0 .3.5.5.3-.1-.9-.4-1.9-.5-3-13-.1-25.9-.2-38.9-.2-.5 0-1.1.2-1.6.2-.9 0-1.7-.1-2.5-.1h-35.2c-4 0-8-.2-11.9 0-2.9.1-5.8-.1-8.8.1-4.9.2-10.8 0-15.6.2-7.3.3-14.7-.3-22 .1-2.7.1-5.4.1-8.1 0-5-.2-10.4-.1-15-.3-1.7-.1-3.5.2-5.1.1-.2 0-.5-.2-.8-.2-1.2-.1-2.3 0-3.5 0-4.6-.2-9-.1-13.6-.3-8.6-.4-17.4-.4-25.9-.8C111 1 106.5.5 102 .1c-.6.8-1.1 1.8-1.2 3-.1.2-.4.1-.3.4.3.7.4 1.7.5 2.5-.1.3-.7 0-.7.3 0 .7-.6 1.4-.7 2.2-.2 1.1.2 2.2 0 3.1-1 .1-1.8-.3-2.6-.3-2.1.1-3.4 1.7-4.6 2.9-.2.2-.2.6-.3.9-.5.4-.7 1-1 1.5l-.9 1.2c-.3.5-.3 1.1-.6 1.6-.1.2-.4.3-.5.5-.5.7-.7 1.5-1.3 1.9-.3 0-.4-.2-.8-.2-.2.9-1.3.7-2 1.1-.5-.5-1.2-.9-1.1-1.6-.8-.5-2.3-.4-3.2-.9-.4.6-1.2.9-1.8 1.4-1.4-.1-2.1.4-3.4.4-1.1.9-2.5 1.4-2.7 3.2-1.6 1.5-3.1 5-6.3 3.7-.4-.8-.2-2.3-.2-3-.6-.3-.8-1.1-1.5-1.4-.7.3-1.4.7-1.9 1.2-1.1.4-1.8 1.1-2.8 1.7-.5 0-.8.2-1.1.3 0 .7.2 1.2.1 2-.4.4-.6.9-1.1 1.1l-1.2-.9c-.7-.1-1.2.2-1.6-.1-.2.5-.9.6-1 1.2-.1.6.5 1.4.5 2.2-.2.1-.5.2-.8.3-.1 1.3-1 1.9-1.2 3-.4.3-.6.6-1 .7-1 .3-2.2-.2-3.1-.2-.5 0-1 .3-1.5.5-.7.3-1.3.5-2.1.5-.7.7-1.2 1.6-1.9 2.2-.6-.3-1.2.1-1.9 0-.4 1.3-1.2 2.3-2.3 3-.3-.2-.6-.3-1-.4-.9.9-1.8 1.6-2.9 2.1-.4.2-.9.2-1.2.4-.9.6-1.5 1.9-2.6 2.3-.6-.4-1.4 0-2.1-.1-.7-.1-1.1-.6-1.7-.7-.7.5-1.5.5-2.3.4-1.4-.1-2.9.3-4.1.4-.3.2-.4.6-.7.8-.5-.1-.8.3-1.2.5-.2.1-.5.1-.8.2-.5.2-.9.8-1.5.5-.4.3-.5.9-.8 1.3-.7.9-2.3 1.4-3.6 1.4-.1.4-.2 1-.3 1.5-.2.3-.7.4-.7.9 0 .3.4.7.4 1 0 .7-.7 1-.9 1.7-.1.2-.2.6-.2.8-.1.4-.1 1 .1 1.6-.3.5-1 .6-1 1.5-.5.2-.8.6-1.3.8-.5-.4-.9.1-1.3.3-.6-.3-1.4 0-2.1-.3-.3-.1-.5-.4-.9-.5-.3-.1-.6.1-.9-.2-.8.4-1.3 1-1.9 1.5-.1.5-.3.9-.6 1.1.1 1.3-.3 2.3-.4 3.4-.1.9.1 1.8 0 2.7 0 .3-.2.5-.3.8-.2.9-.3 1.8-.1 2.4 0 .3-.2.4-.3.5.3 0 .3.3.4.5 7.9-.3 16.2 0 24.3-.3 5.2-.2 10.1.1 14.8 0z"/></svg>