<svg xmlns="http://www.w3.org/2000/svg" viewBox="0 0 239.9 155.1"><path d="M12.9.1V0h-.1v.1h.1zM233.7 118.5c.4-.8.8-1.1 1.5-1.6.3-.2.8-.7 1.2-.8 1-.3 2.3 0 3.5-.2-.1-26.7-.1-53.4-.2-80-2-.5-4.1-1-6.1-1.4-.4-.8-.5-1.5-1-2.1-.4-.5-1-.9-1.5-1.4-.6-.6-1.3-1.1-1.4-1.7-.2-.7-.5-1.6-.5-2.3 0-.5.2-1 .2-1.6.1-.5.1-1.1.2-1.6.1-.4.8-1.1 1.1-1.4 1.1-1.3 2.9-2.1 4.1-3.1.5-2.5.9-5.1 1.3-7.6-13.4 0-26.9.3-39.9.6-1.2 0-2.4.1-3.6.1-2.3 0-4.6-.3-7-.4-11.6-.8-23.5-1.1-35-1.8-14-.8-28-1.5-42-2.3-4.7-.3-9.3-.4-14-.8C85.3 6.3 76 6 66.8 5.3 48.8 3.8 30.7 1.7 12.9.1c-.1 0-.1.1-.1.2C8.6 42.9 4.3 85.4 0 128c57.7 2.5 115.5 5 173.3 7.4 5.5 3.8 10.9 7.6 16.4 11.3 3.8-1.3 7.1-2.7 10.7-3.9.6-.2 1.4-.3 2.1-.4 1.4-.2 3-.3 4.4-.5.7-.1 1.4.1 2.2.2.8.1 1.5.1 2.1.3.5.2 1.1.6 1.6.8.9.5 2.1 1 3.1 1.8.4.3.9.7 1.4 1.1.4.3 1 1.1 1.6 1 1.2-.1 3.2-.4 4.1-.5 3 2.7 5.6 5.7 8.6 8.4.7-.6 1.4-1.1 2.1-1.6 1.6-8.2 3.5-16 5.5-23.7-.9-.7-1.9-1.2-2.8-1.7-1-.6-1.5-1.5-2.2-2.4-.1-1.3-.4-2.8-.5-4.3 0-.7-.1-1.5 0-2.1-.2-.1-.1-.4 0-.7z"/></svg>