<?xml version="1.0" standalone="no"?>
<!DOCTYPE svg PUBLIC "-//W3C//DTD SVG 20010904//EN"
 "http://www.w3.org/TR/2001/REC-SVG-20010904/DTD/svg10.dtd">
<svg version="1.0" xmlns="http://www.w3.org/2000/svg"
 width="16.000000pt" height="16.000000pt" viewBox="0 0 16.000000 16.000000"
 preserveAspectRatio="xMidYMid meet">
<metadata>
Created by potrace 1.11, written by Peter Selinger 2001-2013
</metadata>
<g transform="translate(0.000000,16.000000) scale(0.002286,-0.002286)"
fill="#000000" stroke="none">
<path d="M5777 6434 c-1 -1 -76 -5 -167 -8 -91 -4 -181 -9 -200 -11 -19 -2
-98 -7 -175 -10 -77 -4 -162 -8 -189 -10 -27 -2 -106 -6 -175 -10 -69 -3 -155
-8 -191 -10 -36 -2 -119 -6 -185 -10 -66 -3 -154 -7 -195 -10 -41 -2 -124 -7
-185 -10 -60 -2 -146 -7 -190 -10 -44 -3 -127 -7 -185 -10 -155 -8 -295 -15
-380 -20 -41 -2 -124 -7 -185 -10 -60 -3 -144 -8 -185 -10 -41 -2 -127 -6
-190 -10 -63 -3 -144 -7 -180 -10 -36 -2 -126 -7 -200 -10 -74 -4 -160 -8
-190 -10 -30 -2 -111 -7 -180 -10 -69 -4 -154 -8 -190 -10 -36 -2 -123 -7
-195 -10 -71 -3 -152 -8 -180 -10 -27 -2 -115 -7 -195 -11 -80 -4 -158 -8
-175 -9 -16 -2 -45 -3 -63 -4 l-33 -1 5 -72 c3 -40 8 -129 11 -197 4 -68 8
-151 10 -185 2 -33 6 -117 10 -186 3 -69 8 -156 10 -195 2 -38 7 -122 10 -185
3 -63 8 -144 10 -180 4 -65 16 -286 20 -370 5 -102 -5 -91 88 -86 45 3 127 8
182 11 55 3 141 7 190 10 50 3 137 7 195 10 58 3 139 8 180 10 41 2 125 6 185
10 61 3 144 7 185 10 41 2 125 7 185 10 61 3 148 7 195 10 176 10 269 15 385
20 66 4 144 8 174 11 30 2 52 2 50 0 -2 -2 -132 -92 -289 -201 -157 -109 -300
-209 -317 -222 l-33 -24 0 -1814 0 -1815 53 29 c28 16 79 44 113 62 33 19 133
74 221 123 91 49 163 95 165 105 2 9 3 780 3 1713 l-1 1696 35 7 c20 4 45 9
56 10 11 2 49 9 85 16 36 6 78 13 95 16 16 3 87 15 156 28 l127 22 1 -1706 c0
-938 0 -1731 1 -1761 l0 -56 172 -94 c94 -52 199 -110 232 -128 34 -18 80 -45
104 -58 l42 -25 1 38 c0 21 0 905 1 1966 0 1783 1 1927 17 1928 9 0 23 2 31 4
16 3 142 25 175 30 53 8 644 114 665 120 3 0 27 4 53 9 27 4 59 9 70 12 65 12
256 46 280 49 16 2 40 6 55 9 15 3 41 8 57 11 17 3 41 7 55 10 14 3 52 10 85
16 33 6 67 13 75 14 8 2 20 4 27 4 13 1 13 8 -12 466 -2 33 -4 66 -4 74 -1 11
-27 12 -153 7 -84 -4 -178 -9 -208 -11 -30 -2 -111 -6 -180 -9 -69 -3 -156 -8
-195 -11 -38 -3 -117 -7 -175 -10 -58 -3 -145 -7 -195 -10 -49 -3 -133 -7
-185 -10 -164 -8 -292 -15 -375 -20 -44 -3 -129 -7 -190 -10 -60 -3 -141 -7
-180 -10 -38 -2 -128 -7 -200 -10 -71 -3 -155 -8 -185 -10 -30 -3 -111 -7
-180 -10 -69 -3 -156 -7 -195 -10 -38 -3 -118 -7 -177 -10 -108 -6 -108 -6
-109 17 -1 13 -2 37 -4 53 -1 17 -6 91 -9 165 -4 74 -9 176 -12 225 l-4 90 42
1 c39 1 243 11 378 19 30 2 109 6 175 9 66 3 156 8 200 11 44 3 127 7 185 10
111 6 202 11 365 20 55 3 143 7 195 10 141 7 307 16 380 20 36 2 117 6 180 9
63 4 147 8 185 11 39 2 126 7 195 11 69 3 150 7 180 9 30 2 118 7 195 11 131
6 199 10 218 13 4 1 6 36 3 79 -3 42 -8 142 -12 222 -3 80 -8 156 -9 170 -2
14 -4 38 -4 53 -1 27 -2 28 -57 25 -31 -2 -56 -4 -57 -4z m-3290 -521 c-42
-43 -85 -89 -94 -103 -9 -14 -20 -27 -23 -30 -24 -20 -173 -251 -233 -360 -96
-176 -267 -547 -267 -579 0 -14 -40 -13 -113 2 l-59 12 -25 60 c-37 89 -88
159 -176 246 l-78 77 48 52 c26 29 64 70 83 92 l36 39 30 -33 c69 -77 138
-176 172 -250 9 -21 19 -38 22 -38 3 0 41 57 85 126 44 69 91 141 105 160 14
18 36 49 50 69 115 166 332 404 450 493 30 23 57 42 60 42 2 0 -30 -35 -73
-77z"/>
</g>
</svg>
