<svg xmlns="http://www.w3.org/2000/svg" width="16" height="16" viewBox="0 0 16 16">
  <path fill-rule="evenodd" d="M9.51214078,15.9679216 C7.23545308,15.9679216 5.87881706,15.9185421 5.44219202,15.8197817 C5.00556698,15.7210212 4.64691608,15.567685 4.36622855,15.3597683 C4.22068687,15.2454141 3.95559708,15.1466552 3.57095121,15.0634885 C3.18630534,14.9803218 2.48459706,14.9075521 1.4658053,14.8451771 C1.38263863,14.8347813 1.30726996,14.8165888 1.23969704,14.7905992 C1.17212411,14.7646096 1.1175468,14.720428 1.07596347,14.658053 C1.0551718,14.6268655 0.870648507,14.2604178 0.522388059,13.558699 C0.174127612,12.8569802 0,11.9083746 0,10.7128536 C0,9.52772853 0.12474814,8.65709047 0.374248162,8.10091334 C0.623748184,7.5447362 0.753694163,7.25105829 0.764089997,7.21987079 C0.816069168,7.14709995 0.878443238,7.08992372 0.951214078,7.04834038 C1.02398492,7.00675704 1.10715034,6.98596569 1.20071285,6.98596569 C1.61654622,6.98596569 2.06875823,6.85601971 2.55736244,6.59612385 C3.04596665,6.336228 3.53716245,5.95418682 4.03096458,5.44998886 C4.5247667,4.9457909 5.00816574,4.32724804 5.4811762,3.59434172 C5.95418666,2.86143541 6.38820623,2.02198438 6.78324793,1.07596347 C6.91839378,0.753692603 7.04833976,0.493800646 7.17308977,0.296279795 C7.29783978,0.098758944 7.60971013,0 8.10871017,0 C8.39979353,0 8.6882736,0.0909621853 8.97415905,0.272889285 C9.26004449,0.454816384 9.48095265,0.675724548 9.63689017,0.935620405 C9.79282768,1.19551626 9.89678446,1.52298013 9.94876363,1.91802183 C10.0007428,2.31306353 10.0163363,2.72629174 9.99554465,3.15771887 C9.97475299,3.58914599 9.93057135,4.01276988 9.86299843,4.42860325 C9.79542551,4.84443662 9.72525468,5.20308752 9.65248384,5.50456671 C10.1618797,5.50456671 10.8064118,5.50196779 11.5860993,5.49676988 C12.3657869,5.49157196 12.9791319,5.48897304 13.4261528,5.48897304 C14.039507,5.48897304 14.5359007,5.65530389 14.9153486,5.98797059 C15.2947966,6.32063728 15.4897155,6.75725577 15.5001114,7.29783916 C15.5001114,7.47456834 15.4897157,7.66169055 15.468924,7.8592114 C15.4481324,8.05673225 15.4117475,8.21786526 15.3597683,8.34261527 C15.4949142,8.47776112 15.6326569,8.64669089 15.7730007,8.84940966 C15.9133444,9.05212843 15.9887131,9.28343227 15.9991089,9.54332813 C16.0095048,9.88639066 15.9289382,10.1826675 15.757407,10.4321675 C15.5858757,10.6816675 15.4273416,10.8843833 15.2817999,11.0403208 C15.3129874,11.1338833 15.3545702,11.2456368 15.4065493,11.3755848 C15.4585285,11.5055327 15.4793199,11.6484733 15.468924,11.8044108 C15.4481324,12.1890566 15.3233842,12.5061248 15.0946759,12.7556248 C14.8659675,13.0051249 14.6580539,13.1974449 14.4709289,13.3325908 C14.4917206,13.4365491 14.5047152,13.5768908 14.5099131,13.7536199 C14.515111,13.9303491 14.4969186,14.09668 14.4553352,14.2526175 C14.3929602,14.5540967 14.2344261,14.8139886 13.9797282,15.0323012 C13.7250303,15.2506137 13.3871707,15.4273402 12.9661394,15.5624861 C12.5451082,15.6976319 12.0435167,15.7989898 11.46135,15.8665627 C10.8791832,15.9341356 10.2294533,15.9679216 9.51214078,15.9679216 Z M1.73089775,13.8315883 C2.62493949,13.9043592 3.32664778,13.9953213 3.83604366,14.1044776 C4.34543954,14.2136339 4.7248818,14.3617723 4.97438182,14.5488973 C5.17190267,14.7048348 5.44998706,14.8139894 5.80864334,14.8763644 C6.16729963,14.9387394 7.40178643,14.9699265 9.51214078,14.9699265 C9.82401581,14.9699265 10.1982602,14.9621297 10.6348853,14.946536 C11.0715103,14.9309422 11.4925353,14.8919584 11.8979728,14.8295834 C12.3034103,14.7672084 12.6568634,14.6736473 12.9583426,14.5488973 C13.2598218,14.4241473 13.4365483,14.2526186 13.4885275,14.0343061 C13.519715,13.8575769 13.4781323,13.6964439 13.3637781,13.5509022 L13.1922477,13.3325908 C13.1402685,13.2078408 13.1376696,13.0804937 13.1844509,12.9505458 C13.2312321,12.8205978 13.3169965,12.7296357 13.4417465,12.6776565 C13.4521423,12.6776565 13.623671,12.5944911 13.9563377,12.4281577 C14.2890044,12.2618244 14.4605331,12.0435151 14.4709289,11.7732234 C14.4813248,11.5860984 14.4449399,11.4431578 14.3617732,11.3443974 C14.2786065,11.245637 14.2370238,11.1910597 14.2370238,11.1806638 C14.164253,11.0767055 14.1408627,10.9571552 14.1668523,10.8220093 C14.1928419,10.6868635 14.2578149,10.5777089 14.3617732,10.4945422 L14.6814435,10.2294498 C14.8945581,10.0527206 15.0011138,9.83441133 15.0011138,9.57451547 C14.990718,9.35620295 14.891959,9.17947642 14.704834,9.04433058 C14.517709,8.90918473 14.4189501,8.84161282 14.4085542,8.84161282 C14.3461792,8.80002949 14.2942008,8.75065001 14.2526175,8.69347293 C14.2110342,8.63629584 14.1798471,8.57132285 14.1590555,8.49855201 C14.1486596,8.436177 14.1512585,8.36860509 14.1668523,8.29583425 C14.182446,8.22306341 14.2110342,8.1554915 14.2526175,8.0931165 L14.3773669,7.85141456 C14.4605336,7.69027913 14.5021163,7.51095368 14.5021163,7.31343283 C14.4917204,6.90799529 14.3331863,6.66889469 14.0265092,6.59612385 C13.7198321,6.52335301 13.5197153,6.48696814 13.4261528,6.48696814 L10.7050568,6.48696814 C10.2216505,6.48696814 9.80582337,6.48956706 9.45756292,6.49476497 L8.93517486,6.50256181 C8.84161235,6.50256181 8.75844693,6.48177045 8.68567609,6.44018712 C8.61290525,6.39860378 8.55572902,6.34142755 8.51414568,6.26865671 C8.46216651,6.2062817 8.43357839,6.13351196 8.42838048,6.05034528 C8.42318256,5.96717861 8.43617716,5.88401318 8.46736466,5.80084651 C8.59211467,5.44738814 8.69867037,5.05755021 8.78703497,4.631321 C8.87539956,4.2050918 8.93777363,3.78666575 8.97415905,3.37603029 C9.01054447,2.96539484 9.01574231,2.5885515 8.98975272,2.24548897 C8.96376313,1.90242644 8.89359231,1.63733664 8.77923813,1.45021163 C8.70646729,1.33585745 8.63889538,1.23190067 8.57652037,1.13833816 C8.51414537,1.04477565 8.35821019,0.997995098 8.10871017,0.997995098 C8.07752267,0.997995098 8.02554428,1.02398429 7.95277344,1.07596347 C7.8800026,1.12794264 7.79683717,1.25788862 7.70327466,1.4658053 C7.28744129,2.46380539 6.82743253,3.3552348 6.32323457,4.14012029 C5.81903661,4.92500578 5.29405485,5.59032919 4.74827355,6.13611049 C4.20249225,6.68189178 3.65412022,7.11071351 3.10314101,7.42258854 C2.55216179,7.73446357 2.0219822,7.91638794 1.51258632,7.96836711 C1.41902381,8.16588796 1.30986919,8.48295615 1.18511918,8.91958119 C1.06036917,9.35620623 0.997995098,9.95395773 0.997995098,10.7128536 C0.997995098,11.4821454 1.08895728,12.1448699 1.27088438,12.701047 C1.45281148,13.2572241 1.60614774,13.6340675 1.73089775,13.8315883 Z"/>
</svg>
