<svg xmlns="http://www.w3.org/2000/svg" width="16" height="16" viewBox="0 0 16 16">
  <path fill-rule="evenodd" d="M3.95534269,0.369808463 C4.2554786,0.787854903 4.5850872,1.26484946 4.94417837,1.80080643 C5.30326954,2.3367634 5.69183252,2.93166672 6.10987896,3.58553423 C6.21707035,3.75704046 6.26262601,3.94998208 6.2465473,4.16436487 C6.2304686,4.37874766 6.152756,4.6092057 6.01340719,4.85574591 C5.95981149,4.9629373 5.86870017,5.13444096 5.7400705,5.37026203 C5.61144082,5.6060831 5.44529665,5.91157399 5.241633,6.28674388 C5.46673493,6.60831806 5.75346761,6.96740385 6.10183964,7.36401201 C6.45021168,7.76062017 6.85485312,8.18937932 7.31577612,8.65030232 C7.78741826,9.12194445 8.21885715,9.53194539 8.61010574,9.88031742 C9.00135434,10.2286895 9.35240089,10.5154221 9.66325593,10.7405241 C10.0277067,10.5261413 10.3305178,10.3519579 10.5716985,10.2179686 C10.8128791,10.0839794 10.9870625,9.99018832 11.0942539,9.93659262 C11.2228836,9.86155865 11.3541911,9.80528401 11.4881803,9.76776702 C11.6221695,9.73025003 11.7481175,9.71149182 11.8660281,9.71149182 C11.9625003,9.71149182 12.0509319,9.7222108 12.1313255,9.74364908 C12.211719,9.76508736 12.2894316,9.79724429 12.3644656,9.84012085 C12.8468269,10.1295376 13.3559783,10.4537867 13.8919353,10.8128779 C14.4278923,11.1719691 15.0013577,11.5658915 15.6123486,11.9946571 C15.71954,12.0696911 15.8052918,12.1661619 15.8696067,12.2840724 C15.9339215,12.401983 15.9767974,12.5306107 15.9982357,12.6699595 C16.0089548,12.8200275 15.9928764,12.9727729 15.9499998,13.1282004 C15.9071233,13.283628 15.8320904,13.4417329 15.724899,13.60252 C15.6820224,13.677554 15.6177086,13.7686653 15.5319555,13.8758567 C15.4462023,13.9830481 15.344372,14.1063163 15.2264615,14.2456652 C15.1192701,14.385014 14.9799234,14.5431189 14.8084172,14.7199847 C14.6369109,14.8968505 14.4332503,15.0924719 14.1974293,15.3068547 C13.9723273,15.5212374 13.765987,15.6820221 13.5784021,15.7892135 C13.3908171,15.8964049 13.2273527,15.9499998 13.0880039,15.9499998 L13.0558466,15.9499998 C12.4984514,15.9285615 11.914267,15.807973 11.3032761,15.5882307 C10.6922851,15.3684883 10.0491464,15.0549582 9.37384061,14.6476309 C8.69853483,14.2403036 7.99108223,13.7311521 7.25146161,13.1201611 C6.51184098,12.5091702 5.74007452,11.8070771 4.93613905,11.0138608 C4.13220359,10.2099253 3.42743074,9.43815883 2.82179936,8.6985382 C2.21616798,7.95891758 1.70701649,7.25146498 1.29432962,6.5761592 C0.881642751,5.90085341 0.568112624,5.25503494 0.353729834,4.63868442 C0.139347045,4.0223339 0.021438279,3.44082931 0,2.89415319 C0,2.74408524 0.0535948935,2.57526132 0.160786288,2.38767638 C0.267977683,2.20009144 0.428762364,1.98839161 0.643145154,1.75257054 C0.857527943,1.51674947 1.05046956,1.31576862 1.22197579,1.14962196 C1.39348202,0.9834753 1.54890721,0.846808322 1.68825603,0.739616927 C1.8168857,0.643144671 1.94015396,0.552033352 2.05806449,0.466280236 C2.17597503,0.38052712 2.27780532,0.30549427 2.36355844,0.241179433 C2.48146897,0.155426317 2.60473723,0.0937921892 2.7333669,0.0562752009 C2.86199658,0.0187582127 3.0013433,0 3.15141125,0 C3.32291748,0 3.47566293,0.0294771914 3.60965217,0.0884324586 C3.74364142,0.147387726 3.85887044,0.241178789 3.95534269,0.369808463 Z M2.92631045,1.02903225 C2.71192766,1.1791002 2.50290757,1.34256462 2.29924392,1.51943043 C2.09558027,1.69629623 1.89727917,1.88119861 1.70433466,2.07414312 C1.51139015,2.26708763 1.3586447,2.4332318 1.24609374,2.57258061 C1.13354277,2.71192943 1.06118966,2.82983819 1.02903225,2.92631045 C1.05047052,3.40867173 1.1630198,3.9231827 1.36668345,4.46985882 C1.5703471,5.01653493 1.86511902,5.59803953 2.25100804,6.21439005 C2.63689706,6.83074057 3.11389161,7.47923878 3.682006,8.15990414 C4.2501204,8.84056949 4.90933759,9.55606132 5.65967735,10.3064011 C6.41001712,11.0567409 7.12550894,11.715958 7.8061743,12.2840724 C8.48683966,12.8521868 9.13533787,13.3291814 9.75168839,13.7150704 C10.3680389,14.1009594 10.9522233,14.3957313 11.5042589,14.599395 C12.0562946,14.8030586 12.5734853,14.9209674 13.0558466,14.9531248 C13.1308806,14.9209674 13.2380704,14.8459346 13.3774192,14.728024 C13.516768,14.6101135 13.6829122,14.4546883 13.8758567,14.2617438 C14.0688012,14.0687993 14.2510238,13.8678184 14.4225301,13.6587952 C14.5940363,13.449772 14.7601805,13.2380722 14.9209676,13.0236894 C14.953125,12.9808128 14.9745629,12.9406166 14.9852821,12.9030996 C14.9960012,12.8655827 14.9960012,12.830746 14.9852821,12.7985886 C14.363572,12.3591038 13.7927864,11.9678611 13.2729081,11.6248487 C12.7530298,11.2818362 12.2840745,10.9763453 11.8660281,10.7083668 C11.8231515,10.7083668 11.7749161,10.716406 11.7213204,10.7324848 C11.6677247,10.7485635 11.6087703,10.7726812 11.5444555,10.8048386 C11.4587024,10.8584343 11.2979177,10.9495456 11.0620966,11.0781753 C10.8262756,11.2068049 10.5207847,11.3729491 10.1456148,11.5766128 L9.61502005,11.8981853 L9.08442529,11.5444555 C8.74141283,11.3086344 8.36356883,11.0058233 7.95088196,10.636013 C7.53819509,10.2662027 7.08531824,9.83476377 6.59223782,9.34168336 C6.10987655,8.84860294 5.68647689,8.39572609 5.32202615,7.98303922 C4.9575754,7.57035235 4.657444,7.19250835 4.42162293,6.84949589 L4.03573584,6.35105839 L4.35730842,5.78830638 C4.56097207,5.4131365 4.72711624,5.11032535 4.85574591,4.87986385 C4.98437558,4.64940235 5.0754869,4.48593793 5.1290826,4.38946567 C5.16124002,4.32515084 5.18535772,4.26619645 5.20143643,4.21260076 C5.21751514,4.15900506 5.22555437,4.11076965 5.22555437,4.0678931 C4.85038449,3.47834042 4.49397845,2.92631302 4.15632556,2.41179433 C3.81867266,1.89727563 3.49442356,1.41492159 3.18356851,0.96471773 L3.15141125,0.96471773 C3.10853469,0.96471773 3.06833852,0.97007722 3.03082154,0.980796359 C2.99330455,0.991515499 2.95846787,1.00759397 2.92631045,1.02903225 Z"/>
</svg>
