<svg xmlns="http://www.w3.org/2000/svg" width="16" height="16" viewBox="0 0 16 16">
  <path fillRule="evenodd" d="M14.852373,0.0399395236 C15.1435975,-0.0432674638 15.4036154,0.00353576457 15.6324346,0.180350613 C15.8612538,0.357165461 15.9756617,0.591181603 15.9756617,0.882406059 L15.9756617,13.0201647 C15.9756617,13.2697856 15.892456,13.5012016 15.726042,13.7144195 C15.559628,13.9276374 15.356814,14.0654469 15.1175939,14.1278521 L8.51827275,15.9219938 C8.41426401,15.9531965 8.30765666,15.9739979 8.19844749,15.9843988 C8.08923832,15.9947996 7.99303168,16 7.90982469,16 C7.79541509,16 7.68360737,15.9921995 7.5743982,15.9765982 C7.46518903,15.9609968 7.3689824,15.9427956 7.28577541,15.9219938 L0.858067768,14.1434534 C0.618847679,14.0706473 0.416033689,13.9276374 0.249619714,13.7144195 C0.0832057393,13.5012016 0,13.2697856 0,13.0201647 L0,0.882406059 C0,0.591181603 0.114407892,0.357165461 0.343227107,0.180350613 C0.572046322,0.00353576457 0.832064258,-0.0432674638 1.12328871,0.0399395236 L7.55099635,1.81847999 C7.63420334,1.83928173 7.75121141,1.84968245 7.90202408,1.84968245 C8.05283674,1.84968245 8.16984481,1.83928173 8.2530518,1.81847999 L14.852373,0.0399395236 Z M7.48859143,14.9391162 L7.48859143,2.81695884 C7.45738881,2.81695884 7.42358647,2.81175849 7.38718342,2.80135761 C7.35078036,2.79095674 7.31697803,2.78575638 7.28577541,2.78575638 L0.998478857,1.03841838 L0.998478857,13.0201647 C0.998478857,13.0513673 1.01147975,13.0825694 1.03748194,13.1137721 C1.06348412,13.1449747 1.08688573,13.1657761 1.10768748,13.176177 L7.48859143,14.9391162 Z M14.9771829,13.0201647 L14.9771829,1.03841838 L8.51827275,2.78575638 L8.48707028,2.78575638 L8.48707028,14.8923125 L14.852373,13.176177 C14.8731747,13.1657761 14.8991765,13.1449747 14.9303792,13.1137721 C14.9615818,13.0825694 14.9771829,13.0513673 14.9771829,13.0201647 Z M10.015991,5.71878802 C9.9119823,5.71878802 9.81317548,5.68758587 9.71956762,5.62518063 C9.62595976,5.56277539 9.56355546,5.47436929 9.53235284,5.35995968 C9.50115022,5.22474833 9.51935147,5.09733954 9.58695715,4.9777295 C9.65456283,4.85811945 9.75076946,4.77751389 9.87557994,4.7359104 L13.3702559,3.75303277 C13.5054673,3.72183015 13.6328761,3.74003141 13.7524861,3.80763708 C13.8720962,3.87524276 13.9527017,3.97664976 13.9943052,4.11186111 C14.0255078,4.23667159 14.0073066,4.35888002 13.9397009,4.47849007 C13.8720952,4.59810011 13.7758886,4.67870567 13.6510781,4.72030916 L10.1564021,5.70318679 C10.1356004,5.71358766 10.1121988,5.71878802 10.0861966,5.71878802 L10.015991,5.71878802 Z M10.015991,8.71422459 C9.9119823,8.71422459 9.81317548,8.68302244 9.71956762,8.6206172 C9.62595976,8.55821196 9.56355546,8.46980586 9.53235284,8.35539625 C9.50115022,8.2201849 9.51935147,8.09277611 9.58695715,7.97316607 C9.65456283,7.85355602 9.75076946,7.77295046 9.87557994,7.73134697 L13.3702559,6.74846934 C13.5054673,6.71726672 13.6328761,6.73546798 13.7524861,6.80307366 C13.8720962,6.87067933 13.9527017,6.97208633 13.9943052,7.10729768 C14.0255078,7.23210816 14.0073066,7.35431659 13.9397009,7.47392664 C13.8720952,7.59353668 13.7758886,7.67414224 13.6510781,7.71574574 L10.1564021,8.69862336 C10.1356004,8.70902423 10.1121988,8.71422459 10.0861966,8.71422459 L10.015991,8.71422459 Z M10.015991,11.7096612 C9.9119823,11.7096612 9.81317548,11.678459 9.71956762,11.6160538 C9.62595976,11.5536485 9.56355546,11.4652424 9.53235284,11.3508328 C9.50115022,11.2156215 9.51935147,11.0882127 9.58695715,10.9686026 C9.65456283,10.8489926 9.75076946,10.768387 9.87557994,10.7267835 L13.3702559,9.74390591 C13.5054673,9.71270329 13.6328761,9.73090455 13.7524861,9.79851023 C13.8720962,9.8661159 13.9527017,9.9675229 13.9943052,10.1027343 C14.0255078,10.2275447 14.0073066,10.3497532 13.9397009,10.4693632 C13.8720952,10.5889733 13.7758886,10.6695788 13.6510781,10.7111823 L10.1564021,11.6940599 C10.1356004,11.7044608 10.1121988,11.7096612 10.0861966,11.7096612 L10.015991,11.7096612 Z M6.16248669,4.7359104 C6.28729718,4.77751389 6.38350381,4.85811945 6.45110949,4.9777295 C6.51871517,5.09733954 6.53691642,5.22474833 6.5057138,5.35995968 C6.47451118,5.47436929 6.41210688,5.56277539 6.31849902,5.62518063 C6.22489115,5.68758587 6.12608434,5.71878802 6.0220756,5.71878802 L5.95187006,5.71878802 C5.92586788,5.71878802 5.90246626,5.71358766 5.88166452,5.70318679 L2.38698852,4.72030916 C2.26217804,4.67870567 2.1659714,4.59810011 2.09836572,4.47849007 C2.03076005,4.35888002 2.01255879,4.23667159 2.04376141,4.11186111 C2.0853649,3.97664976 2.16597046,3.87524276 2.28558051,3.80763708 C2.40519055,3.74003141 2.53259934,3.72183015 2.6678107,3.75303277 L6.16248669,4.7359104 Z M6.16248669,7.73134697 C6.28729718,7.77295046 6.38350381,7.85355602 6.45110949,7.97316607 C6.51871517,8.09277611 6.53691642,8.2201849 6.5057138,8.35539625 C6.47451118,8.46980586 6.41210688,8.55821196 6.31849902,8.6206172 C6.22489115,8.68302244 6.12608434,8.71422459 6.0220756,8.71422459 L5.95187006,8.71422459 C5.92586788,8.71422459 5.90246626,8.70902423 5.88166452,8.69862336 L2.38698852,7.71574574 C2.26217804,7.67414224 2.1659714,7.59353668 2.09836572,7.47392664 C2.03076005,7.35431659 2.01255879,7.23210816 2.04376141,7.10729768 C2.0853649,6.97208633 2.16597046,6.87067933 2.28558051,6.80307366 C2.40519055,6.73546798 2.53259934,6.71726672 2.6678107,6.74846934 L6.16248669,7.73134697 Z M6.16248669,10.7267835 C6.28729718,10.768387 6.38350381,10.8489926 6.45110949,10.9686026 C6.51871517,11.0882127 6.53691642,11.2156215 6.5057138,11.3508328 C6.47451118,11.4652424 6.41210688,11.5536485 6.31849902,11.6160538 C6.22489115,11.678459 6.12608434,11.7096612 6.0220756,11.7096612 L5.95187006,11.7096612 C5.92586788,11.7096612 5.90246626,11.7044608 5.88166452,11.6940599 L2.38698852,10.7111823 C2.26217804,10.6695788 2.1659714,10.5889733 2.09836572,10.4693632 C2.03076005,10.3497532 2.01255879,10.2275447 2.04376141,10.1027343 C2.0853649,9.9675229 2.16597046,9.8661159 2.28558051,9.79851023 C2.40519055,9.73090455 2.53259934,9.71270329 2.6678107,9.74390591 L6.16248669,10.7267835 Z"/>
</svg>
