<svg xmlns="http://www.w3.org/2000/svg" viewBox="0 0 274.2 159.4">
  <path d="M155.6.5c-.2-.1-.6-.3-.7-.1.1.2.7.4.7.1zM157.4 1.3c.1-.3-.3-.2-.4-.1-.1.2.3 0 .4.1zM157.6 1.2c.1.2.4.3.8.3-.1-.3-.6-.4-.8-.3zM159.9 1.7c-.2 0-.5-.3-.6 0 .1.1.5.2.6 0zM142.4 4.2c0-.3-.1-.4-.3-.4-.1.2.1.4.3.4zM117.4 39.4c-.1 0-.1 0-.2-.1-.1.1-.1.2-.1.3.2.1.2-.1.3-.2zM91.8 44.7c.1 0 .1-.1.2-.1v-.3c-.1-.1-.4-.1-.5 0 .1.3.2.4.3.4zM95.7 50.7c.2.1.4.1.7.1.1-.4-.8-.5-.7-.1zM129.4 57.1c-.2.1-.2.5.1.4.1 0 0-.3-.1-.4zM79.3 64c.3-.3.9-.3 1-.7 1.6-.6 3.8.1 4.6 1.1.1.2-.1.2.1.4 1.3.1 2.4.5 2.6 1.8.6.3.9 0 1.3-.3-.7-.6.5-.8.8-1.3.5 0 .9-.3 1.4-.2.4 0 .7.3 1.1.3.6-.1.6-.9.9-1.3-1.2-.4-2.8-.3-4.2-.5-.4-.7-1.8-.5-2.6-.9.1-.5-.2-.7-.3-1-.5 0-.6-.4-1-.6-.5.1-.5-.2-1.1-.1-.2.1-.2.3-.4.4-.1 0-.1-.2-.3-.1-.4.4-.9.5-1.4.9-1-.5-2.6-.4-3.4-1.1.3-.5-.3-.9-.7-.7-.1.2 0 .4.2.5-.1.1-.2.4-.1.6-.4.2-.6.9-.5 1.3.1 1 1.2 1.2 2 1.5zM92.5 65.6c-.2 0-.3 0-.4.1v.2c.3 0 .4-.1.4-.3zM106.1 74c.1.1.2.1.3.3-.1.2-.5.9 0 1 .1-.4.2-.9.3-1.3-.2-.2-.2-.1-.1-.4-.3-.2-.5.1-.5.4zM184.5 80.7c-.4-.2-.7.2-.8.5.5 0 .7-.2.8-.5zM195.4 83.8c0 .3-.4.1-.5.3-.1.5.2.5.4.7.2-.1.4-.1.5-.3 0-.3-.3-.4-.4-.6.3.1.2-.1 0-.1zM197.6 85.2c.3 0 .5-.1.8-.1 0-.2.2-.2.2-.4-.3-.1-.2-.6-.6-.7 0 0-.3.1-.5.1.3.4-.3.7.1 1.1zM71.6 85.1c-.1-.2 0-.7-.2-.7-.2.1-.3.3-.3.5.1 0 .3.4.5.2zM196.4 84.4c-.3-.1-.4.3-.3.4.3 0 .3-.2.3-.4zM71.3 86.1c1 .2 1.4 1.1 2.4 1.4.5-.1.6-.1 1.1-.1.2.1.2.4.5.3.1-.1.3-.1.3-.3-.4-.2-.7-.5-1.1-.7-1 .2-2.6-.7-2.4-1.7-.5.2-.8.5-.8 1.1zM195.2 88.3c.1.1.3.1.5.1 0 .3.3.4.5.5.1-.3.6-.6.2-.9.5-.4.5-1.1.5-1.7h.2c-.1-.4.2-.4.1-.7-.5-.4-.5.4-1 .4 0 .1 0 .2-.1.3-.1 0-.1-.1-.2-.1-.1.6-.5 1.2-.7 2.1zM198.5 85.7c-.3 0-.7-.1-.7.2.2.2.7.1.7-.2zM175.6 87.1c.1-.2-.2-.1-.1-.3.1-.1.1-.3.4-.2-.1-.4.3-.3.3-.5-.2-.1-.4-.3-.7-.2 0 .1-.1.1-.1.1.2.7-.4.8-.5 1.3.1.1.5-.1.7-.2zM100.7 88.1c-.8-.1-1.4.2-1.8.2.3.4.7.8.7 1.3h.4c.2.4.6.5 1.1.6.3 0 .6.2.9.3.1.1.2.3.4.4h.3c.2.1.2.3.5.3s.7.1.9-.1c.3.3 1 .2 1 .8.2 0 .6.1.7-.1.1-.3-.2-.3-.1-.5.4-.3.9-.4 1.4-.3 0-.1.1-.3.4-.3.1 0 .1.1.1.2.2-.2.6-.2.8-.3 0-.3.1-.4.2-.7-.3-.1-.3.1-.6.1.2-.3-.1-.4-.2-.7.2-.3.2-.7-.1-.8.2-.4 0-.6.1-1.1-.7-.3-1.1-.4-1.9-.1-.3-.3-.1-.9-.6-1 0 .1 0 .2-.1.3-.1 0-.1-.2-.2-.2-.2.6-.8.7-1.3.3-.2.8-2 .4-1.6 1.3-.3.3-1 .1-1.4.1zM197.8 86.7h.2c0-.2 0-.3-.1-.3 0 .1-.1.2-.1.3zM195.4 91.7c.3.4.7.1 1.1-.1.1-.1.2.1.3 0 .2-.1 0-.2.2-.3.1 0 .1-.1.1-.1 0 .1.2 0 .2.2.3-.2.7-.1.9-.5-.3 0-.3-.2-.6-.4.2-.3.7.1.8-.3 0-.1-.3-.1-.2-.3.3-.5.7-.9 1.1-1.3.5-.3 1.2-.5 1.1-1.2-.2 0-.3 0-.5.1.1-.1.1-.3 0-.3-.3.1-.3 0-.4-.3-.4-.1-.4.2-.7.3-.1.2.1.3.1.3-.5.1.1.4-.3.6-.1-.1-.2-.1-.3 0-.2.8-1.1 1.5-1.9 1.8-.1.2.3.2.1.3-.3.1-.7.3-.5.7h-.3c-.4.2-.1.6-.3.8z"/><path d="M197.4 88.5c.3.1.2-.2.4-.3.3-.1.7-.2.6-.6-.4-.2-.6.2-.9.3 0 .2-.1.4-.1.6zM73 88.2c-.3 0-.4.1-.3.3.3 0 .4-.1.3-.3zM114.3 90.2c-.1.3.1.4.1.6.4-.1-.1-.3.1-.6h-.2zM114.7 90.9c.1.6.5.9 1 1 0-.2-.1-.1-.1-.3-.5.1-.5-.6-.9-.7zM168.7 95c.1-.6-.7-.5-1.3-.3-.1.4.2.3.1.7.7 0 1.2 0 1.2-.4zM177.6 96.7c0 .4.3.4.6.4.1-.5-.4-.5-.6-.4zM168.6 97.9c0-.2-.1-.2-.3-.2 0 .2.1.2.3.2zM173.4 98.4c0 .2.2.3.2.5.3 0 0-.2.3-.3.1 0 .2.2.4.1s-.2-.4.3-.3c-.1-.3.2-.5-.1-.5-.1.5-.5.1-.9.1.2.3-.2.5-.2.4zM175.1 98.8c.1-.2.4-.2.5-.4-.2-.2-.7-.4-.8.1.1.1.1.3.3.3zM132.5 99.3c-.1 0-.1-.1-.2-.1-.5.6-1.2.6-1.8.9 0 .2 0 .3-.1.4-.2-.1-.3-.5-.5-.3.2.4.6.7.5 1.3.3-.2.5 0 .9-.1.5-.7.9-1.4 1.2-2.1zM133.8 99.7c-.1.2-.1.4-.1.7.4.2.5-.6.1-.7zM134.5 99.9h-.2c-.2.3 0 .7.3.9.3-.3-.1-.5-.1-.9zM134.9 100.3c.1-.1.1-.2-.1-.3 0 .2 0 .3.1.3zM161.5 110.7c-.1.4.2.4 0 .8 1.2-.2 1.4.9 1.3 2.2.5.2 1.2.3 1.1 1.2.2 0 .2-.1.5-.1.2-.6.7-.9 1.2-1.1-.2.4.3.2.3.5-.6.3-1 .8-1.2 1.5 0 .1.3 0 .3.1-.1.1-.3.1-.3.4.1 0 .6 0 .8-.1.1-.2-.2-.3 0-.4.2.2.8.3.9-.1-.2-.2-.3.2-.4 0 .1-.3.4-.3.5-.6.1 0 .2.1.3.1.1-.2.2-.3.4-.4.1-.2-.2-.1-.1-.3.1 0 .1-.2.3-.1 0 .2-.1.1-.1.3.3 0 .5 0 .5-.3 0-.2-.3 0-.2-.2.1-.2.3-.2.3-.5 0-.1-.3-.1-.3-.2.2-.2-.1-.2-.1-.5.1.1.3.2.5.2.1-.1.1-.2.1-.4.2.2.1-.1.3-.1-.4.5.5.5.1.9.7.3 1.3-.3 1.6-.8-.1.5.5.3.5.7.2 0 .3-.1.4-.1v-1.1c-.4-.1-.8 0-1.1-.2.3-.1.5-.2.7-.3 0-.3-.3-.4-.5-.6.5 0 .6.4.9.5.3 0 .2-.3.5-.3 0 .1 0 .2.1.2.4-.1.5-.5.5-1-.2-.2-.7-.1-.7-.5.3.1.3.1.6.1 0 .4.5.1.5.4.3-.2.5-.3.8 0 .2-.6.4-1.1.9-1.3 0-.3-.1-.3.1-.5-.5.3-1-.2-1.3 0 0-.2.2-.2.2-.4-.1-.2-.4.1-.5 0 .1-.4.9-.3 1.1-.6-.1-.4-.1-.6-.1-1.1-.3 0-.5-.2-.7-.3.1-.1 0-.1 0-.3-.3.1-.2-.2-.4-.1 0 .1.1.1.1.2-.4-.1-.2.5-.5.4-.1 0 0-.2-.2-.1-.3.2-.5.4-.7.7-.1-.2-.3 0-.4-.2.3-.2.5-.5.6-.9 0-.1-.3 0-.3-.1.1 0 0-.3.1-.3.5.1.5-.4.7-.6 0 .2 0 .3.1.3.3 0 .2-.3.5-.3.6.1.6.2 1.1 0 .1-.3-.2-.2-.2-.4.1 0 .1-.3.2-.3.2.4.4.3.7.5.3-.1.3-.6.7-.6 0-.6.2-.9-.1-1.2-.1.2-.3.4-.5.3 0-.2.3-.1.3-.3-.2-.1-.2-.3-.4-.3s-.2.2-.4.3c-.1-.3-.4-.7-.7-.5-.1.1 0 .5-.2.5-.2-.1-.3-.2-.5-.5.7-.3.9-1.1.9-1.6-.5 0-.8.1-1.1.3-.1-.1 0-.2 0-.4h-.3c-.2.5-.8.6-.4 1.3-.5.1-.6.7-1.2.5-.1.4.3.3.4.6-.2.2-.2-.1-.5-.1-.2.2 0 .3 0 .5-.2-.1-.3-.2-.6-.2-.1.2-.3.2-.3.5.1.1.3.1.3.3-.2.1-.6-.3-.9 0v.5c-.7-.1-.6.4-1 .6 0 .3.4.2.3.5-.4-.1-.1.4-.3.4-.1-.1-.2-.1-.3-.1-.1.3-.3.4-.4.6.4 0 .5.2.7.4-.5-.1-.1.5-.3.5-.1 0-.1.1-.1.1 0-.4-.4-.4-.4-.9-.6.2-1.5.1-1.8.6.1.2-.1.7.1.9.4 0 .7 0 1 .3h-.8c-.1.3.1.4.2.5-.1.2-.2.3-.3.5-.4-.1-.3-.5-.3-.9-.1 0-.2-.1-.3-.1-.2-.1-.1.2-.3.1-.7-.4-1.4.2-1.8.5h-.4v.3c-.5.2-.7.6-.9 1 0 .2.1.1.1.3.2-.1 0-.1-.1-.1zM136.1 100.9c-.1 0-.1-.1-.3-.1-.1.1 0 .1 0 .3h.3v-.2zM167.7 101.1c0-.2 0-.3-.2-.3-.1.2 0 .4.2.3zM134.2 101.1h.2c0-.1-.1-.2-.2-.2v.2zM174.1 101.7c.1.1.2.1.3-.1-.2-.1-.3-.1-.3.1zM176.4 103.7c-.5-.3-.7.1-.7.7.1 0 .2 0 .1.1.5 0 .7-.3.6-.8zM265.6 109.8c0-.1.1-.2.1-.3-.2 0-.3.3-.1.3zM173.7 110.8c.3.1.3-.1.4-.3-.1-.1-.3-.1-.4 0v.3zM84.4 112c-.1.1-.1.3-.1.5.5-.1.3.5.7.5.3-.1.2-.6.6-.5 0-.4.3-.5.3-.9-.4 0-.5.3-.9.3-.1-.2-.3.1-.6.1zM152.4 114.1c0 .2 0 .3.1.3 0-.1.1-.3-.1-.3zM151.1 115h.1c0-.1.1-.1.1-.1-.1 0-.1-.1-.2-.1v.2zM150.8 115c-.3-.1-.3.2-.3.4.3 0 .2-.3.3-.4zM151.2 115.2c-.1.4.3.4.3.1-.1 0-.1-.2-.3-.1zM148.7 115.7c.2 0 .2.1.3-.1-.1-.1-.3-.1-.3.1zM150.6 115.8c0-.2.1-.2-.1-.3-.1.2-.2.3.1.3zM88.3 117.4h.3c.1-.3.5-.2.5-.5-.1 0-.1-.1-.1-.3-.4.1-.9 0-1.5 0 0 .5.6.4.8.8zM165.1 116.6c-.7 0-1.2 0-1.5.5-.1-.1-.2-.3-.3-.3h-.5c-.4.1-1.9 1.3-1.1 1.8.5-.5 1.1-.9 1.8-1.2.1.6.8.4 1.1.3.5-.1 1.3.1 1.4-.3v-.3c-.5 0-.4.1-.8.1.1-.3-.1-.3-.1-.6zM148.9 117.3c.5.5 1.2-.3 1.9.1-.1-.8-1.7-.8-1.9-.1zM147 117.4c-.1.1-.2.4 0 .4.1-.2.3-.4 0-.4zM146 119.3c.4.4.8-.1.8-.5 0-.2-.4-.4-.2-.6-.2.1-.2-.1-.4-.1-.1.2-.2.9.1 1 0 .2-.3.1-.3.2zM265.8 118.4c-.2 0-.1-.1-.3-.1 0 .1 0 .2.1.3.1 0 .1-.1.2-.2zM151.6 119.7c-.1.3-.2.8.2.8.2-.3 0-.6.1-.8h-.3zM145.3 120.3c0-.1-.4-.1-.5 0v.1c.1.2.6.3.5-.1zM151.8 120.9c.1.2 0 .3-.1.4.1.2.3.3.5.4.2-.2-.2-.5.2-.5 0-.2-.1-.3-.1-.5-.2 0-.3.1-.5.2zM130.7 121.6s.2 0 .2.1c.2-.2-.2-.3-.2-.1zM141.2 123.3c.3 0 .2-.3.5-.3.1-.2-.2-.1-.1-.3.3 0 .5.3.8.1 0-.5-.6-.4-.6-.9h-.3c-.1.3.3 0 .2.3-.5.2-.5.7-.5 1.1zM156.7 122.8c0 .2.1.4.2.5.4-.1.4.1.7.1.4-.3.1-.9.2-1.3-.5-.4-.5.7-1.1.7zM137.5 129.1c.3.1.5 0 .9.1-.1.3.2.1.2.3 0 .2-.2.4-.1.5.4 0 .5-.2.7-.3 0-.2-.2-.2-.1-.5.1 0 .3 0 .3-.2-.4-.3-.9 0-1.1-.3.1-.1.2-.6 0-.7.2-.2 0-.5.2-.8h-.2c0 .6-.6.5-.5 1.2h-.3v.7zM134.7 130.6c.5 0 .1-.7.6-.7v-.3c.4-.1.4-.6.9-.7.1-.1-.2-.2 0-.3.2.1.3 0 .3.1-.1.2-.2.6.2.6.1-.1 0-.2 0-.4.3 0 .4-.2.5-.4 0-.2-.1-.2-.2-.3-.1.1-.1.3-.2.3s-.2 0-.3-.1c.1-.1.2-.3.1-.6-.1 0-.3.1-.3-.1.1-.2.2-.3.2-.6-.7-.5-.3.9-1.2.5-.1.2.2.3.1.4-.3-.2-.4.3-.7.3.1.4 0 .6.3.8-.1.1-.2.2-.4.3 0 .1 0 .2.1.3-.1.1-.2.1-.3.1 0 .5.2.6.3.8zM127.4 127.9c.4.2 1 0 1-.5-.3 0-1.1-.1-1 .5zM129.3 127.6c-.3 0-.7-.1-.7.3.1.2.3.4.7.3.1-.2.1-.4 0-.6zM137.5 127.8c-.1.1-.1.4.1.3.1-.1 0-.2-.1-.3z"/><path d="M135.7 130c.1-.2-.1-.3-.2-.3-.1.1-.1.4.2.3zM136.3 129.8c.1 0 .2-.1.2-.1-.1 0-.2 0-.2.1zM139.2 130.6c.5.1.7-.4.6-.7-.7-.3-1 .2-.6.7zM123.5 130.5c-.2 0-.3 0-.3.1.1.1.3.1.3-.1zM136.7 130.9c0 .1.1.1.1.2.3 0 .4-.2.6-.3-.1-.4-.7-.2-.7.1zM123.7 130.6v.2c.2.1.2-.3 0-.2zM125 130.6v.1h.2v-.1h-.2zM137.8 130.7c-.1.3-.1.7.1.8.3 0 .5-.1.5-.4-.3-.1-.3-.4-.6-.4zM122.3 130.9v.3h.1v-.3h-.1zM108.9 135c-.4-.1-1.1-.1-1.2.5.3 0 .2.4.4.6-.3-.1-.2.2-.4.2-.1-.3-.4-.4-.7-.5v-.7c-.2-.2-.3.1-.6-.1-.1.1.1.5-.1.5-.1 0 0-.3-.1-.4-.2-.1-.3-.1-.5-.1-.4.5.2.9-.1 1.3.1.2.3.4.3.7.4-.1.6-.2.9.1.4-.4 1-.2 1.3-.7 0 .2.2.1.4.1.4 0 .2-.7.8-.5v-.3c-.2-.2-.7 0-.7-.3 0-.2.3-.2.3-.4zM111.7 135.8c.1.1.2.2.5.2-.1-.3.2-.1.3-.4-.3-.3-.7 0-.8.2zM110 136.6c-.6-.1-1.6 0-1.7.5.2.2.6 0 .6-.3.5-.1.5.2.9.2.2 0 .2-.2.3-.3.4.1.7.1 1.3.1.1-.2.4-.5.3-.7-.6.2-1.5 0-1.7.5zM98.5 141.8c-.1 0-.2.2-.3.2h-.3c-.3.1-.5.6-.9.6.1.2-.1.2-.1.3.4.1.8.1 1.1.4.2 0 .2-.3.3-.3.2 0 .2.3.5.3.1-.1-.1-.2.1-.3.1 0 .2.1.3.1.3 0 .3-.7.6-.5.1-.1.1-.6.4-.3 0-.5.6-.3.7-.6.2 0 .1.2.3.2 0-.1.1-.2.1-.2.2.3.6-.1.9 0 .1 0 0-.4.1-.4.2 0 .1.1.3.1.1-.3.1-.5.4-.3 0-.2.1-.2.1-.5.1 0 .1.1.3.1.1-.1-.1-.2-.1-.4.7-.1.9-.2 1.3-.6.3 0 .5-.2.5-.5h.2c0-.2 0-.3-.1-.5.2-.1.4-.2.5-.4-.3-.1-.2.2-.4.1-.6-.1-.9.5-1.5.6 0-.8 1.1-.5 1.1-1.3-.2 0-.3-.2-.3-.4-.3-.1-.2.2-.5.1.1-.1.1-.2 0-.3-.4 0-.4.5-.6.8-.1-.2-.4-.1-.4-.1v-.5c-.3-.4-1-.2-1.2-.2 0-.1 0-.1-.1-.1-.1.1-.1.3-.3.3-.1-.1-.1-.2-.3-.2-.3 0-.2.3-.4.3 0-.1 0-.2-.1-.3-.3 0-.5 0-.5.2.4.1-.4.5.1.7-.1.1-.3.2-.2.5.3.1.4.4.6.5.1 0 .4-.1.3.1-.2.1-.4.1-.5.3-.1.3.2.4.1.5-.3 0-.5.1-.5.3.1.2.2.3.2.5-.5-.1-.1.3-.5.4-.1-.1-.2-.1-.4-.1-.1.1-.1.3-.3.3-.2-.1-.2.1-.5 0 .3.6 0 .5-.1.5zM105.2 137.5v.2c.3.2.8.1.9-.3-.3 0-.7-.3-.9.1z"/><path d="M92.5 144.7c-.1.5-.7.2-.8.6 0 .1.3 0 .3.1-.1.2-.3.2-.5.3-.1.2.1.4 0 .5h-.4c0 .3-.4.2-.3.5.2 0 .3-.1.5-.1 0-.1 0-.2.1-.2.3-.1.5-.3 1-.5v.1c.4 0 .5-.3.8-.4 0-.6.8-.7 1.1-.7 0-.2-.1-.1-.1-.3.5-.2.5-.9.9-1.2.2-.1.4-.2.7-.2.1-.1.1-.2.2-.3.2 0 .2-.1.4-.1 0-.1-.1-.2 0-.2.2 0 .6-.3.9-.4.1-.3-.1-.3-.1-.5.1-.2.4-.4.3-.7-.5 0-.9 0-.9-.3-1 0-1.7.5-2.2 1.1.1.5 0 .6-.1.9.2.1.5.2.3.4-.2 0-.6-.3-.7.1-.2 0-.1-.3-.4-.2-.5.4-1.6.9-1 1.7zM87.9 145.7c.2-.2.4-.4.3-.8-.1-.1-.2-.1-.4-.1.1-.1 0-.2-.1-.3-.2 0-.3.1-.3.3.5.1-.1.9.5.9zM3.9 146.5c0 .2 0 .3.2.3.2-.1.2-.4.5-.2 0-.3-.4-.2-.5-.3.2-.3-.2-.4-.1-.7-.3.1-.6-.3-.8-.5-.3.1-.8 0-.9.3-.2-.2-.7-.6-.9-.2-.6-.2-1.2.2-1.3.7.5.3 1.6.3 1.4 1 .3.1.3-.1.6-.1.1.1 0 .4.3.3.2-.1.3-.4.5-.5.1.2.3.3.7.3 0-.2 0-.4.3-.4zM85.8 145.9c.1.3.2.5.6.5-.2.5.6.7.9.3.3 0 .3.3.6.3.1 0 .1-.1.2-.1-.1-.4.2-.3.1-.8-.3-.3-.9-.3-1.2.1-.3-.1-.3 0-.5-.1.1-.1.1-.2.1-.3-.2-.1-.7-.1-.8.1zM90.8 146c.1-.3-.3-.3-.3 0 .1.1.1 0 .3 0zM90.1 147.1c.3.2.6-.1.6-.3-.2-.2-.5.1-.6.3zM85.6 146.8c0 .3-.1.4-.1.7.4.1.9.1.8-.5-.3-.1-.3-.3-.7-.2zM7.7 147.5c0-.5-.5-.5-.9-.5 0 .4.5.4.9.5zM7.7 147.5c.2.1.5.1.7.2.1-.6-.6-.7-.7-.2zM83.8 147.8l-.1-.1c-.6-.5-.9.2-1.4.3 0 .3-.1.4-.1.7.2 0 .2.1.4.1.3-.6 1.2-.1 1.2-1zM10.3 148h-.2v.2h.2v-.2zM81.1 148.8c.1-.5-.5-.5-.4 0h.4zM80 149.7h.5c0-.2.2-.3.1-.6-.2 0-.2-.2-.5-.2-.1.1-.2.5-.1.8zM4.4 149.9c.3.5 1.5.2 1.8.4.1-.4.1-.6-.1-.9.2 0 .3-.2.3-.5-.4 0-.5.1-.9.1-.2.5-.9.4-1.1.9zM63.2 153.2c.3-.2.7-.3 1.1-.3 0 .1 0 .2.1.3.2-.1.2-.1.4 0 .2-.3.2-.7.5-.8.1.1.3.1.3.2.2 0 .3-.2.5-.3.3.2.8 0 .9.5.2 0 .4.1.6.2.3-.3.7 0 1.1-.1.1.1.3.2.5.3.2 0 .2-.2.3-.2.6 0 1.9-.4 2.5-.2 0-.2 0-.3-.1-.4-.6.1-1.4-.3-2 .1-.1-.3-.5-.2-.8-.1 0-.2 0-.3-.1-.3-.6-.1-1.4.6-1.8.1-.6.3-1.3.2-1.3-.5h.5c.1-.3.4-.4.5-.7-.1-1.1-1.9-1.3-2-.3-.7 0-.7.7-.6 1.1-.1.1-.2.1-.4.1-.1.4-.4.7-.9.5-.2.3-.6.1-.9 0-.1.3-.3.4-.6.3-.2.5-1.3.1-1.6.6 1.1.3 2.4-.8 3.3-.1zM75.3 150.4c-.5-.8-1.8-.3-1.7.7.6.2 1.4-.1 1.7-.7zM17 150.5c.2 0 .3-.1.3-.3 0-.2-.6-.3-.7-.1.2.1.2.4.4.4zM61.3 151.5v-.2h-.2c-.1.1 0 .2.2.2zM59.4 151.9c0-.1.1-.1.1-.1 0-.2 0-.3-.1-.3h-.2c-.1.2 0 .4.2.4z"/><path d="M63.8 151.7c-.2 0-.3 0-.3.1.1.2.3 0 .3-.1zM24.1 154.6c.1-.3 0-.8.4-.8.3.2.4-.1.9.1 0-.3.4-.1.5-.3-.1-.2-.4-.4-.6-.2 0-.6.6-.5.5-1.1-.1-.2-.3-.4-.5-.3-.4 0-.4 1-.7 1.2-.2 0-.3.1-.5.1-.1.4-.6.4-.8.8.3 0 .4.4.8.5zM52.4 156.5c.2-.2.2-.6.5-.7 0 .3 0 .5.2.5.1-.2.2-.2.4-.1.1-.1.1-.3.1-.5.2 0 .1.2.3.2.1-.4.6-.2.7-.6.5 0 1.2.1 1.3-.7.2.1.2.3.4.4.2-.2.4-.5.8-.3.1-.2-.1-.2-.1-.4.3.1.3-.1.3-.3-.1-.2-.3-.2-.4-.4.3-.1 0-.4 0-.5 0-.1.1-.2.3-.1-.1-1-1.3-1.1-1.3-.3 0 0 .1.5.1.6 0 .1.2 0 .2.1s-.1.2-.1.3c.3 0 .4.1.5.1-.3.1-.3.3-.3.4-.1-.1-.2-.2-.4-.2-.1 0 0 .3-.1.3-.5-.5-1.2.3-1.8-.1 0-.2.3-.2.4-.3-.1-.3.1-.6-.1-.8-.3 0-.4.2-.5.3-.2 0-.3-.1-.6-.1-.3.2-.2.7 0 .9-.2 0-.1.3-.3.4-.1-.1-.2-.2-.4-.2-.2.4 0 .6.1.9-.2.1-.4.3-.5.4-.1.4-.1.8.3.8zM28.4 153.2c.1-.8-.9-.7-.7-.1.2.2.4.2.7.1zM57.5 152.7c-.2 0-.3 0-.3.1.1 0 .1.1.3.1v-.2zM36.2 153.4c-.2-.2-.5-.5-.8-.6-.3.1-.5.4-.8.5 0 .2 0 .3-.1.4.3.7 1.6.5 1.7-.3zM70.8 153v.2h.2v-.2h-.2z"/><path d="M57.1 153.2v.2c.4 0 .5.4.9.5.4 0 .7-.5 1.1-.3-.1-.2-.5-.1-.9-.3-.1.1-.1.2-.2.3-.1-.1-.1-.2-.1-.4-.2-.1-.6-.2-.8 0zM59.4 153.3c.1.1.5.1.5-.1-.2-.1-.5-.1-.5.1zM29 153.6c.1 0 .2-.1.3-.1 0-.3-.4-.3-.7-.3 0 .3.2.3.4.4zM30.3 153.5c-.1-.4-1.1-.5-.9.1.2.4.9.5.9-.1zM48.4 155.3c.1.2.1.6.3.7.2 0 .2-.3.3-.4.4 0 .7-.1 1.1-.3.2.1.2.4.5.4s.5-.3.8-.3c0-.4.2-.5 0-.9.2-.2.4-.4.5-.7-.2-.2-.4-.4-.9-.3-.1.3-.1.7-.1 1.1-.5.3-1.3.3-1.6.7-.1-.1-.3-.1-.5-.1-.1 0-.2.1-.4.1zM46.4 154.5c0 .5.7.3.8.7-.3.1-.4.3-.7.1-.1.1-.1.3-.1.5.3 0 .4.2.7.2 0 .2.2.5.5.3 0-.2-.1-.3-.1-.5.2-.1.3 0 .5-.2-.1-.5.2-.6.3-.9.4 0 .7-.1.7-.5-.5.2-.7.2-1.3 0 0-.8-.9-.4-1.6-.5 0 .2-.2.2-.2.5.1.1.2.4.5.3zM49.7 153.6c0 .3-.1.3.1.5.3 0 .3-.6-.1-.5zM57.5 154.4v-.2h-.2v.2h.2zM43.3 155.2c.6-.2 0-1.3-.5-.7-.1.5.2.8.5.7zM28.3 154.4c0 .4.5.3.5.7h.5c-.1-.5-.4-.7-1-.7zM30.3 156.1c.4.3.9.7 1.5.7.4.5.8 1 1.3 1.3v.3c.4-.1.6-.3 1.2-.2 0-.3-.3-.2-.2-.5-.4.1-.6-.3-.7.1.1-.3-.2-.3-.2-.5-1-.3-1.1-1.4-2.4-1.3-.1-.1-.3-.1-.4-.2 0 0-.1 0-.1.3zM44.3 156.3c-.2-.3-1-.3-.7.2.3-.1.8.1.7-.2zM42 156.6c.1-.2-.1-.3-.2-.3-.1.1 0 .3.2.3zM42.9 156.8c.2 0 .5 0 .6-.1-.1-.4-.4-.2-.7-.4 0 .1 0 .1-.1.2.3 0 .1.2.2.3zM45.8 157.2c-.1-.1-.3-.2-.3.1.1-.1.3 0 .3-.1zM42.2 158.6c.3-.1.5-.9-.1-.9-.1.2-.3.3-.3.5.3.1.2.4.4.4zM41.4 159.4c.4.1.3-.2.6-.2.1-.3-.2-.3-.1-.6-.3 0-.5 0-.5.3.1 0-.1.2 0 .5zM273.6 114.1c.2-.2.4-.6.3-.9-.5-.2-1.4-.1-1.7-.5.2-.2.2-.5.5-.5-.6-.8-1-1.8-1.7-2.6 0-.5-.5-.8-.8-1.1-.4-.6-.7-1.3-1.1-2-.6-.9-1.1-2.1-1.8-2.8-.3-.9-.9-1.5-1.4-2.3-.1-.4-.2-1.2-.7-.9-.1-.3-.4-.3-.6-.5.1 0 .1-.2.1-.3-.2-.1-.4-.2-.5-.3-.2 0-.2.2-.4.2-.2-.2-.5-.2-.7-.4.3-.4-.4-.5-.1-1.1-.1-.1-.3-.1-.4-.2.2-.3 0-.4-.1-.7-.3 0-.6.1-.5-.3-.1 0-.4.1-.5-.1.1-.1.1-.2.1-.3-.3-.2-.6-.5-1.1-.5-.1-.5-.6-.6-1-.4-.2-.2-.2-.7.1-.8 0-.2-.2-.2-.2-.4.4-.3 0-1.1-.1-1.5-.4 0-.5.1-.7 0-.3-.5-.3-1.3-1.2-1v-.2c-.3.1-.5 0-.8-.1-.1.2-.5.1-.4.6-.2.1-.4.2-.7.3-.2 0-.2-.2-.4-.2-.6.4-2 .1-2.2.9.2.1.5 0 .7.2v.2c-.4.2-.6.4-.8.7-.3-.1-.4.1-.6.1-.1.2 0 .6 0 .8.2 0 .3 0 .3.2 0 .3-.3.4-.3.6-.3-.1-.4.1-.5.3-.7.1-1.4.1-1.7.5-.2.2.1.1.1.3-.6.2-1.1.1-1.6.5.2.5-.4.5-.6.8-.2-.3-.5.1-.7-.1 0-.4 0-.8.2-1-.2-.9-.4-1.8-1.1-2.1 0 .1-.1.2-.3.1-.2-.1-.3-.3-.5-.4.3-1-1-.7-1.4-1.1 0-.2.1-.2.1-.4-.3-.2-.5-.4-.9-.2-.1-.3-.5-.2-.5-.5.2 0 0-.3.1-.4-.7-.3-1.1-.9-1.3-1.7-.4.2-.8.1-1.1-.1 0-.1.1-.1.1-.3-.3-.3-.5-.3-1-.2-.2-.2-.4-.3-.5-.5.5-.5-.2-1.1.3-1.7.2 0 .2.1.3 0 .2-.2.2-.7 0-.8-.7 0-1.1.1-1.8.1-.2.3-.5.5-1 .4-.1-.1 0-.4-.3-.3-.3.1-.6.4-.4.7-.3.1-.4.4-.6.5-.5-.3-1.2.3-1.7-.2v-.3c-.4-.2-.8-.3-1.1-.5-.2.2-.2.5-.5.7-.1.1-.4.1-.6.2-.1-.2-.4-.1-.6-.2v-.3c-.4-.3-.6-.1-1.1 0-.2-3.2-.1-6.9-.1-10.3 0-21.2.1-42.7-.1-63.7-.7 0-1.4.4-1.7-.1 0-.1.2-.1.1-.3-.3-.1-.6-.2-.8-.3-.2-.1-.5-.4-.7-.5-.2-.1-.9-.2-.9-.2s-.1.2-.1.1c-.2 0-.4-.3-.6-.3h-.4c0-.2-.2-.2-.3-.2-.3-.1-.5-.3-.8-.3-.4-.4-1.2-.7-1.9-1-.5-.2-.8-.4-1.2-.1-.1-.1 0-.2-.2-.2-.8.1-1-.5-1.7-.3.1 0 .2 0 .1.1-.3 0-.8.3-.9 0h.5c-.3-.4-.8-.4-1.3-.3-.6.1-1.2.4-1.7.4 0 .1 0 .2-.1.2h-.5c-.1 0 0 .3-.1.3s-.3 0-.5-.1c-.2.3-.5.1-.9.2s-.7.4-1 .5c-.5.1-.9-.2-1.4-.2-.1.2.2.3 0 .3-.2-.2-.7-.2-1.1-.2-.1-.1 0-.1 0-.3-.7.1-1.3.1-1.7-.4-.8 0-1.1-.4-1.6-.7-.2 0-.3 0-.5.1 0-.4-.5-.3-.8-.4-.1.6.5.1.7.5-.4.1-.7-.1-.9-.1-1-.3-2.2-.1-3.6-.2-.4.3-1.3.4-1.7 0 .1-.1.3-.1.3-.3-.9-.4-1-.5-1.3-.5-.1.8-1.5.2-2.4.3-.1-.4-.1-.4-.1-.6-.4-.1-.5-.3-.8-.1-.3-.2-.7-.4-1-.4-.5 0-.9.3-1.5.3-.4-1.2-2.4-.5-3-1.3.1 0 .1-.1.1-.2-.5-.2-.9-.3-1.4-.3 0 .2.2.1.1.3-.3-.1-.5.1-1-.2-.4.3-1.2-.1-1.5.2-.1-.1-.3-.2-.5-.1-.5.4-1 .7-2 .5 0-.2-.2-.2-.2-.4-1-.1-1.2-.1-2.2-.1-.1 0-.1.2-.2.3-.6 0-1.2.1-1.8.2-.1.1-.1.4-.2.5-.7-.5-2-.4-2.8-.5-.1 0-.5.2-.5-.1.4-.1.8-.1 1.1-.2-.1-.2-.2-.3 0-.5-.2-.2-.5 0-.7 0-.1-.3-.5-.3-.9-.3-.1 0 0 .3-.2.3 0-.1 0-.2.1-.2-.8 0-1.3-.2-2-.3 0-.2-.2-.2-.1-.4.5-.1.5-.6.9-.8.3 0 .5 0 .5-.3-.3-.3-.8-.4-1.3-.5-.5-.1-1 0-1.4-.1-.6 0-1.2-.3-1.7-.1-.3-.5-.8 0-1.3.1-.4 0-.7-.2-.9 0-.4-.3-1.4-.1-2-.1-.3.4-.7.8-1.4.9-.2-.6-1.1-.5-1.8-.5-.1-.2-.2-.3-.4-.5.3 0 .2-.3.2-.5.1-.1.2-.1.2-.3-.5-.6-1.4-1.2-2.2-.9 0-.3-.2-.3-.5-.3-.1 0 0 .3-.1.3-.2-.2-.7.1-.8.4.1.1.4 0 .3.3-.5-.3-.9.5-1.5.5 0 .3.1.4.1.6-.3.1-.4.3-.7.3-.1-.4-.9.1-1.4 0-.1-.4-.2-.4-.3-.9.5-.1.8 0 1.1-.2.1.2-.1.2-.1.3.1.1.3.2.5.3.1-.2.2-.5 0-.7.2 0 .1.1.3 0 .1-.1-.1-.2-.1-.4.2-.1.5-.1.5-.4-.1-.3-.3-.4-.3-.8-.7-.2-1.5 0-1.8-.3-.1.1-.2.3-.3.3-.2-.6-1.1-.7-1.8-.6-.3-.3-.8-.1-.9-.5.5-.2.5-.3 1.1-.1 0-.3-.4-.4-.7-.4-.2.3-.8.3-1.1.5-.3-.3-.5-.1-.9-.1 0 .2-.1.4-.1.7-1.8 1.6-3.8 3.5-7.3 3.3-.2 0-.5-.3-.7 0 0 .1.3 0 .3.1-.5.2-1.2.2-1.9.1-.5 0-1.2-.1-1.4-.4.4-.3 1.4-.1 1.7-.6-1.1.1-2.2.5-3.1.7-.3.1-.7.1-1 .2-.7.3-1.2.9-1.9 1.2h-.3c-1.4 1.6-3.8 2.2-6.1 2.8-.8-.2-2-.2-3-.4-.1.1-.3.2-.4.3-1.1.3-1.8.8-2.6 1.3-.2.4-.4.6-.7.9-.6.7-1.4 1.1-2 1.7-.2.2-.2.6-.5.7.1.4-.2.7-.2.9-.1.5.1 1 0 1.5-.1.8-.7 1-1.2 1.5-.6.5-1.1 1.3-2 1.4-.6.5-1.5.9-2.5 1-.5 0-.9-.1-1.4 0-.3 0-.5.2-.8.2-2.4.4-5 .4-7.1.1.1 1 0 1.7-.1 2.6-.2.2-.4.3-.3.8-.7.4-1.8.6-2.6.7 0 .1-.1.1-.1.3.1.2.4.1.6 0 1.6.2 3 .5 3.7 1.6.4.3.9.2 1.4.3 2 .4 3.4 1.7 5 2.5 0-.1.1-.1.2-.1.2.2.4.4.5.7.3-.1.6.1.8.3.5 0 .9.3 1.1.5.3.2.5.4.7.7.6.8 1.1 1.9 1.1 3.1 1.5.4 3.3.5 4.7 1 .2-.2-.2-.3 0-.4.2 0 .2-.1.4-.1.2.1.2.3.4.4.4-.1.6-.1.9.1.4-.1.8 0 1.1-.1.7-.1 1.4-.6 2-.5.3.1.4.4.8.5-.1.4-.7.4-.6 1.1-.1.1-.3.1-.4.3 0 .4 0 .5-.1.8.6.6 1.5.9 2 1.5.2-.1.6 0 .8.1-1 .8-2.1 0-3-.5-.1-.4-.5-.5-.7-.8-.1-.3.4-.5.3-.9-.9-.1-1.1-.9-1.6-1.4-.2.1-.2.2-.5.3-.2-.3-.6-.2-1.1-.3-.3.1-.2.5-.7.4.2.3.2.8.3.9.1 0 0-.3.1-.3.6 0 .7.5.9.9 1 0 1.8.2 2 1 1.2.2 1.2 1.3.7 2.2.2 0 .2.2.2.5.2 0 .4 0 .5-.1-.1-.4-.2-.3-.3-.7.4 0 .6-.3 1.1-.3.4-.1.7.1 1.1.2.5.1 1.2.1 1.6.3.3.2.4.6.5.7-.5-.2-1.4.4-1.6-.3-1.4-.4-1.4 1-2 1.2v-.7c-.3 0-.3-.3-.7-.2.2.3.1.7.3 1.1h-.2c0 .2.3.3.1.4-.9-.4-1.7-.3-2.6.1-.2 0-.1-.3-.3-.3-.3 0-.6.2-1 .1 0-.2-.3-.2-.3-.4-.5 0-.8.2-1.2 0-.8.5-1.6 0-2.7.1-.9.5-1.8-.2-2-1 .2-.2.5-.3.6-.7-.9-.4.2-1.1.3-1.6.1-.2-.2-.2-.1-.4.3-.1.6.2.7-.1-.6-.4-1.6-.4-2.6-.3-1.4.1-2.3.2-3.4.5-2.3.5-4.6 1.5-6.1 2.2 0-.1-.2-.1-.3-.1-.1.1-.2.3-.4.4-3 .9-5.3 2.8-8.2 3.7-.6.2-1.1.2-1.5.7v.6c.1 0 .1.1.1.1 1.2.4 2.4.8 3.3 1.5.7.1 1.4.1 2 .1.8.1 1.5.7 2.4.4.2.3.7 0 .9.4l-.6.3c0 .2.1.2.1.5-.6.3-1.7.7-2.1-.1 0-.4.6-.5.4-.8-.4-.1-.7.5-.7 1 .2.5.8.7 1.3 1 .1.9 1.4.6 1.5 1.5-.1.2-.2.2-.3.3 0 .3.1.4-.1.5.4 1.2 1.6 1.4 3.1 1.6.9.1 1.9.2 2.6.4.4.1 1.2.5 1.6.5 1.2.1 1.9-.7 2.9-.9.1 0 .1.1.2.1.5-.1.8-.2 1.1-.1.6.1 1.2-.1 1.6-.1 1 0 1.8.3 2.6.7.3.3.4.7.8.7.2-.1.3-.3.3-.6.5.2.2-.4.4-.5.4 0 .4.3.7.4-.2.3.2.5.3.7-.1.2-.1.6.1.6.3-.2.4-.5.8-.5.1-1.2 1-1.6 2-1.9.2-1 2.1-.3 2.4-1.2.2 0 .2-.1.4-.1.3 0 .4.3.6.3 0 0 .2-.2.3-.2.2-.1.4 0 .5-.1.1-.7.8-.7.9-1.2.2.5.7.7 1.3.8.3.5.7.9.5 1.5-.5.1-.9.8-1.3.5-.1 0 0 .4-.1.4-.6 0-1-.1-1.3-.3-.1.1-.3.2-.5.3 0 .5-.3.6-.3 1.1.3 0 .2-.4.5-.3.3 0 .4.2.7.1.3.7 1.3.8 1.6 1.6.1.3-.1.7 0 1 0 .1.2.2.2.3.1.5.3.6.5.9-.1 0 0 .2-.1.3.1 0 .2.1.3.3.1.6-.7 1.5-1.2 1.5-.3.9-1.2 1.4-2.3 1.2-.2 0-.2.2-.4.2-.6-.3-1.3.2-2.2 0 .1-.1.2-.2.1-.4-.4 0-1.3-.4-1.8-.4.1-.3-.1-.5-.2-.7-.3-.1-.3.1-.5.1-.4-.4-.9.2-1.2.4.5.2 1 .4 1.1.9 0-.2 0-.4-.1-.5.2 0 .1-.1.3-.1-.3.3 0 .5.1.7-.2 0-.3 0-.3.1.1.1.1.2.1.3-.6.5-.8 1.4-1.9 1.3-.1.1-.2.2-.1.5-.5.1-.7.6-1.1.7-.3.1-.7.1-1.1.1-.6-.4-.8-.8-1.7-.9 0-.2-.2-.3-.3-.5h-.7c-1.4-.9-3.3.2-3.9 1.1-.1.2.1.2.1.4-.3.2-.7.5-.9.9-.1.1 0 .4-.1.5-.1.2-.2.3-.3.5-.1.4.1.8.2 1.1-.2 0-.3-.1-.5 0-.1 0 0-.3-.1-.3 0 .3-.2.4-.5.4.1.2.1.6.1.9-.5.2-.7.6-1.1.9 0 .3-.2.2-.2.5-.5.2-.8.8-1.1 1.2-.2.2-.5.4-.6.5-.5.7-.6 1.7.3 2.2-.3-.1-.4.2-.7.2-.6.1-1.2-.1-1.6.1.1.3-.2.2-.2.5-.1.5-.4 1.4-.1 2.1.2 0 .3.2.7.1.1-.1 0-.1 0-.3.5-.2 1.3-.1 1.4.5-.4 0-.5.2-.9.3 0 .5.2.7.4 1 .4.1.8 0 1.1.3-.1.5.1 1.1.3 1.5.4 0 .7.2 1.1.1.2-.2-.1-.7.2-.8.7.1.8 1.2 1.7.9-.3.4-1.1 0-1.2.6-.1.4.7.7 1.1.6-.4.4-.3 1.1 0 1.5-.2 0-.6-.1-.7.1.1 0 .2.1.2.1-.2.3-.7.4-.9.7-.4 0-.6 0-.7.3 0 .1.1.2.1.3.8.4 1.3 0 2-.2 0 .4-.4.5-.8.5 0 .3.4.7.6.9.4.4 1 .5 1.8.5.1.4.4.5.7.7.3.9 1.3 1 1.8 1.6-.3-.1-.2.2-.4.2.1.3.3.5.3.9 1.8.8 4.8.4 6.2-.5.5-.1.9-.2 1.1-.5.3.1.8.1 1-.1.3-.6 0-1.1.3-1.8-.2-.1-.5-.1-.5-.3.2-.1.1-.3.1-.6.2-.1.5-.4.7-.3-.1.2-.4.2-.5.5 0 .5.6.4.6.8-.2.2-.1.7.2.7.2-.1.3-.3.4-.4.2.2 0 .4-.1.6.1.5.4.9.7 1.2-.1.3.1.3.1.5.6.4.8 1.1 1 2 .3.3.7.7.7 1.1-.2.1-.2-.1-.3-.1-.1.6-.9.5-.8 1.3-.3.1-.4.3-.5.5.3.3.2.6.3.9.2.3.6.5.7.8.1.2.1.5.3.6-.1.6.2.7.1 1.1-.1.5-.6.6-.6.9 0 0 .4.3.1.3-.3.2-.1-.2-.5-.1-.3.2-.7.3-.9.5.5.3 1.2 0 1.8.1.1.3.1.2.1.5.2 0 .5 0 .6-.1.1-.1.1-.3.3-.3h.3c.2-.5 1.1-.2 1.3-.7-.1-.2-.3.1-.4-.1.1-.2.3-.5.5-.5.6-.2 1.3-.6 1.8-.9.2.2.2.3.1.6.3-.1.3-.5.5-.7.7-.4 1.2-.9 2-1.2.1.2.4.2.4.5-.2 0-.3.1-.3.3.6.1.1 1 .9 1 0-.1-.2-.3 0-.3.3.1.4 0 .6-.1 0 .1.1.1.1.1 0 .5.3.6.5.9.7-.2.8-.8 1.1-1.4.2 0 .3.1.4.2-.1.2-.3.3-.3.5.2.1.6.1.8.1.9.9 1.4 2.1 2.1 3.2.4.1 1 .4 1.5.1.1-.3.3-.5.5-.8-.3-.1-.4-.3-.3-.7-.4-.1-.4-.6-.5-.9.3 0 .4-.2.5-.5-.2-.2-.1-.4-.1-.6.7-.2.9-.7 1.3-1.1.2.3-.2.5-.1 1.1-.3-.1-.4.2-.3.5.5.3 1.3.3 1.2 1.2.6.6 1.7.2 2.2-.1.3.4.8-.1 1.1.2 0-.1-.1-.4.1-.5.2.5.3.4.7.5.1-.3-.2-.8.2-.8.4.1-.2.7.2.8.1-.1 0-.4.1-.5 0 .5.6.5.8.4-.2.5-.5.9-1.1 1-.2.5-.5 1.1-.4 2 .2.3.5.5.7.7-.3.1-.4-.1-.5-.2-.4.5-.4 1.2-.5 2.1-.1.8-.4 1.6-.5 2.4.4.1.9.5.5.9-.2-.2-.2-.3-.1-.6-.7 0-.9.5-1.5.7-.1.1-.2.3-.3.5-.2.2-.5.3-.7.5-.1.1-.4.1-.6.2-.6.3-2 2.2-2.2 2.8-.2.7.3 1 .3 1.5-.5.2-1.2.2-1.3-.4.2 0 .4-.1.5-.3-.4-.2-.6.3-.9.5-.5.2-.9.5-1.3.7-.2.6-.4.4-.7.4-.2 0 .2.3-.1.3-.1-.1-.2-.1-.3-.1-.5.4-1.2.6-1.8.9-.4.4-.7 1-1.5 1.1-.7.7-1.5 1.3-1.6 2.6-.3.2-.4.5-.5.9 0 .1.2 0 .2.1-.1.2-.2.2-.2.5.5-.3 1 .3 1.5.5-.2.1 0 .4-.2.5-.1-.2-.5-.3-.6-.3.2-.2-.1-.4-.3-.5-.4.2-1.1.1-1.3-.1.1-.5-.4-.4-.3-.8 0-.2.4.1.3-.2-.2-.1-.6.2-.9.3 0 .2-.3.3-.5.3-.1 0-.1-.1-.2-.1-.2 0-.5.2-.5 0 .1-.3.5 0 .7-.2-.3-.5-.9.1-1.5 0 0 .2-.1.1-.2.2-.9.2-1.5.6-2.3.8-.2.3-.5.6-1 .7-.1.5-.7.5-.9.7-.2.2-.2.4-.4.7-.3.5-.8.9-1.3 1.1-.1.5-.4.9-.9 1.1-.6-.4-1 .2-1.2.5-.2-.5-.6.1-.8.3.1 0 .4-.1.5.1-.6.4-1.4.7-1.8 1.3-.8-.1-1.4-.1-2.2 0-.2.3-.4.5-.7.6-.2.1-.2-.1-.3-.1-.3.3-.5.5-.9.6-.3-.5-.9-.2-1.2.1-.1.8-.4 1.4-.9 1.9-.4 0-.8.3-1.1.5 0 .8.5 1.7 1.6 1.7.5-.3 1.3-.2 1.5-.7.1-.2.1-.4.1-.6.6-.6 1.7-.8 2.9-.7.2 0 .4.2.5.1.4 0 .7-.4 1-.4 0-.4-.2-.5.1-.7.2.2.3.4.3.7.3-.3.3 0 .7-.3-.1.1-.1.2 0 .3.3-.1.3.1.6.1 0-.6-.4-.9-.7-1.1-.1.2-.3.3-.5.3-.1-.1-.2-.1-.3-.3.7-.2 1-.8 1.7-1.1 0-.5-.6-.5-.9-.8 0-.4.4-.3.6-.5.1.2.5.3.5.6 0 0-.1.2-.1.3.1.2.4.3.5.5 0 0-.3.4.1.3.2-.5.9-.1 1-.8.4-.1.2.5.7.3 0-.6-.5-1.1-.1-1.5-.1-.3-.4-.5-.7-.7.1-.3.8-.2.9.1-.1.4.2.5.3.8-.2-.1-.2.1-.4.1 0 .8 1 .4 1.4.9-.4-.1-.5.4-.9.3-.1.7.4.8.5 1.2.4 0 .5-.4.7-.5 0-.3-.1-.5.1-.6.1.2.2.5.5.6.2-.2.2-.6.2-1 .1-.1.2-.2 0-.3 0 .3-.2 0-.4.1-.2.2-.3.4-.5.5 0-.5.5-.7.1-1.1.1 0 .2-.1.3-.2-.1.5.3.4.4.7.2 0 .2-.2.4-.2 0 .2.1.4.3.3 0-.2-.1-.3-.1-.5.2.3.4.1.6.1.2.1.2.3.4.3.3-.1.4-.3.6-.4 0 .2 0 .3.1.3.2 0 .3-.1.4-.1 0-.5-.7-.4-.9-.6 0-.1 0-.2-.1-.2-.2-.1-.5-.1-.7-.1-.1.1-.2.3-.3.4 0-.2-.4-.5-.3-.7.2 0 .2.3.5.2.1-.6.7-1.1 1-1.7-.2-.4.1-.7.3-.9-.3-.1.1-.5.2-.7.1-.1.7-.2.9-.1-.1.5-.4.7-.6 1 .2.3-.1.7-.1.9.4.4.7-.1.9-.1 0 0 .1.2.2.2.2.1.3 0 .5 0 .3-.3.9-.4 1.1-.7.1-.3.1-.7.6-.6 0 .2 0 .3.1.4.2.2.5.1.9.1.4-.2-.2-.8.3-.9 0 .3.3.4.2.7.2 0 .3 0 .4-.1-.1.6.6.4.7.7-.1.1-.2.1-.4.1-.1 0 0-.3-.3-.2 0 .1 0 .2-.1.2-.1-.1-.2-.3-.4-.3-.1 0-.1.3-.3.3v-.3c-.6-.4-.9.2-1.2.5.2.6.1 1.3.3 1.8.2-.1.2-.6.5-.7.2.4.7.3 1 .5.1-.2.2-.4.3-.5-.1-.3-.5-.6-.5-.8.5 0 .7.2 1.1.4.2-.4.1-.6.1-.9.3.2.4.1.8.1 0 .4.3.4.5.5.2.1 0-.3.1-.5h.2c.1-.3 0-.5-.1-.8-.4 0-1.1-.3-1.5-.1-.1-.4-.4-.3-.7-.4v-.3c.2 0 .2.2.5.1.1-.3-.2-.2-.3-.3.1-.3.4-.4.3-.6.4.2.8-.1 1.1-.1.2-.1-.1-.3.1-.3.1.1.2.1.3.1.3-.2.1-.5.1-.7.2.2.5 0 .9 0 0-.2-.1-.5.1-.5.3.1.6.1.8.3-.4.3-.1.9-.4 1.2 0 .2.3 0 .2.2-.1.1-.3 0-.4.1-.1.2.1.2.1.4.4 0 .5-.1.8 0-.3-.4.3-.5.3-.8-.1-.5.3-.6.3-1.1 0 .3.2.2.3.3.1.3-.3.5 0 .6.1-.3.4-.3.7-.5 0-.4-.3-.5-.5-.7.4.2.4-.5.9-.2.1.2-.2.1-.1.3.2.1.3.2.5.1.3-.2.2-.4.2-.6.1 0 .1.2.3.1.1 0 0-.3.1-.3.2-.1.1.2.3.1.1-.3.1-.5.3-.7 0 .2.3.2.3.1v.3c.3 0 .4.1.6 0 .2-.2 0-.6.2-.7.3.1.2.5.5.5.1-.2.1-.2.3-.1.2-.2.2-.6.2-1.1.2.2.3-.2.4-.3.5-.1.8-.3 1-.7-.2-.2-.4.2-.6 0 .2-.2.2-.3.1-.5h.3c0-.6.1-1.1.3-1.4.6-.1.6.3 1.1.3.1-.3.3-.5.2-.9-.3-.2-.7-.1-.9-.1.1-.1.2-.3.3-.4.4.1.5-.2.8-.3 0 .3.2.4.3.6.3-.1.9-.1 1.1.1 0-.4.4-.2.4-.5-.1-.2-.6-.2-.7-.4 0-.6.4-.3.7-.5.1-.3-.2-.3-.3-.5 0-.1 0-.2.1-.2.6.1.8 1.1 1.4.6.2-.1-.1-.3.1-.3.1 0 .1.1.3.1.1-.4.2-.8.7-.7 0-.2 0-.3.1-.3.1.2.1.5.4.5.1 0 .1-.2.3-.1-.2-.3.2-.3 0-.5.3.1.2-.1.4-.1s.4.2.7.1c.1-.2-.1-.2-.1-.3.2.1.3.4.5.2-.1-.2-.3-.2-.3-.6.2 0 .2.1.4.1.1-.2-.1-.2-.1-.3.2-.3.5-.3.6-.7-.1-.2-.3 0-.3-.3.3-.1.3-.5.3-.7.3-.3.6-.6.8-.9-.1-.1-.3-.1-.2-.3.3 0 .4.3.6.4 0-.1.2 0 .3-.1.2-.3-.3-.6.1-.9.5.3.7-.2 1.3 0-.2-.8.5-.7.7-1.1.1-.3-.3-.2-.3-.4.2 0 0-.4.2-.4.3.2.8.1.8.6.5 0 .7-.3.9-.7-.1 0-.2 0-.2-.1.2-.5 1.1-.3 1.2-.9-.1-.1-.3-.1-.3-.2.3 0 .4-.2.5-.5.5-.2.8.1 1.4 0 .1-.1 0-.3.1-.4.2.1.3.3.6.3.1-.3.4-.3.8-.3.1-.2-.2-.3 0-.3s.3.3.5.1c.1-.2 0-.3-.1-.5.1.2.2.1.4 0s-.1-.3.1-.3c.3.1.3-.1.5-.2-.1-.3-.1-.4.2-.5 0-.3-.3-.2-.3-.5.4 0 .7-.1.8-.4 0-.3-.4-.2-.4-.5.2 0 .3.1.5.1-.2-.3.2-.2.3-.4-.1-.5.2-.6.2-.8.6.1 1.4 0 1.6-.6.7-.1.9-.7 1.1-1.3.1.1.4 0 .5-.1 0-.3-.5-.2-.4-.7-.4-.1-.6-.4-.8-.6-.4.3-.9-.2-1-.7-.8.2-1.1.3-1.9.1-.2.1-.2.4-.5.4 0-.3.3-.7-.1-.8.1-.4.5-.3.7-.3-.1-.3-.4-.5-.2-.9.4 0 .4-.4.9-.4-.2-.9 1.1-.3 1.2-.9 0-.3-.4-.4-.3-.6.3 0 .7 0 .9-.1 0-.2.1-.4.1-.5.4-.2.5-.1.9.1.6-.2 1.1-.3 1.6-.7.1-.3.3-1 .2-1.3-.1 0-.4.2-.5 0 .1-.1.3-.1.5-.2.4.3 1 .1 1.4-.1.3-.6.9-1.1.9-2.1-.2-.2-.5-.3-.7-.1-.1-.1-.5-.2-.3-.3.2.2.2-.1.4-.1.6.5.6-.4 1.3-.4.1-.5.5-.7.9-.9 0-.3-.5-.2-.5-.5.1-.6.5-.8 1-.9.3-.2.2-.7.6-.7.3 0 .5.2.6.6.4 0 .4-.5.9-.3.1-.6-.2-1.2-.5-1.8.7-.5 1-1.3 2.2-1.1.2-.3.7-.2 1-.3.2-.4.3-.8.6-1 .5-.4 1.3-.1 1.8-.5 0-.1-.1-.3.1-.3.2.1.3.4.5.5.5.1.9-.1 1.2-.3.1.3.6.4 1 .3-.1.2.2.3 0 .5.4.1.5.6 1.1.5.4.9 1.7.7 2.3 1.3-.4 0-.6-.3-1.1-.1-.7-.8-1.4.1-2.2.1-.6 0-1-.3-1.2-.9-.6-.2-1.1.5-1.8.5-.5.6-1.3.9-1.9 1.4-.5 0-1 0-1.1.3-.3 0-.4.1-.6.2-.1.5.1.5-.1.9.8.3.8.8.6 1.7-.1.1-.3.1-.4.2 0 .5.1 1.1-.1 1.4-.3.2-.6.3-.7.6-.4.1-.6.4-.9.7v.4c-.5.3-.4 1.1-.7 1.6.1.6.8.7 1.1 1.1-.2.2-.2.9 0 1.1-.3 0-.4.3-.8.3-.2.1-.2.5-.4.8-.2.2-.5.3-.5.5 0 .4.5.5.8.8-.1.1-.3.1-.3.3.1.1.4.1.5.2.1 0 0-.3.1-.3 0 .1.1.1.3.1-.1.1-.2.2-.1.4.3 0 .6 0 .6-.2-.1-.1-.3-.1-.3-.3.2 0 .4 0 .6-.1-.2-.4.4-.1.5-.3-.1-.2.1-.3.2-.3.5.3.9.4 1.5.3.1-.1 0-.5.2-.5s.1.3.1.5c.2 0 .2.2.5.1 0-.2-.1-.1-.1-.3.1.1.3-.1.4-.1 0-.5.1-.7.4-.8v.3c.2 0 .2.2.4.1.5-.3.5-.9.7-1.4.3.2.4.1.7-.1-.1.3-.2.6-.1 1.1h.4c0-.2.1-.3.1-.6h.3c0-.6.7-.7.7-1.1.2 0 .3-.1.4-.1.1-.2-.2-.3 0-.3.1.1.3 0 .4 0 0-.2.1-.2.3-.3.1-.2 0-.6.3-.5.1.4 0 .9.6 1-.1-.3.1-.2.2-.4.2.1.3.2.2.5.2 0 .5.2.5-.1 0-.2-.3.1-.3-.1s.1-.2.1-.4c-.2-.1-.3-.3-.4-.5.3-.1.3.3.5.3.2.1.1-.2.3-.1 0-.3 0-.4.1-.6-.2-.3-.5.1-.5-.3.1-.2.2-.4.3-.7.1-.1.2 0 .3 0 .1-.3.3-.5.4-.7-.1-.2-.4-.7 0-.8.1.3.1.7.2 1-.2.3-.4.6-.5 1 .1 0 .1.2.3.1.1-.1 0-.5.2-.5.1.1.1.3.3.3.4-.4.2-1.3.9-1.3 0 .3-.3.2-.3.5.2.2.7.3 1 .1.1.1.2.3.4.4.3 0 .2-.3.5-.3.2 0 .4.2.5.3.5 0 .5-.4.7-.6 0 .3.1.4.3.4.4-.5.2-1.3.6-1.6 0 .5 0 .6-.1.9.1.1.3.2.6.1l-.3.6c.9 0 2.1 0 2.3-1.1-.1-.2-.3-.2-.4-.2.1-.1 0-.2 0-.4-.7-.1-.7-.8-1.4-.8v-.3c-.2-.1-.3.2-.3 0 .2-.1.2-.3.3-.4-.1.3.1.3.2.5h.6c0-.4.3-.7.1-1.1.5-.1.1-.7.3-.9-.6 0-.5-.6-.9-.7-.2 0-.3.4-.4.1 0-.3.4-.3.5-.5.1-.5-.1-.8-.3-1 .7.2 1-.3 1.4-.3 0 .1-.1.1-.1.3.4-.1.4-.2.7 0 .1-.1.3-.1.4-.2 0-.1-.1-.1-.1-.3.3.1.3-.2.6-.1-.1-.3.1-.3.3-.4 0 .2-.1.3-.1.5.6-.3 1.1 0 1.9 0 0-.2.3-.2.3-.4-.1-.2-.3-.1-.4-.3.2 0-.1-.5.2-.4.1.1.1.3.1.4 1.1.4 1.1-.9 2-.9-.2.2-.2.6-.5.7 0 .3.2.3.2.5-.2 0-.2-.1-.4-.1.2.4-.2.2-.2.5.2.2.2.4.7.3.2-.1.1-.5.3-.5.2.1-.1.3.1.4.2.1.1-.3.3-.2-.1.3.3.1.3.4-.2-.1-.5.1-.7.3-.1-.1-.5 0-.5.2.5.5 1.5.6 2 .1.4.3.7-.3.9 0-.2.3-.7.3-.5.7.6.1.9-.3 1.3-.3 0 .2-.1.2 0 .3.1.2.4-.2.5 0-.6.3-1.1.7-2 .7-.1.1-.1.3-.2.3-.3-.1-.8.1-1.2-.1-.3.3-.7.6-.7 1.1.1.2.4.2.6.3-.2.1-.4.1-.4.3 0 .2.2.2.2.3.9-.1 1.1-.7 1.9-.9.4.4.7-.4 1.1-.4 0-.4-.4-.4-.5-.5.3 0 .4-.1.5-.2 0 .1.1.1.1.3.4 0 1.1.2 1.5-.1.3 0 .5.2.8.2.5.7 1.2 1.1 2.2 1.2.2-.2.4-.4.5-.7-.1-.2-.2.1-.3-.1.2-.1-.2-.4 0-.5.3.2.5 0 .9.2-.2.2-.2.4-.1.6-.1.1-.3.3-.2.5.4.1.9 0 1.1.1-.2.1-.4.2-.5.3.2.2.3.3.5 0 .2.3.5.3.8.5.4-.3 1 .2 1 .7.4-.1.2-.5.1-.7h.4c0 .2 0 .3.1.3.5 0 .7.4 1 .6-.4 0-.8 0-1.1.1 0 .1 0 .3-.1.3-.2 0-.3 0-.3.1 0-.3 0-.5-.2-.5-.2.2-.1.6.1.7-.5.4-1 .7-1.2 1.4.5 0 .7-.6 1.1-.9.3-.2.6-.4.9-.5 0-.1 0-.2.1-.3.5-.3.8.2 1.3.3.3 0 .8-.3 1.3-.3.5-.1 1.2-.2 1.8-.2.3 0 .6.1.9.1.6-.1 1.1-.4 1.6-.4s.9.2 1.3.1c.2.1.2.3.5.3.7-.2 1.1.1 1.7.2.3 0 .5 0 .7.1.4.1.6.5.9.5.4.1.9-.3 1.1-.3.3-.1.6-.1.8-.3.1-.2-.2-.3 0-.3.3.1.5.7.1.9 0-.1-.1-.2-.2-.2-.1.4-.3.3-.6.3v.4c1 .5 2.3.7 3.2 1.3 1-.1 1.8.4 2.6.3.5-.1.7-.4 1.1-.5.6-.2 1-.4 1.5-.5.1-.4.5-1 .9-.9-.5.4 0 1 .1 1.4-.1 0-.2.1-.2.2 0 .2.3.2.3.3-.1.2-.3.3-.3.5-.3-.2.2-.4-.2-.4-.1 0 0 .3-.1.3s-.1-.2-.3-.1c-.2.4-.5.6-.7.9.6.4 1.5.5 1.8 1.1.3.1.7.2.9.3.5.3 1.6.6 2.1.9.1 0 .2 0 .2.1.8.4 1.2 1.1 2 .9l.3.3c.5 0 .6.2 1 .3.3.5 1 .7 1.3 1.3.1.2 0 .2 0 .5.3.6 1.3.5 1.3 1.4 1.1.5 2 1.2 3 2 .1-.1.3-.3.6-.2.3.4.5.9 1.1 1 0 .2.1.3.2.5h.6c0-.2.2-.2.2-.5-.1-.2-.3-.3-.3-.6.7 0 .5 1 .7 1.5.1-.2 0-.4.1-.6.1 0 .3-.1.3.1-.2 0-.3.4-.1.6-.3.2-.4.2-.7.3 0 .4-.3.7 0 .9-.1.1-.2.5-.1.6 0 .1.3 0 .3.1.1.5.6.7.9 1 .1.6.4.8.5 1.2.2.1.3-.2.5 0 0 .1-.2.1-.1.2s.1 0 .3 0c.1.6.5.9.9 1.3v.3c.3-.1.6.2.8.3-.1-.1-.6 0-.7.1.3.3 0 .6 0 .9.3.1.2.1.2.4.1.1.4 0 .4.2-.1.2-.3.2-.5.3 0 .4-.1.5-.1.9.4.2.8-.1 1.3-.1.2-.4.2-.9.5-1.1 0 .1.1 0 .2 0 0 .1-.2.2-.1.4.1 0 .3 0 .3.1 0 .5.5.8-.1 1.1.1.1.4 0 .5.1-.2.1-.2.2-.5.1-.1.3.3.1.2.3-.3.2-.4-.2-.7-.1v.3c.5 0 .8.4 1.2.7.1.4.4.6.8.7 0 .1.1.1.1.2 0 .2-.1.1-.1.3h.5c-.1.1 0 .3-.1.5.2.4.6.8.5 1.2.6.5.7 1.5 1.6 1.7.1-.2.1-.6.3-.7-.4-.6.1-1.7-.3-2.4.2.1.2-.1.3-.1.1-1.1-.2-1.8-.4-2.7.1.1.2.1.3 0 0-.4 0-.7-.1-.9.2.3.4-.1.8 0 0-.4.7-.2.6-.7.3-.2.9-.3 1.1-.7v-.3c.1-.1.4-.1.5-.1 0-.1-.1-.1-.1-.3.4.2.5-.3.8-.3-.1.2.1.2.1.4.5-.1.7-.5.9-.8-.2-.1-.2-.4-.3-.5-.2-.1-.3.1-.5.1.2-.3-.3-.7-.1-.8h.7c.1-.3.2-.4.5-.4 0 .4.2.3 0 .6.4.1.7.5.6 1.1.2.3.7.2.9.4-.4.1-.6.1-.9-.1-.2.3-.6.7-.5 1.1.1.1.3.1.4.2-.3 0 0 .7-.2.8-.2-.2 0-.5-.5-.5-.4.5-1.5-.2-2 .4 0 .2-.1.2-.1.4.4.2.5.5.7.9-.1.1-.3 0-.3.2.1.2.5.1.5.4-.2-.3-.2.2-.3.1-.2 0-.5-.6-.2-.9-.2-.3-.6-.1-1-.3 0 .1 0 .2-.1.3-.6-.4-.9.4-1.3.6-.1 1.1.8 1.7.5 2.4.5 0 .9.5.9.7-.3 0-.2-.3-.4-.3-.1.3-.2.5-.1.7-.6.5 0 1.2-.1 2.2.2.1.3.2.1.4.3.1.4.5.6.7-.1.2-.2.5-.6.5v-.2c-.3.1-.5 0-.7.2.2.3.1.5.3.7.4-.1.7-.5 1.1-.6 0-.3 0-.5.1-.7-.3-.1-.1-.7.1-.9.2.1.3.4.5.2s.2-.6.3-.8c.1 0 .1.1.3.1-.3-.3 0-.8.2-1.3-.2-.2-.3-.4-.3-.6.2 0 .2.3.5.2.1-.3-.2-.3-.2-.5.1 0 .2 0 .3-.1 0-.3-.3-.2-.3-.5.4.1.2-.2.4-.2.3.1.2.5.2.8.4.3 1.4.1 1.5-.3.3.5 1.2.3 1.7.3.1-.3-.3-.2-.3-.4.4-.1.8-.1 1 .2-.7.1-1.3 1.2-.5 1.5-.2 0 0 .5-.2.6-.1-.4-.5-.7-.7-1.1-.7.1-1.5.1-2.3-.2-.4.3.1 1-.3 1.3.1.3.7.1.6.5-.2.1-.2-.1-.3-.1-.3.6-.8 1.3-1 1.8-.5-.4-.5.3-.7.5.9.3 1.5.6 1.8 1.7-.1 0-.1-.1-.2-.1.1.2-.1.4.1.7-.5.2-.5.8-1 1-.1.4 0 .8.1 1.1.2 0 .3.1.5 0 .1.3.2.7.5.7.1-.4 0-.6.3-.8 0 .2.3.1.3.2 0 .3-.1.7.1.8.4-.1.5.1.9-.1-.2.3 0 .3.1.5-.4.6.5 1 .2 1.5.6.3.8 1.2 1.4 1.6 0 .2.1.3.1.5.3.1.7.4 1.1.2-.2-.3-.2-.6-.2-.7.2.1.3.1.5 0-.1-.5-.1-.6-.1-1.1-.2-.1-.4-.3-.5-.5.1-.2.2-.5.3-.8.1.6.2 1 .7 1.4.2 0 .7.1.8.3-.1.2-.4.2-.6.2.1.5.7.5.8.9.4-.2.5.1.8.2.3 0 .6 0 .7-.1.2-.5.1-1 .1-1.5 0-3.1.1-8.3.1-12.1 0-1.6.1-3.4-.2-4.2 1.3.6 1.2.9 1.1.7z"/><path d="M122.2 134.4c.1 0 0-.2.2-.2.1.1.3.2.5.3 0 .1-.2.2.1.2.2-.1-.1-.2-.1-.3.1 0 .1 0 .2-.1.3 0 .3.4.6.3 0-.5.4-.1.5-.3-.1-.3-.4-.4-.7-.4 0 .1.1.3-.1.3-.1-.7-1-.7-1.6-.9-.1.7-.2.9.4 1.1z"/>
</svg>
