<svg xmlns="http://www.w3.org/2000/svg" viewBox="0 0 215.2 155.9"><path d="M7.6 153.6c-.4.5-.6 1.5-.3 2.3 1.1-.2 1.3-1.6 2.7-1.3.9-.4 1.3-1.4 2.2-1.9.4-.2.8-.2 1.2-.5.2-.4.3-.9.6-1.1.3 0 .7-.1.9.1-.3.4-.3 1.1-.6 1.6 1.4 0 1.9-.9 2.9-1.3.7.2 0 .9.2 1.4.9-.3 1.4-1.1 1.8-1.9.8-.2 1.1-.9 1.7-1.4.3.2.5.2.8.2.2.5.1 1.2.2 1.9.2 0 1.1 0 1.3-.3-.1-.7-.1-1.3-.4-1.9.6-.2 1.2-.5 1.5-1 .3-.6.2-1.5.6-1.9.2.2.6.1.9.3.2 1.1.4 2.1 1.4 2.4.4-.9 1.4-1.5 1.1-2.8.2-.3.6-.3.9-.4.3.3.4.7.5 1.1.4-.1.5-.6.9-.6.4.3.8-.1 1.3-.1.3-.7.9-1.1 1.5-1.4-.2-.5.1-.9.4-1.1.8 0 1.4-.1 1.6-.6.1-.4-.4-.8-.4-1.4 0-.5.2-.7.4-1.1.6.5 1.2.9 2.1 1 .2-.3.1-.8.4-1 .5 0 1.6.1 1.8-.4-.2-.4-.8-.3-1-.6.4-.3.2-.7.4-1.2.3.2.4-.1.7-.1.5.2.7.8 1.2.9.3 0 .9-.2 1.1-.3.4-.2.7-.5 1-.6.3.2.3.7.8.7.2-.4.7-.7 1.1-1 .5-.3.7-.2 1.3-.4.9-.2 1-.8 1.6-1.2.1-.1.4-.1.5-.1.5-.2.7-.2 1.2-.1.4.6 1 1.4 1.9 1.3.2 0 .6-.4.9-.6.6-.4 1.2-.7 1.6-1.3.2-.3.2-.6.4-.9.2-.3.6-.6.8-.7l1.5-1.2c.3 0 .2.2.4.1.4-.3.6-.8 1-1.1.8-.1 1.1-.8 2-.6.3-.4.4-1.1.5-1.7.5.2 1.1.4 1.4.8.2.3.1 1 .2 1.4.1.2.5.2.9.2.3.1.2.4.5.4h.8c.5.5 1.3.7 2.4.6.4-.3 1-.4 1.5-.4.2-.1.4-.3.6-.4 0-.7.1-1.6-.2-2-.3-.2-.7-.3-1-.5.2-.6-.5-.7-.4-1 .6.4 1.5.5 2.4.2.6-.9 1.5-1.7 2.3-2.4 1.3-.4 1.9-1.5 2.7-2.3.4-.1.7-.2.9-.4.3.3.7.9 1.2 1 .4 0 .6-.2 1.1-.4.6.9 1.7 0 2.2-.4.2-.9.9-1.3 1.2-2.1.9-.3 1.3-1.2 2.4-1.3.4-.7 1-1.1 1.2-1.9.5-.3.8-.8 1.2-1.1.2 0 .3.1.5.1.4-.5 1.2-.5 1.7-.9-.2-.5.2-.7.2-1.1 0-.4-.4-.7-.4-1.1.1-.6 1.1-1.1 1.4-1.4.6-.5.8-1.1 1.1-1.7.1.4.5.6.9.8-.3.7.5 1.8.1 2.5.2.8.8 1.2 1.1 1.9-.2.5-.6.9-.9 1.4.6.1.7.7 1.2.9.9.4 1.9-.2 2.7.1.6-.4 1-.9 1.3-1.6.6.1.6-.3 1.1-.4.4.3.6.7.8 1.2.7-.3.6-1.3 1.1-1.9.3.1.5 0 .8-.1.2.9.5 1.7 1.2 2.1.5-.4.9-.8 1.3-1.3.8 0 1.3-.8 2-1.2.8.3 1.8-.2 2.7-.3.5.1.8.4 1.1.7.1.1.5-.2.9-.1.4.2.7.6 1.2.6s.6-.4 1-.5c.2.7.8 1 1.1 1.6-.3.2-.2.8-.3 1.2 1.7-.4 2.7-1.5 3.7-2.6.4-.4.9-1.1 1.4-1.1.3-.1.7.2 1 .2 1.1.1 2.1-.2 2.9-.6.6.4 1.4 0 2.3.1.4 0 .7.2 1.1.2.7 0 1.4-.4 2.1-.4.4 0 .8.5 1.2.4.2.4.6.6 1 .8.4.8 1.1 1.4 1.9 1.9.1-.3.5-.3.6-.6-.1-.3-.6-.3-.6-.8.3-.4.5-.9.9-1.2.3.3.7-.1 1 0 .8.5 1.2 1.7 2.1 1.7.1-.3.2-.6.2-.9.5 0 .5-.4.8-.6.4-.1.7-.3 1.1-.4.6-.1 1.3.1 1.9-.1.6-.2 1.1-.9 1.7-1.1.3-.1.6 0 .9-.2.2.2.6.3 1 .2.3.3.8.5 1.4.6.2-.1.1-.4.4-.4.7-.3 1.3-.1 2.1-.2.1.2.4.1.6.3.7.5.9 1.9 1.9 2 .5.1.7-.3 1.2-.3.3-.8.1-2 .9-2.4.3.3.7-.2 1.1.1 0-.3-.1-.6-.2-.9-.3.1-.6.3-1 .3-.1-.2-.3-.4-.4-.7.2-.2.5-.4.7-.5.5-.8.4-2.1 1-2.7.4.3.8.6 1 1.1-.2.5.1.6.2 1 .1.2 0 .5.1.6.1.3.5.7.7 1 .3.4.6.8.9.9.7.3 1.2 0 1.9-.1h1.3c1.1-.1 2.2-.9 3.5-.6.2 0 0-.5.2-.4 1-.4 1.4-1.4 2.3-1.9.8.4 1.5-.1 2.4-.1.7.5.9 1.6 1.9 1.8.3-.4 0-.9-.1-1.3.3-.6-.1-1.4 0-2.4.4-.9 1.3-1.2 2.2-1.7.2.3.5.4.9.4.1.5.3.9.6 1.2.2.3.6.7 1 .8.3-.8.7-1.8 1.5-1.7-.3 1 .6 1.9 1.1 2.6h2.3c.9-.3 1.7-.7 2.4-1.2.1-.8.7-1.2.7-2-.5-.3-.6-1-.9-1.5.4-.9.1-2.1.2-3.3.2-.2.4-.4.7-.6.2.3.4.5.6.7 0 .2-.1.2-.1.4.7 1.2.6 3.3 1.1 4.7.5 0 .8-.1 1.1-.1 1.1-1.9 2.1 1.2 3.7 1 .3-.2.4-.7.8-.9-.1-.4-.1-.7.1-.9.3.1.6.3.9.4 0 .6.1 1.7.5 2.1.3-.2.3-.8.4-1.2.6-.3 1-.8 1.9-.6.4-.7.2-2 1.5-1.7.2.4.6.8 1 .8.2-.6.2-1.4.5-1.9.6.7 1.8 1 2.6.4.5.4 1.2.6 1.8 1 .4-.4.6-1.1.4-1.9.5-.2.9-.4 1.5-.5-.2.5-.2 1.6-.1 2.2.6.1 1-.4 1.1-.9.6-.3.9-.7 1.4-1 .2.7.8 1.1 1.5 1.3 0 .5.3.8.3 1.3 1 .4 1.3-.1 2-.5.4-.2.8-.4 1.1-.6.2-.1.3-.4.4-.6.2-.2.5-.2.5-.5-.2-.3-.2-.5-.1-1-.5-.4-.6-1.3-.8-2 .5-.5.8-2.1.6-3.2 0-.1-.4-.9-.4-.9-.2-.2-.5-.1-.5-.4 0-.8-.5-1.7-.3-2.4.1-.3.4-.5.5-.8 1.6-.1 3.1-.2 4.7-.4 0-1.1.2-2.3.2-3.4.1-2.2.1-4.4.2-6.7.3-3.9.1-8.6.1-13.2V64c0-2.1.2-4.2 0-6.2-.3-3.9 0-8.1-.1-12.1-.6-13.8-1.1-27.9-1.7-41.6-3-.1-6-.1-9-.2-4.4-.2-8.9.1-13.2-.1-3.4-.2-6.8 0-10.3-.1-5.2-.2-10.6-.1-15.7-.3-1.3-.1-2.7 0-4.1-.1-6.9-.3-13.7-.3-20.8-.3-3.3 0-6.5-.2-9.4 0-2.1.2-3.6 1.4-6.1 1.1-.2-.2-.1-.7-.4-.8-1.1-.2-2.4.1-3.7.1-1.2-.1-2.4-.5-3.6-.6-3-.2-5.8-.3-8.6.1.1.3 0 .3-.2.4.1.6-.1.9-.2 1.3-.2-.1-.6-.3-.8-.1-.1.6.5.5.6.9-.5.5-.2 1.2-.6 1.7-.4.5-1.8.5-2.7.6-1.1.2-2.1.4-2.9.4.1-1.7.1-3.9 0-5.5-10.3.1-20.7-.5-31.1-1C61 1.2 52.1.9 43.2.5 40.4.4 37.6.3 34.8.1c-1 0-2.2-.1-2.9-.1-1-.1-2.3.1-3.2 0-3 37.2-5.8 74.7-8.8 111.9 2.5 3.8 5.1 7.6 7.6 11.4-2.2 1.5-4.5 2.8-6.8 4.2-6.3 3.8-12.8 7.5-19 11.2-.6.3-1.2.7-1.7 1.1 2.1 3.6 4.4 7.4 6.6 11 .6 1.1 1 1.7 1 2.8z"/>
</svg>
