<svg xmlns="http://www.w3.org/2000/svg" viewBox="0 0 215.9 197.8"><path d="M.6 6.1c.6.4 1.1.8 1.5 1.3.1.4.3.7.4 1.1.2.1.5 0 .7.1.5.8 1.6 1.1 2 1.9-.3.4.1.8.1 1.3 0 .9-.4 1.6-.8 2.2-.1.7-.2 1.4-.4 2 .3.2.6.3.8.7 0 .2-.4.1-.2.4.2.7 1.2 1.6 1.2 2.6 0 .2-.2.6-.3.9 0 .2.1.5 0 .7-.1.3-.6.6-.8.8h-1c-.1.4-.3.7-.3 1.3 1.1.2 1.9-.8 2.9-1 .2-.1.5 0 .7 0 .5-.1.8-.4 1.4-.5 0-.3-.3-.3-.1-.5.3-.2.7-.2.9-.3.6-.6.9-1.8 1.9-2.6.6-.5 1.8-.8 1.9-1.4.2-.8-.8-1.4-.4-2.1.4.1.8.3 1.2.5.4.7.5 1.8 1.1 2.4.2-.4.4-.7.3-1.4.6-.4.4-1.6 1-1.9.6.3.5 1.2.8 1.9.1.2.3.4.3.5.3.8 0 1.3-.5 1.4 0-.2 0-.4-.1-.5-.9-.2-1.5.7-1.4 1.4.5.6 2.2 0 2.9.4.1-.2.7 0 .8-.2.2.1.3.3.7.3 1.3-.2 2.5-.6 3.7-.9.6.5 1.6-.2 2.3 0 .4.1.5.4.9.7.8-.3 2.1-.2 2.9-.2 0-.7-.9-.5-1.2-.9 0-.3-.2-.5-.2-.8.6-.1.7-.8 1.1-1.2.6-.1.9-.6 1.4-.8 1.5.4 3.2.1 5 .2.5-.3 1-.6 1.5-.8.9.9 1.3 2.2 2.3 3 .4.3 1 .3 1.3.9-.7.6-1.9.6-3 .8-.2 0-.4.2-.6.2-.8 0-1.7-.5-2.2.2.4.2.7.3 1 .4.3.1.7.4 1 .5.4.2.9.1 1.4.2.2 0 .4.2.7.3.8.1 1.2.2 1.8.4 1.2.4 2.4 1 3.6 1.3.6.8 1.6 1 2.3 1.7h.6c.4.6 1.2.8 1.8 1.4.3-.1.6-.2 1.1-.2.6.4.8 1.2 1 2 .5.2.9.5 1.3.8h.6c1.6.8 3.4 1.3 4.3 2.8.2.1.4.1.6.2.7.9 1.9 1.3 2.6 2.1 0 1.1 1.2 1.5 1.8 2.2.3.3.7 1 .8 1.5.4 1.2 0 2.6.1 3.9.5 0 .8-.4 1.3-.4s1.4.5 2 .8c.7.4 1.4.8 1.9 1 .2-.3.8-.2.9-.4-.2-.1-.2-.5-.2-.8-.3-.5-.9-1.2-.9-1.7.5.4.9-.1 1.4-.2 1.2-.1 2.6.4 3.7.5.2-.1.2-.4.4-.5 1.1-.3 1.8-1.1 2.7-1.8.4-.3.9-.5 1.4-.8.5-.3.9-.8 1.3-.9.4-.2.9-.1 1.4-.3.6-.3 1-.8 1.7-1.1 1.4 0 1.7-1.3 2.6-1.7.4-.2.8 0 1.2-.3.5.6 1.8.7 2.6.8.3-.3.6-.5.8-.9-.4-.3-.8-.4-1-.8.5-.6-.1-1.2-.2-1.8-.1-1.4 1.1-1.7 1.9-2.3.3-.3.5-.6.8-.7.4-.2 1-.1 1.4-.2.2.1.4.3.6.3 3.9-1 7.8.3 9.4 2.8.4.1.8.2 1.1.4.3.1.3-.1.5-.1 1.5.5 2.9 1.1 4.1 1.9 0 .2 0 .4.1.5.5.4.9.9 1.3 1.4.1.7.6.9.9 1.4.2.4.2.8.4 1.1.1.2.4.4.6.7.2.2.4.6.6.8.3.2.8.2 1.2.4.2.2.6.7.9 1.1.9 1 1.3 1.5 1.2 3.1 0 .4-.3.9-.2 1.4.4.4.8.7 1.1 1.1 1.8.1 1.9 1.8 4.1 1.4 1 1 2.1 1.9 2.2 3.8.8.9 2 1.4 3.1 2 0 .9.5 1.2.7 1.8 1.3.2 3.6-.3 4.7.3 1.1-.5 2.1.7 2.5 1.4.2.3.2.7.4 1l1.5 3c.1.2-.1.2-.1.4.5.5.7 1.3 1 1.9.1.3-.3.3-.2.7.2 1.1.8 1.6 1.3 2.3 0 .4.3.9.5 1.4-.2.5.1 1 .3 1.4-.5.5-.2 1.7 0 2.3-.2.8-.8 2.5-.7 3.5.1.5.6.8.4 1.3.7.4 1 1.2 1.4 1.9-.3.3-.4.7-.6 1.2-.5 0-.7.2-1 .3-.3.8-.8 1.9-.6 2.6-.5.7-.8 1.6-1 2.5-.9.5-1.1 1.6-1 3 .1.9.5 1.8.5 2.7 0 .8-.5 1.3-.5 2 0 .3.3.2.3.6-.4.8-1 1.6-.9 2.8 0 .4.3.8.2 1.3.3.2.6.5.9.8 0 .9.9 1.6 1.3 2.5-.1.5.1.8.2 1.1.6.2.9.6 1.4.9.2-.3.5-.5.8-.7v-4.7c.4-.4.9-.7 1.4-.8-.5-.5-.9-.9-1.4-1.3-.6-.4-1.3-.4-1.8-.9.4-.2.2-.8.1-1.1.4-.5.4-1.5.8-2 .7.5 1.6.2 2.2.8.4.4.6 1.1.9 1.4 1.1.2 1.4 1.2 1.6 2.3-.3.3-.6.6-.5 1.4.5.2 1.2.1 1.9.1.4-.9-.3-2.1 0-2.7.6.5 1.4 1 1.9 1.5.1.3.3.9.5 1.4-.3.7.1 1.3.4 1.7-.3.5-.7.9-1.1 1.2-.4-.1-.5 0-.9 0-.5.5-.9.9-1.3 1.4-.1.1-.4.3-.4.4-.2.3-.2.7-.3 1-.1.2-.4.4-.6.7-.2.3-.3.7-.5 1-.8.2-1.1 1-1.9 1.1-.2.3-.5.5-.6.9.8.6.2 1.6.6 2.6.8.1 1 .5 1.4.9.5.6 1.1 1.1 1.4 1.9-.1.2-.3.2-.5.3.7.6.6 1.6 1 2.4.3.6.9.8 1.2 1.3.2.8.7 1.2 1 1.9v.6c.6 1 .9 2.2 1.4 3.3-.2.2-.7 0-.7.3.6.5 1.4.9 1.5 1.9.3.1.4-.1.7.1.6.5 1.1 1.2 1.7 1.7.6 0 .9.3 1.2.6-.2.3.1.8.1 1.3v1c.1.4.4.8.4 1.2.1.7-.1 1.5 0 2.3.4.3.6.8 1.1 1-.1.6.3.6.3.9.1.5.1 1 .5 1.3.5-1.2.6-2.1.5-3.5-.3-.3-.7-.6-.8-1 .4-.4.3-.6.3-1.4.4-1 .9-1.9 1.5-2.7-.4-.8-.9-1.9-.4-2.9.8-.6 1.8-.3 2.5.3-.4 1.1.5 2.2.8 3.1-.3.4-.2 1.2-.6 1.5-.5.1-.6-.3-.9-.1-.6.8-.1 1.7-.4 2.7.1.4.4.4.5.8-.2.7 0 1.6.2 2.3.6.4 1.1 1 1.5 1.6 1.6.3 2.1 1.6 3.2 2.4.6-.1 1.1.4 1.6.5.5.1 1.2-.2 1.6.3-.2 1.4.6 1.8.9 2.6-.4 1.4.7 2.6.5 4.3.5.6.4 1.7.9 2.3-.4 1-.1 1.7.3 2.5.5 1.1 1.2 1.5 1.6 2.4-.2.5-.8.7-.8 1.3-.1.5.3.8.6 1.3 1 .3 1.3 1.4 2.3 1.7 0-.6-.1-1.4.1-1.9.4-.3 1-.2 1.4-.4.2.5.9.5 1.4.7.3.5.7.8 1.2 1 1-.4 2.4.2 3 .8.1 1 .7 1.4 1.2 2 .6 0 1 .5 1.6.8.6.2 1.5.1 1.9.8v.8c.4.6.9 1.2 1 2.1.5.9 1.2 1.6 1.8 2.5.7 1.2.9 2.6 1.7 3.8 1.2-.2 1.8.8 2.8 1 .4-.3.9 0 1.5 0 1 .9 1.9 1.9 2.8 3-.2.4-.4.7-.8 1-.5-.3-.9.4-1.3.2-.3-.1-.4-.3-.3-.7-.1-.1-.3-.1-.4-.3 0-.8-.9-1-1.6-.7-.6-.4-1-1.1-1.4-1.7-.5.1-1.2-.1-1.6.1.2.9-.5 1.4-.6 2 0 .5.4.9.3 1.5.3.5.9.7 1 1.4 1 .6 2.3.9 4 .8.5-.5 1.2-.3 1.9-.5.4-.2.7-.6 1.1-.8.9-.4 1.8 0 2.8.5.7-.5 1.7-.3 2.4-.6s.8-1.1 1.4-1.3c.9.1 1.1-.5 1.8-.7.3-.1.3.3.7.2.9-.1 1.4-.6 2-1 .8-.5 1.7-.8 2.3-1.4.5-.5.7-1.2 1.4-1.5.1-.6.8-1.1.9-1.7 0-.6-.6-1.3-.7-1.9 0-.2.2-.4.2-.6 0-.2-.2-.4-.2-.6v-1.3c.1-.4.4-.7.4-1.1.1-.4-.1-.9 0-1.3.1-.5.6-.9.8-1.4.4-1 .4-2 .9-3 .4-.3.8-.7 1.1-1.1-.1-.9.3-1.3.5-1.9 0-.4-.3-.3-.3-.7.4-.8.5-1.9.8-2.5.4-.9.8-1.5 1.3-2.1 0-.3-.3-.3-.2-.8.2-1.1.4-2.1.3-3.2-.1-.9-.7-1.6-.5-2.7-.8-1.3-.8-3.3-.4-4.8.1-.3.1-.8.2-1 .1-.3.4-.5.5-.8.2-.9 0-1.6-.2-2.3.5-.3.5-1.1.5-1.9-.9-1.5-.3-3.7-.5-5.6-.1-.7-.4-1.4-.4-2-.1-.6.1-1.2.1-1.9 0-1.3-.4-2.5-.9-3.6.2-.5 0-.7 0-1.3-.6-.2-1.1-.5-1.4-1 .2-.7-.7-1-.5-2-.3-.3-.5-.7-.7-1-.6-.4-1.1-.6-1.6-1-1.7-1.4-1.7-4.6-3-6.2.2-.5-.1-1.1-.3-1.5.4-.3.3-.7.3-1.3-.1-.2-.4-.3-.4-.6l-.6-1.8c-.2-.6-.4-1.2-.7-1.7-.4-.7-1.1-1.3-1.7-1.9-.6-.6-1-1.4-1.4-2.2-.8-1.5-2.1-3.1-2.3-5-.1-1.2.1-2.4.2-3.7-.5-.7-1.2-1.2-1.6-2 .1-.2.2-.4.2-.8-.7-.5-1-1.1-1.5-1.8-.7-1.1-1.5-2.3-1.4-4.1.1-.3.4-.3.4-.7.4-1.8.3-4 .8-5.7-.5-1-1-2.1-1.3-3.1-.1-.4-.1-.9-.4-1.1-.4 0 0 .7-.4.7-2.3-2.3-3.4-6-6.4-7.6 0-1.9-1.1-3.6-2.2-4.7-.2-.7-.6-1-.9-1.6.1-1-.4-1.3-.9-1.9-.6-.7-1.1-1.3-1.5-2.1.1-1.2-.9-2.2-1.1-3.5-.4-.1-.2.4-.6.3-.4-.9-.9-1.7-1.6-2.3-.4-1.4-1.1-2.5-1.7-3.7 1-.9.5-3-.9-3.1-.8-.9-1.6-2-1.8-3.6-.3-.4-.6-.8-.7-1.4-.3-.1-.5-.2-.7-.5-.4-.6 0-1.3-.1-2.2 0-.7-.5-1.2-.3-1.8-.8-.2-1-.9-1.4-1.5.1-.3.3-.6.4-.9-.2-.3-.7-.5-1-1-.5-1-.4-2 .5-2.4-.5-.5-.7-1.3-1-1.9-.1-.2-.5-.2-.5-.5-.1-.5-.4-1-.3-1.4-.1-.3-.5-.3-.7-.6.5-1-.8-1.6-1-2.7 0-.2.1-.5.1-.7 0-.2-.1-.4-.2-.6v-.9c-.1-.6-.6-1.1-.3-1.8-.2-.5-.6-.9-.6-1.6-.3-.3-.7-.5-.8-.9.5-.4.2-.9.2-1.4 0-.4.3-.7.2-1 0-.3-.2-.5-.2-.8-.1-.4.1-.8-.1-1.2-.4.2-.4.8-.9.8-.8-.5-1.7-.8-2.1-1.7-1.4-.1-2.2-.8-3.7-.8-.4-.5-1.1-.5-1.9-.8-.5-.1-.9-.4-1.4-.4-.7 0-1.8 0-2.5.2-.8.2-2.6 1.5-2.9 2.1-.3.7 0 1.3-.4 2.1.5.9.7 2 1.2 2.8 0 .3-.3.2-.2.5.6 1.8-.1 3.7 0 5.8-.7.2-.9.9-1.4 1.3-.9-.2-2.8.2-3.3-.8.1-.4.4-.7.4-1.1-.6-.7-.1-1.7-.6-2.6-.6-.4-1.6-.6-1.3-1.7 0-.3.5-.1.3-.6-1.3-.4-2.8-.3-4.2-.3H74c-.7-.7-1-1.5-1.5-2 .1-.5-.4-.7-.5-1.2-.1-.5.1-1.1 0-1.6-.2-.8-.6-1.3-.9-1.9-.3.1-.9.3-1.3.1-.1-.7 0-1.3.2-1.8-1-.8-1.7-.7-3.6-.6-1.9.1-3.5 0-5.2.1-6.5.3-13.3.5-19.3.6C28.2.9 14.1 1.9.8 2.2.7 3.3-.1 3.7 0 5c.3.2.5.6.6 1.1z"/><path d="M135.4 64c-.1.1-.1.6.2.5.1-.2.1-.6-.2-.5zM135.7 66.4c.2 0 .4-.1.5-.3-.3-.3-.3-.9-.8-.9-.3.4.2.8.3 1.2zM136.6 66.2c-.2.3 0 .8 0 1.2h1c0-.7-.1-1.3-1-1.2zM158.2 137.3c-.7-.5-2-.4-2.7-.9-.1.3-.6.2-.7.4.4.3.7.6 1 1 .7.1 1.7.2 1.9 1 .9-.3 1.7-.6 2.1-1.4-.5-.2-1.1-.4-1.6-.1zM212.2 170.3c.6-.8 1.7-2 .6-2.9-.2 1.1-1.1 1.6-1.6 2.4-.3.3-.9.3-.9.8.3.4.6.7 1.1.9.2-.3.5-.8.8-1.2zM210 172.6c0 .5-.1.7.1 1.2-.6.5-1.4 1.2-1.1 2.4.7-.4 1.6-.7 1.4-1.9.2-.4.5-.6.6-1-.4-.3-.4-.8-1-.7zM207.5 173.1c0 .2 0 .4.2.4-.1-.1.1-.5-.2-.4zM207 175.5c-.2.2-.3.4-.5.6.2.2.7.5 1 .3 0-.5-.2-.7-.5-.9zM202.7 177.3c0-.6-.1-1-.3-1.4-1.1.1-.3 1.5.3 1.4zM200 179.8c-.1.3.1.3.2.4.3 0 .5-.2.5-.4-.2 0-.5-.2-.7 0zM201.4 183.3c.2-.1.4-.4.3-.7h-.4c-.1.2-.2.7.1.7zM197.5 186.3c.5.5 1.1-.2 1.3-.6-.2-.2-.3-.5-.7-.5-.2.3-.3.8-.6 1.1zM189.8 189.8c0 .3.1.5.2.8.4-.1.8-.3 1.1-.5 0-.5-1.1-.8-1.3-.3zM176.1 189.9c0 .4-.4.8-.2 1.1.4 0 .6-.3.8-.6 0-.3-.3-.4-.6-.5zM180.3 191v.3c.3.3.9.4 1.4.6.2-.1.2-.6.1-.8-.7-.1-1-.3-1.5-.1zM175.1 192c-.5-.4-.9-.8-1.6-.9-.4.6 1.6 2.2 1.6.9zM178.2 191.1c-.2.6.6 1.1 1.2.9-.4-.4-.6-.8-1.2-.9zM177.5 191.7c-.2.1-.3.3-.6.3 0 .5.5.6.9.8.3-.4.1-1-.3-1.1zM180.7 192.4c.6 0 1.2.4 1.7.3-.4-.4-1.4-1.1-1.7-.3zM176.6 193.9c.6.3.9-.4 1.4 0 .1-.2.3-.4.4-.6-.6-.4-1.6-.1-1.8.6zM179.6 194c.2-.1.3-.2.3-.5-.2-.2-.6-.1-.9-.1.1.3.2.6.6.6zM174.9 193.9c.1.5 0 1.1.5 1.2.5-.2.7-.7 1-1.2-.4-.1-1.2-.1-1.5 0zM166 194.9c.1.3.3.6.6.8.1-.2.3-.2.3-.5-.2-.1-.6-.5-.9-.3zM173 195.8c.2 0 .2.3.4.3.4-.3.9-.4.9-1-.3-.1-.5-.3-.9-.3 0 .4-.3.6-.4 1zM160 195.8c0 .4-.3.4-.3.7.1.7 1.6 1.1 2.2.5-.3-.7-.3-1.7-1.3-1.7-.2.2 0 .3-.2.5h-.4zM172.1 196.1c-.1-.4-.6-.5-1-.3-.1-.1 0-.4-.2-.4-.2.3-.6.4-.9.5.2 1 1.6 1 2.1.2zM168.2 196.2c-.1-.4-.5-.8-.8-.4 0 .3.1.3.2.5.1 0 .4.1.6-.1zM167.1 197c0-.2-.2-.3-.3-.4-.2.1 0 .5.3.4zM164.8 197c.1-.3-.5-.3-.6-.2-.1.4.4.2.6.2zM165.1 197.2c-.2.2 0 .2 0 .5h.5c0-.3-.2-.4-.5-.5zM208.4 173.5c-.6-.3-1 .5-.4.8-.2 0-.1.3-.3.3 0-.2.1-.5-.2-.4-.1.4.3.7-.1 1.1.1 0 .1.1.3.2.4-.8.5-1.3.7-2z"/>
</svg>
