<svg xmlns="http://www.w3.org/2000/svg" viewBox="0 0 165.9 211.9"><path d="M156 136c1.5-1.4 3.2-2.7 4.2-4.6.9-.5 1.5-1.4 2.8-1.6.5-1.1 1.7-1.5 2.8-2-.4-.5-1.1-.6-1.3-1.2 0-.3.3-.3.2-.7-1.3-.5-.8-2.8-2.7-2.6-.2.2-.3.5-.2 1 .3.4.9.7.7 1.3-.6 0-.9-.3-.9-.9-.5.1-.5-.3-.9-.3-.5 0-.9.7-1.5.7-.1-.2-.3-.3-.3-.6.3.1.3-.1.6-.1-.2-.4.1-.5.2-.8-.4-.8-.3-2.1.5-2.3 0 .8.6 1.1 1.2 1.4.4-.7.7-1.6 1.1-2.4-.1-.9-.3-1.2-.7-1.8-.3-.6-.5-.9-.8-1.2-.4-.4-.4-.5-.7-.9-.3-.5-.8-.8-.9-1.2-.2-.5-.1-1-.2-1.5-.3-.8-1-1.6-1.1-2.6-1.2 0-2.2-.5-3.4-.1-.6-.2-1-.6-1.7-.7-.8.5-1.1 1.5-1.8 2.1-.1.2-.2.3-.2.5-.3 0-.5-.1-.8-.1 0-.9-.8-1.5-1.6-1.4-.7-.8-1.4-1.5-1.6-2.6.1-.3.2-.6.2-1-.3-.5-1-.5-1.4-.8 0-.9-.2-1.4-.4-2.1.1-.1.3-.1.5-.1.3-.4.5-.7.7-1.2.1-.2.2-.5.2-.7.1-.2.5-.4.6-.7.3-.6.2-1.4.2-2.3-.6-.8-1.5-1.4-2-2.3-.4-.7-.5-1.6-1-2.4.7-.4 1.6-.6 2.4-.9.2-1.4 0-3.2-.2-4.6-.6-.5-1.4.2-2.1-.2-.7 1.1-2.1-.2-3.2.2-.4-.4-1.1-.3-1.6-.5s-.8-.7-1.2-.8c-.2-.1-.3.1-.5.1-.6-.6-1.5-1-1.7-2.1-.4-.4-.9-.7-1.3-1.1-.3.1-.2.7-.5.9-.8-.4-2.4-.1-2.8-.9.2-.7.2-1.8 1.2-1.6-.1-.9-.2-1.4-.8-1.8-.2-1.3.5-1.9 1-2.7.2.1.3.2.6.2.2-.3.2-.7.2-1.2-.6-.3-.9-.9-1.3-1.4.1-.3.2-.7.3-1 .8-.1 1-.9 1.3-1.4-.3-.6-.8-1-1.2-1.5.2-1.5.1-3 0-4.5-.2-5.6.1-11.2-.2-16.9-.5-9.8-.1-19.7-.5-29.3-.1-1.4 0-2.7.2-3.5-.6-.1-.8-.4-1.2-.6-.8-.5-1.5-.8-2.3-1.2-.3-.5-.5-1-.8-1.5-.3-.4-.8-.6-1.1-1-.3-.4-.9-1.3-1-1.8-.4-.2-.6-.7-1.3-.7-.9-1-2-1.7-3.1-2.6-1.4-.8-3.4-1.3-3.8-3-.9-.3-1.8-.6-2.6-1-1.3.6-2.8-.2-4-.1-.3-.5-1-.5-1.8-.5-.4.6-1.4 1.4-.8 2.4-.3 0-.1.3-.2.4-.3.4-1.7.8-2.1.7-.4-.1-.8-.5-1.2-.6-1.5-.5-2.6.5-4.3.3-.2.2-.4.3-.7.4-.2.3-.1.7-.3 1-.3.4-1.7 1-2 1-.7.1-1.5-.3-2.2-.2-1.4.2-3 1.3-4.2 1.2-1 .7-2.3 1.2-3.7 1.5-1.1-1.1-3.1-1.4-4.2-2.5-.2 0-.4-.1-.7-.2-.2-.4-.7-.6-.8-1-.2-.7.2-1.8 0-2.7-.1-.5-.2-1.1-.2-1.6 0-.6.3-1.1.4-1.6.1-.6-.1-1.1.2-1.6-.3-.5-.7-.8-1.3-.9-.2.2-.5.2-.7.4-.8-.4-1.5-.8-2.5-1.1-.3-.1-.7-.3-1-.3-.5-.1-1.1.2-1.6.1-.2-.1-.1-.3-.4-.2-.8.5-1.1 1.5-2 2-.9 1.7-2.3 2.9-3.5 4.4-8.2 9.8-16.4 19.4-24.6 29.3-.4.5-1 .9-1.1 1.3-.3 1.4-.7 3.8-.9 5.3-.4 2.6-1 5.3-1.1 7.8-.5.5-1.2.5-1.8.7-1 .5-1.4 1.6-2.2 2.2-1.7.1-2.6 1.5-2.6 3.1-.2.2-.5.2-.8.3-.3.7-.8 1.2-.8 2.2-.4.6-.7 1.2-1 2-.3.2-.4.2-.4.6 0 .2.2.8.3 1.1.4.6 1.4 1 1.5 1.6-.6.7-.7 1.9-1.7 2.1-.1.2-.3.3-.4.5-.4.5-.3.5-.3 1.2.3.1.9 0 1 .2-.2.5-1 .9-1.2 1.6-.1.4 0 1.1.3 1.5-.2.3-.5.5-.6.9.5.3 1.3.5 2 .7 0 .7.9.5 1.2 1-.3.3-.5.4-.8.4-.1 1-.1 1.7-.6 2.4-.6.1-.9.5-1.3.8-1.3.4-2.2 1.1-3.2 1.8-.1.4-.4.7-.6 1.2-.4 0-.4.4-.7.4.1.5.3.9.2 1.6.2.1.5 0 .6.2 0 .5 0 1-.2 1.2-.3-.1-.5-.3-.9-.3-.3.2-.3.5-.7.6v.4c-.6.2-.8.9-1.6.9-1.3 1.3-3.7 1.4-4.5 3.3-1.3.9-2.9 1.7-3.7 3.1.2.1.2.5.3.7-.5.8-1.4 1.3-1.4 2.4 0 .6.4 1.5.8 1.9.6.6 1.5.9 2 1.7.3.5.3 1 .5 1.6-.2.2-.4.5-.7.6-1.7-.7-3.5-1-4.5-2.5-.6 0-1 .3-1.5.1-.2.3-.5.5-.7.7 0 .7 0 1-.2 1.5.6.9 0 2.2.2 3.5-.5.5-.7 1.4-1.2 1.9-.1.8-.2 1.5-.7 1.9-.2-.2-.6-.4-1-.5-.2-.8-1-1-1.2-2-.1-.3.2-.3.2-.6-.1-.4-.4-.7-.7-1.1-.3-.3-.6-.9-.9-1-.6-.2-1.4.1-2-.3-.2.5-.4.9-.7 1.3-1 0-1.9.1-2.6.4-.2 1.2.1 2.8.2 4.5.4 7.5 1.5 14.8 1.8 22 .9 18.8 1.3 38 2.1 56.9.5.4.8 1.1 1.1 1.7 0 .2-.3.2-.3.5.2 1.3-.3 1.9-.7 2.7.1.3.4.5.6.7.2 1.3-.7 1.9-1 3-.1.4.1.7-.2 1.1.3.9 1 1.3 1.2 2.2 1.3.1 1.6 1.1 2.2 1.9 1.1 1.4 2.5 2.3 3.7 3.4 0 .6 0 1.2.2 1.5.4.1.5-.1.8-.1-.4.4-.7 1.1-1.6.9-.2.6-.3 1.3-.4 2 .5.6 1.1 1 1.8 1.4.6.4 1.3 1.1 2 1.3.4.1.7 0 1.1.1.3.1.7.3 1 .6.4-.1.7-.4 1-.3.6-1.4 1.7-2.4 2-4.2.4-.2.9-.2 1-.7.1-.4-.2-.3-.2-.6.4-.7.9-1.3.7-2.5-.1-.4-.2-.9 0-1.5.1-.4.5-1.2.7-1.6.8-1.4 2-2.2 3.9-1.8.4-.3 1-.4 1.3-.8.2-.8.6-1.4 1.1-1.9 1.2-.1 1.3-1.3 1.9-2-.1-.9-1-1.7-.8-2.8.1-.7 1-2 1.9-2 .1-.1 0-.4.2-.4.1.3.3.6.4.9.5-.2.6-.7.9-1.1.7-.3 1.6-.2 2.3 0 .3-.1.5-.5 1-.4.2-.2.2-.6.6-.6 0-.5-.4-.9-.5-1.5-.1-.8.2-1.7-.5-2.1-.3-.1-.8 0-.9-.3-.1-.9.3-1.4.3-2.2.9-.6 1.4-1.4 1.8-2.4 0-.3-.3-.4-.3-.7.2-.3.4-.5.7-.6.3-.1.2.2.5.2.6-.4 1.3-.8 1.8-1.3.8-.4 2.2-.5 3.2-.4.8-.5 1.2-1.8 1.5-2.5.7.1 1.3.4 1.7.7-.9 1.6-2.2 2.9-3.1 4.6.1.4.4.5.6.8.4-.1.5-.4.9-.5.2.2.2.5.7.4.2-.2.3-.5.3-1 .4-.5 1.1-.6 1.6-1 .4-.4.4-.9.8-1.2.3.4.7.5 1.4.5 0 .4.3.4.4.7v.7c.9.7 0 3.2 1.9 2.8 0-.3-.3-.4-.3-.7.6-.2 1.3-.9 1.8-.4 0-.3.3-.3.2-.7.4-.2.8-.6 1.2-.7.2-.1.3 0 .4-.1.5-.4 1-1.3 1.2-2.1.2-.7.2-1.5.2-2.3-.2 0-.5 0-.7-.1l-.6-1.2c-.3-.2-.5.6-.7.4-.5-.8.3-1.5.2-2.3.6-.8 1.6-1.1 2.2-1.8.6-.7.7-1.7 1.4-2.3.4-.1 1-.6 1.3-.6-.8 1-1.5 2.2-1.7 3.8.1.2.5 0 .5.2-.4.9-.3 1.9-.4 2.7-.1.1-.3.2-.4.2.3.6 1.1 1.1 1.8 1.1.3.6 1 .9 1.3 1.6.5-.1.7-.5 1.2-.7v-.7c.6.5.5-.9 1-.9.2 0 .3.6.7.7 0 0 .1-.4.2-.2 0 .4 0 .7.2 1 .5 0 .8-.1 1.2-.2-.2-.4.2-.4.2-.7-.1 0-.3 0-.2-.2.4-.8.5-1.7 1.2-2.2 0-.7.5-1 .2-1.7.4-.6.5-1.3.7-2.1.6-.4 1.4-.6 1.8-1.2.1-.7-.4-1.2-.2-1.7.3.1.5.2.8.2.4-.4-.1-1.7.7-1.7.3.1.4.4.6.7l-.6 1.2c-.1.2-.4.2-.5.4.4.8.1 1.8.4 2.6 1.2.3 1-1.1 2-.7 0 .3-.2.4-.2.7.4.3-.2.7.2 1 .8-.2 1.1-1.2 1.2-1.8.5.2.8-.1 1-.4 0 .5.5 0 .7.2-.1.3-.5.3-.7.6-.2.2-.2.5-.3.8-.8.6-.6 1 .3 1.6.8.5 1.8.9 2.3 0-.2-.1-.5-.1-.5-.4.9-.2.6-1.6.8-2.5.7-.3 1.1-.9 2.2-.8.8-.6 1.2-1.6 2.3-1.9.3-1 1.1-1.4 1.2-2.5-.7-.2-1.7-.1-2.1 0-.1-1.1.9-1.1 1.2-1.8-.5-.9.3-1.9.8-2.6 0-.5.1-.7 0-1.1.2-.3.4-.7.7-.8 0-1.4 1-1.9 1.3-3.1 1.2-.5 2.6-2.1 2.1-4-.1-.6-.8-1-1.2-1.4-.1-.5-.2-1-.3-1.4.6-.4 1.1-.1 1.7-.2.7-.1 1.4-.7 2-1.1.3-.2.7-.4 1-.6.3-.2.5-.6.8-.6-.1.4-.5.6-.4 1.2.7.3 1.3-.3 1.7-.5 0-.6-.3-.9-.7-1.2.5-.2.5-.8 1.1-.9 0-.5.1-.9.2-1.3.7.4.6 1.1 1.1 1.7-.1.8-.5 1.2-.6 2.1-.7.7-1.3 1.5-1.4 2.9 0 .3.5.2.4.6.5-.1.9-.4 1.1-.9.3-.2.7 0 .8-.1 0-1.4 1-1.8 1.9-2.4.2.2.5.3.6.7-.2.1-.5.2-.7.3.1.4.4.7.8.8.1.2.4.6.2.8-.4-.1-.4-.5-.8-.7-.5-.1-1.2.1-1.7.2-.5.5-.4 1.2-.5 2-.4-.1-.5-.4-1.1-.4.1.4-.4.7-.7 1-.2.6-.4 1.1-.4 1.8.5.1.7.5 1.2.4.4-.1 1-.8 1.2-1 .3 0 .5-.2.8-.2 1.4.9 2.5 2.2 4.6 2.3 1.1.8 2.4 1.3 3.2 2.4.6-.2.7.4 1 .2.1-.6.1-.9-.2-1.3.6-.4-.1-1.4-.2-1.9-.8-.1-1.3-.7-1.2-1.8l-.6-.3c.2-.6.6-1 1.2-1.3-.1-.5-.6-.5-.7-1 .5-.4.7-.8 1.4-.4.4-.1.5-.6.8-.8.3-.1.3.1.6.1.1-.2.4-.8.6-.7.4.7.1 1.5.4 2.2.3 0 .4-.4.7-.4-.1-1 .3-2.1-.3-2.6.5-.7-.1-1.2-.2-2 .5.1 1.1-.4 1.4 0 0-.2 0-.4.2-.4.5 1.3-.6 3.1.2 4.5.9-.1 1.4-.7 1.7-1.4.8-.1 1.1-.7 1.5-1.2.9-.5 2.3.2 3.1-.1.3-.3-.3-.3-.2-.7.4-.1.7-.4.8-.7.4.2.9.8 1.4.7.2-.3-.2-.3-.2-.7.4-.4.3-1.1.7-1.5.5.4.5 1.2.9 1.7 0 .2-.2.1-.2.3.3 0 .5 0 .7.1.3-.4.4-1 .9-1.2.3.1.7.1 1 .2.2.4.2 1 .5 1.3-.2.4-.4.8-.3 1.4.1 1 .5 2.2.8 2.9.4.2.7-.3.8-.2.1.5.3 1.1.1 1.6.4.2.6 1 1.4.6 0-.4.2-.6.2-1 .2-.1.4.1.6-.2 0-.6.2-1.1.5-1.5.5 0 1 0 1.2.2.1-.2.1-.6.5-.5-.4-.7-.5-1.7-1-2.4-.3 0-.3.3-.6.2-.2-.5-.5-.9-.7-1.4.6.1 1.3.5 2 .3.5.9.4 1.9 1 2.6.3 0 .4-.2.7-.2-.2-1.1.2-2.1.3-2.8.1 0 .5-.2.5-.1-.2.5-.1 1.3-.2 1.9 0 .2-.2.3-.2.5 0 .7.5.9.8 1.4.4-1.1.5-2.5.7-3.7.3.3.3.2.7.1.2-.8.4-2-.1-2.6.6-.4.9-.9 1-1.7.7-.1 1.2-.4 1.7-.7.1-.3.2-.6.5-.7 0 .7-.4 1.3-.3 1.8-.3 0-.4.3-.7.2.2.6.2 1.2.7 1.2.8 0 1-2.4 1.7-2.8.1 1-.1 2.2.4 3-.1.2-.1.4-.2.7.3.3 1.2.1 1.7.1.1-.7.6-1.4.7-1.8 1.2-.1 1.9.2 2.6.6-.4.2-.3.9-.1 1.2.3.1.6-.4.7-.7-.2 0-.6-.3-.5-.4 1-.3 2.1 0 2.2-1 .1-.4-.3-.8-.3-1 0 0 .2-.2.2-.3.1-.7.1-1 .4-1.4-.2-.1-.3-.4-.4-.7.2-.2.4-.3.7-.5.1-.3-.2-.3-.2-.6.3.2.4.6.8.7.4-.2.5-.6.9-.7.2.1.5.2.6.4-.1.2-.1.5-.2.7.5.3 1.4.3 1.6.9.4-.3 1.2-.2 1.5-.7.3.2.6.3.8.6.1-.6.6-.7.7-1.3.2 0 .5.2.7.1.1-.8-.6-1.2-.1-1.7-.3-.4-.5-.9-.9-1.2.4-.4 1.4-.3 1.8-.7.5 0 1.3.1 1.6-.2.1.9-.3 1.4-.5 2.1.8 0 .9.9 1.1 1.2.2.2.5.1.5.5.4 0 .5-.3 1-.2-.2-.7-.8-1.2-.2-1.8.2 0 .5 0 .6.2v1.1c.9.5 1.6.4 2.1.3z"/><path d="M153.2 137.3c-.8 0-1.8-.6-2 .3.4.8 1.8.6 2-.3zM143.6 138c-.1.3-.3.5-.6.6-.1-.1-.3-.2-.5-.2-.2.2-.3.5-.3.9.4-.1.4.3.7.3.1-.2.2-.4.4-.5.3.1 1 0 1.2-.2-.2-.3-.5-.7-.9-.9zM143 140.2c.3.2 1 .2 1.4.3.3-.4-.1-.5-.2-.8-.6 0-1-.1-1.2.5zM131 141.1c-.8-.3-.8.9-.2.8.2-.1.2-.4.2-.8zM141.5 142.8c.8.2 1.4.9 2.2.3-.1-1-1-1.2-2.1-1.2-.1.2-.1.5-.1.9zM131.3 142.1c-.1.2-.1.4-.2.5.3.3.5.7.9.8-.1-.3.1-.5.1-.7-.4-.1-.6-.4-.8-.6zM140.9 145.3c.3-.3.4-.9.5-1.4-.3-.6-1-.9-1.1-1.6h-.2c0 .4-.2.7-.4 1.1.3.5.4 1.4.7 2 .2-.1.3-.1.5-.1zM139 143.5c0-.4-.2-.5-.5-.6-.2.3 0 .8.5.6zM136.9 143.1v.6h.6c.1-.2-.3-.6-.6-.6zM136.9 145.2c.3-.1.5-.3.4-.7-.2 0-.2-.2-.4-.2v.9zM88.4 146.1c.3-.1.2.1.5.1.1-.2.3-.3.4-.5-.2-.2-.3-.3-.2-.6-.6-.5-1 .5-.7 1zM130 146.3c-.3-.4-.4-1.1-.9-1.3-.3.6-.3 1.3.2 1.7.4.1.3-.4.7-.4zM139.7 146.1c.1-.1.4-.1.6-.2-.2-.5-.6-.7-1.1-.9-.4.4.2.9.5 1.1zM118.5 145.3c0 .3-.4.9.2.8-.1-.3.1-.8-.2-.8zM107.4 153.9c.3.9 1.5 1 2.1 1.7-.1.1-.1.2 0 .3.7 0 1.2.1 1.7.3.6-.4.9-1 1.3-1.6-.1-.6-.6-.8-1-1.2.9-1.2-.4-2.4-.7-3.4.3-.1.4-.4.7-.4.3.9.1 1.9.7 2.6 0 .2-.2.1-.2.4 1.1.9 2.1-.3 3.3.3.9-.6 1.3-1.7 1.7-2.7-.3-.7-.5-1.4-.9-2.1-.9-.2-1.1-1.1-1.9-1.4-.1-.5-.5-.9-.9-1.1-.6.3-1.2-.1-2.1 0 0-.2-.1-.3-.2-.2-.4.6-1 1.1-1.9 1.2-.1.4-.4.8-.2 1.2-.7 1.1-1.7 1.9-1.6 3.8-.7.8.1 1.5.1 2.3zM118.4 148.7c.7 0 1-1.2.3-1.5-.3.3-.6.6-.7 1.2.2.1.3.2.4.3zM87 155.5c.2-.1.6-.4.7-.7.1-.1 0-.4 0-.6.2-.8.7-1.3.6-2.1-.1-.5-.1-.3 0-.7v-.3c.1-.3.5-.4.7-.7.1-.2.4-1.2.4-1.2 0-.4-.4-.7-.8-.7l-.1.2c-.2.2-1 .5-1.1.7 0 .9-.5 1.7 0 2.4-.3.5-.8.7-.9 1.3.4.5.5 1.3.5 2.4zM103.2 148.5c-.3.7-.2 1.7-.5 2.3.3.4.6.7 1.3.7.1.2.5.4.7.3.2-1.2-.5-2.3-.7-3.2-.2-.1-.5-.1-.8-.1zM106.8 151.2c0-.8.6-1.4.3-2.5-1.2.2-1.9 2.3-.3 2.5zM94.4 152.2c-.1.7.5.7.5 1.2.4.2.9.3 1.3.4 0-.3.3-.4.2-.7-.6-.3-1.4-1-2-.9zM99 154.4c-.4-.1-.7-.3-1.2-.3-.1-.4-.5-.6-.9-.7-.4.9-.8 1.7-1.5 2.3 0 .6 0 1.3.2 1.9-.4-.1-.3.3-.5.4-.1 1.5 1.5 1.9 2.8 1.4.2-.4.1-1.1.3-1.4-.3-.3-.7-1.1-.8-1.3.2.1.3-.1.5-.1.5-.5 1.5-.5 1.7-1.3-.3-.1-.3-.6-.6-.9zM104.3 153.4c0 .5.4 1 .9.8 0-.2-.3-.3-.2-.7-.1 0-.4-.1-.7-.1z"/><path d="M113.3 153.8c.3.4.5-.1.9-.1 0-.4-.9-.3-.9.1zM85.8 153.9c-.2.3-.5.7-.5 1.2.4.1.5-.1.8-.1 0-.4 0-.8-.1-1.1 0 0-.1-.1-.2 0zM115.4 154.2c-.5-.2-1-.3-1.1.3.2.2.5.2.7.3.1-.2.5-.2.4-.6zM113 155.4c.2.1.4.3.7.2.2-.6-.1-.9-.6-1.1-.1.3-.2.6-.1.9zM104.7 155.8c-.1.1-.1.3-.2.5.3 0 .5 0 .7-.1 0-.3-.2-.5-.5-.4zM101.4 157.8c-.3-.5-.4-1.4-1.2-1.1-.1.7.3 1.5 1.2 1.1zM104.4 156.7c0 .3 0 .5.2.6 0-.1.1-.2.2-.3-.2 0-.2-.3-.4-.3zM105.4 156.9c.2.3.2-.3 0 0zM111.1 156.8h-.5c-.1.4.3.3.3.7.3 0 .5-.1.7-.2-.2-.2-.6-.2-.5-.5zM105.6 157.3c.1.1.2.1.4.1 0-.2-.2-.3-.3-.4 0 .1-.1.2-.1.3zM109.7 158.2c0-.3.2-.5.3-.8-.3-.4-.8 0-1 .2.1.3.2.3.1.6h.6zM99.2 157.6c-.1.1.1.5.2.6.3-.1.2-.6-.2-.6zM104.1 159.8c.2-.1.2.2.2.2.5-.5 1.1-.1 1.4.2.2-.1.4-.2.6-.2.8.8 2.2 1 2.2-.4 0-.7-.7-1.4-1.1-1.7 0 .1-.2.1-.3.1-.2.2-.2.6-.5.7-.2-.1-.2-.4-.5-.4-1.1-.1-1.2.8-2 1 .2.2 0 .2 0 .5zM110.1 157.8c.1.3.4.4.5.7v-.6c-.3.1-.3-.1-.5-.1zM87.8 160.6c.7.1 1.4-.1 1.8 0 .4-.5 1-.6 1.7-.4.1-.2.1-.5.4-.6-.5-.5-.7-1.3-1.2-1.7-.9.3-1.8.8-2.4 1.5-1 .3-1.5 1.2-2 2.1.8-.1 1.2-.5 1.7-.9zM114.8 158.2c-.2-.1-.6-.4-.7-.2.3.1.2.6.7.5-.1-.1 0-.1 0-.3zM114.4 160.1c.4-.5-.1-1-.6-1.1-.1.5.2 1.1.6 1.1zM97.4 160.4c0-.3-.1-.3-.2-.5-.5-.1-.7.3-.4.6.3 0 .5-.1.6-.1zM98.3 159.9c-.2 0-.6-.1-.6.2l.6.3v-.5zM99.7 160c-.1.1-.1.2-.1.4.2 0 .3.2.4 0 0-.1-.1-.3-.3-.4zM91.1 162.3c.3-.1.2-.5.6-.5-.1-.2-.2-.4-.2-.7-.7 0-.8-.5-1.5-.5-.4.5.3 1 .5 1.5.3-.1.3.1.6.2zM104.2 161.8c0-.4-.1-.5 0-.8-.4-.7-.9 0-1.1.5.1.2.3.3.2.6.5 0 .7-.2.9-.3z"/><path d="M92.9 163.9c-.2-.4-.1-.7-.3-1.3-.5.3-1.3.2-2.1.2-.5-.6-.9-1.3-1.4-1.8-.6-.1-1 .1-1.6.4 0 .3-.2.4-.2.7.6.1.7.8 1.2 1.1-.2 0 0 .3-.1.4.4 1 1.9 1 2.6 1.7.8-.3 1.1-1 1.9-1.4zM98.2 162.2c0-.2.2-.2.3-.2-.1-.6-.5-.4-.9-.4 0 .4.3.4.6.6zM99.5 166.5c.4-1 1-2.5.4-3.6-1.4-.5-1.2 1.2-2.2 1.3.1 1-.3 1.5-.6 2.1.8.5 1.8-.2 2.4.2zM97.6 163.3c.1-.2-.2-.2-.2-.3-.3.1-.4.2-.4.5.1 0 .2 0 .2.1.2-.1.2-.3.4-.3zM89.6 165.8c0-.2.3-.2.2-.4h-.5c-.3-.2-.1-.6-.3-.7 0 .2-.3.2-.3.4.2.4.5.6.9.7zM68.2 167.6h-.4c.1.7.1.8 0 1.5.5-.4.5-.8.4-1.5zM56.6 168.6c-.1.4-.3.6-.6 1.2-.1.3-.2.7-.4 1-.5.8-1.3 1.2-1.3 1.8 0 .7.5 1.4 1.2 1.2.3-1 .6-1.9.7-3.1.3-.5.7-1.4.7-2-.2 0-.2-.1-.3-.1zM69.3 170.7c.3-.2.5 0 .7-.1v-1.5c-.8-.1-.9.5-1.2 1.1.2.2.4.3.5.5zM67.1 170.7c-.2-.4-.2-1.1-.5-1.5h-.3c0 .8-.7 1.8 0 2.3.3-.1.6-.4.8-.8zM93.9 172.5c.1.2.3.2.6.2.1-.2.3-.4.2-.8-.1 0-.1-.1-.2-.1-.1.4-.5.4-.6.7zM79 172.3c-.1-.1-.2-.3-.4-.3-.2.5-.2.9 0 1.4.5-.1.3-.8.4-1.1zM70.8 173.7c.2 0 .2.2.5.2 0-.4.3-.5.2-1-.6 0-.6.5-.7.8zM88 174.4c.1-.2.3-.4.6-.5 0-.3-.1-.5 0-.7-.9-.8-1.2.7-.6 1.2zM72 173.8c.1-.2.5-.1.4-.4-.2-.1-.2-.4-.6-.3.1.3 0 .7.2.7zM57.3 174.4c-.5-.2-.8.3-1.1.6.1 1 .6 1.6 1 2.3 1-.5 1-2.4.1-2.9zM88.9 175.1c-.2-.8-.8-.2-1 .3.4.5.8.2 1-.3zM43.6 175.6c0 .2-.1.2-.1.3.3.2.3-.4.1-.3zM37.6 179c.8.1.9-.5 1.1-1-.2-.2-.4-.3-.6-.4-.5.4-.3.9-.5 1.4zM70.9 178.4c.1.1.1.3.3.3.1-.3.5-.4.6-.7-.4-.3-1-.1-.9.4zM41.7 178.2c0 .4-.3.5-.3.8.3-.1.5-.2.7-.5-.2-.1-.2-.3-.4-.3zM39.8 178.5c-.5.7-1.5.8-1.7 1.8.9 1 1.7-.6 1.8-1.6 0-.1-.1-.1-.1-.2zM37 180.6v-.6c-.3 0-.6.2-.8.2.1.2.2.3.4.4.1.1.1-.1.4 0zM46.4 180.3c-.1 0-.3-.3-.4-.1 0 .2.3.4.4.1zM39.3 181.6c.2.1.2.5.5.5.1-.2.3-.4.5-.4-.1-.3-.3-.5-.4-.8-.3.1-.4.4-.6.7zM38.2 182.2c-.2-.1-.2-.4-.5-.4-.2.1-.3.4-.2.7.1.1.6-.1.7-.3zM35.7 182.8c0 .4.3.5.3.8.3.1.2-.2.6-.2-.1-.4-.4-1-.9-.6z"/>
</svg>
