<svg xmlns="http://www.w3.org/2000/svg" viewBox="0 0 257.8 126.6"><path d="M.9 36.4c.2-.1.3-.3.5-.5.3-.1.5-.1.8-.1.1-.2.3-.4.5-.5H3c.2-.1.5-.4.7-.5.3-.3.3-.7.7-1 .2-.1.3-.1.5-.1.3-1 .9-1.7 2-1.9.7-.6 1.5-1.2 2.1-1.9.4 0 .6-.2.9-.3.3 0 .6.1.9 0 .5-.2.7-.9 1.1-1.3.5-.6 1.2-.9 1.7-1.3 0-.5.1-.9.4-1.1.5 0 .8-.2 1.3-.1.5-.5.8-1.2 1.4-1.6.8 0 .9-.9 1.5-1.3.3-.2.6-.1.9-.3.3-.1.4-.4.7-.5.2-.1.4-.1.5-.2.4-.3.5-.9.9-1.1.3 0 .5-.2.7-.3 0-.6.3-.9.3-1.5.3-.2.5-.7.9-.9.2-.1.5 0 .8-.1.3-.1.6-.3.8-.3.3 0 .6.2.9.1 1.2 1 2.9 1.5 4.1 2.5.3-.1.5 0 .9 0 0-.4.3-.9.3-1.5.2-.2.5-.2.7-.4.1-.8.7-1.2 1.3-1.5.1-.2.3-.3.3-.5.6-.2.8-.7 1.1-1.1.4-.4 1.1-.7 1.4-1.1.2-.2.2-.6.4-.8.6-.8 1.5-1.4 2.7-1.5.1-.2.1-.6.1-.9-.2-.2-.5-.2-.7-.4.1-.2.2-.6.2-1 .6-1 1-1.6 1.5-2.1 0-.3 0-.5.1-.7.4-.1.6-.4.9-.5 0 .2-.1.2 0 .4.3.2.5.5.7.7.1-.2 1.5-.4 1.7.1-.3.2-.4.5-.7.7-.3-.1-.7 0-1 .1-.1.2.2.6-.1.8.2.2.3.3.3.7.8-.1 1.3.2 1.8.5v.4c.2.2.4.4.7.5.2.2.5.6.7.7.8.4 1.9 1.2 2.7 1.3.6.1 1.4-.2 2.2-.1.5.5 1.2.3 1.9.6.5.2.9.6 1.3.6.9.1 1.9-.3 2.9-.1.2 0 .3.2.5.2.9.1 1.8 0 2.8.1v-.4c.5-.3.6-1 1.1-1.3.6-.1 1-.1 1.5-.3 0-.5-.2-.7-.3-1.1-.9-.3-1.5-.8-1.7-1.7 1-.1 1.5.3 2.2.7.4-.3.6-.2 1.2-.3.1-.3.4-.4.4-.7-.5-.8-1.7-.8-2.2-1.7.2 0 .2-.3.3-.5 0 .1.3 0 .5.1.1.1.2.3.3.3.7.1 1.6 1.1 2.1.3.1-.2-.2-.4-.1-.7.3-.1.5-.2.9-.2.1-.2.2-.6.3-.7 1.9-.1 3 1 4.7 1.4.2-.2.4-.3.7-.5 0-.7.5-1 .8-1.3.4-.4.3-.4.7-.5.3-.1.4-.2.7-.3.2-.5-.1-.7-.2-1.2.2-.2.4-.3.7-.5.2.2.4 0 .7 0 .4-.4.9-.9 1.4-1.3.2.2.3.2.7.1.4.3 1.2.2 1.6.5.4-.1.5 0 .8.1 1 .3 1.5.6 2.2 1.1.6.4.8.6 1.3 1 .5.5 1.2 1.1 1.6 1.6.1.1 0 .2.1.3.2.3.5.5.8.8.3.3.5.7.7 1 1 .1 2.1 0 2.8-.4.5.4.4 1.5.9 1.5.6 0 .4-1.1.9-1.5.8.3 1.8.6 2.7.3.2-.4.5-.6.9-.7.6.4 1.5.2 1.9.9 0 .6-.2 1.2-.4 1.8-.8.3-1.6.3-2.6.2-.4 1.2.8 1.5 1.1 2.3-.2.5 0 1 .1 1.4.2 0 .5-.1.9.1.1-.5.7-.5.9-.8 0 .2.1.3.1.5-.2.3-.6.5-.8.9.2.4.5.6.9.9.5-.1.9.2 1.2.4.5-.1.7.1.9.3-.2.9-.3 1.9.1 2.7-.6.1 0 .9.1 1.1.9.1 1.7.1 2.1.8.2.5.5.9.7 1.4-.2.4-.3.9-.7 1.1.2.3.2.9.3 1.3-.3.3-.4.8-.7 1.2.3.3.4.8.7 1.1.5-.1.9.4 1.5.5h.5c.2 0 .3.1.5.1.8 0 1.6-.2 2.3.1.6.5 1.3.9 2.5.8l.6-.3c.1.1.3.1.5.1s.2-.3.4-.3c0 .2.2.2.3.3.7-.1 1.2.5 1.8.7 0 .5.3.7.3 1.1.4.1.4.4.7.6.1.1.3.2.4.3.2.2.3.6.5.7.3.2.8.2 1.2.3.5.2.8.5 1.3.7.1.5.5.7.7 1.1.2 0 .5 0 .5.1-.2.2-.2.4 0 .6-.5.4-.5.9-.7 1.5-.3.1-.5.4-.7.6-1 .1-1.4.8-1.9 1.5.2.3-.1.7-.1 1.1 0 .2.1.4.1.6 0 .4-.2.8-.1 1.3h.5c.7.8 1.8 1.3 2.4 2.2.3.4.4.8.7 1.2.4-.1.6.2.9.3.4.1.9.1 1.5.1 1.5.2 3 .7 4.8.5.7.3 1.4.6 2.2.8.1.1.1.3.3.3.5.3.8.7 1.5.8.4.6 1.1.5 1.2 1.3.1.8-.3 1.7 0 2.7.5.5 1.4.3 2.2.5.2.1.2.2.4.2.4.1.8-.1 1.1 0 .7.1 1.3.5 1.9.5.1.4.5.3.5.8.5.3.9.6 1.4 1.1.5.5 1.3 1.8 1.9 1.9.5.1 1-.1 1.4.1.3.1.6.5.8.6.3.2.6.3.8.6.1.9.1 1.9.4 2.5-.3.6 0 1.5.1 2.1-.3.5 0 1.7-.4 2.1.2.3.1.5 0 .9.1.5.5 1.1.5 1.6s-.3.8-.3 1.1c-.1.2 0 .5 0 .7-.3 1.5-1.9 1.5-3.2 2.3-.2.1-.3-.1-.5-.1-.9.3-1 1.5-1.2 2.5.5 1.3-.5 2.3-1.1 2.9-.4-.1-.6.2-.9.3-.4.1-.7-.1-1.1-.1-.5 0-.7.2-1 .5-.1 1.1-.9 1.6-1.2 2.5.9.2 1.3-.3 1.9-.7.2-.1.4-.2.5-.3.2-.1.5-.2.6-.3.5-.3.8-1 1.5-.5-.5.2-.8.5-1.4.6-.1.2-.2.4-.3.5-.5 0-.5.5-1.1.5-.4.9-1.6.7-2.3 1.1-.3.2-.4.5-.6.7-.3.3-.5.4-.7.7-.1-.1-.2 0-.4 0-.1.3-.6.4-.8.7-.1.1 0 .4-.1.6-.2.3-.5.4-.5.6-.1.2 0 .4 0 .7 0 .1-.1.3-.1.5-.1 1 .1 2 .5 2.8 0 .5.1.9.2 1.3-.4 1.3 0 2.8.6 3.5.9.3 1.2 1.2 2.1 1.5 1-.3 2-.5 2.9-1l.6-.3c.2-.1.5-.3.6-.3.1-.1.1-.3.3-.5.2-.3.5-.3.6-.6.1-.3 0-.6.1-.9.1-.5.3-.8.3-1.3-.1-.5-1-.7-.5-1.2.3 0 .4.2.9.1.3.3.4.8.6 1.2-.1.5-.3.9-.3 1.5.3.1.7.3 1 .2.3-.3.4-.6.6-1 1-.3 1.7-.8 2.3-1.5-.1-.3-.3-.4-.4-.7.1-.3.4-.4.5-.7-.1-.2-.1-.2 0-.4.4-.5.7-1 1.1-1.4 0 .5-.3.7-.5 1.1.2.5 0 .9.1 1.5.8.6 1 1.5 1.5 2.6.7 1.5 1.3 2.8 1.2 5 .6.2 1.3.3 1.7.7.2 0 .2-.1.4-.1.4.4.8.7 1.1 1.1.2.1.5 0 .5.3-.5.1-.4.5-.5.9.1.2.3.3.4.5.9 0 1.3.9 2.1 1.1.4.1 1-.1 1.4.3.5-.1 1.1-.2 1.6-.3-.1-1.2-1.5-1.6-1-2.9-.3-.5-.6-.9-.9-1.3.2-.4.1-1.5.1-2.1-.6-.5-1.8-.5-2.1-1.2 0-.2.2-.4.4-.5.5.2 1.2.1 1.9.1.5.3.9.7 1.3 1.1 0 .6.3.8.6 1.1.4-.2 1.4-.3 1.5.3-.6.3-1.5.3-1.7 1.1.5.6.6 1.2.4 2.1.2.2.6.2.8.4.2.2.1.5.3.8.1.2.2.3.3.5.1.6-.1 1.3.3 1.8 1.3.4 1.3 2 2.7 2.3.2-.1.3-.3.5-.3 0-.4-.6-.3-.5-.7.5.1.4-.4.8-.4.2.2.3.1.5 0 .2-.3.3-.9.1-1.3.2-.1.4-.1.6-.3 0-.3-.2-.3-.3-.5.2-.1.3-.4.3-.7-.3-.3-.4-.9-.2-1.3.7.6 1.1 1.7.9 2.9-.4.3-.6.7-.8 1.2.2.2 0 .8.3.9.5-.1 1-.5 1.1-1 .1-.2 0-.5 0-.9.4-.9 1.3-.3 2.1-.5.7-.2.8-1 1.4-1.3.2.7-.3 1.6-.7 2.1-1 .1-2.6.2-2.1 1.4 1-.4 1.7.3 2.5.5.7.2 1.4.2 1.9.5.7.3 1.2 1.1 1.9 1.1.5.6 1.4 1 1.7 1.9.2.5.1 1.2.3 1.7.2.5.6.7.7 1.2.5-.2 1.1-.1 1.5.1.3-.1.3-.4.5-.6.2.4.9.3 1.4.5.2-.2.3-.7.1-1.1.2-.3.6-.5.7-.9-.1-.2-.4-.3-.4-.6.2-.2.4-.4.7-.5.2.2.2.5.3.7.4.2 1.4-.1 1.6.3-.6.4-1.3.7-1.3 1.5 0 .2.2.6.3 1 .1.7.3 1.1.5 1.5.6-.2.5-.8.7-1.4.2.2.5.2.8.3-.1.2-.2.3-.3.5.3.4.5.8.7 1.3.3.3.7.6.9.9.1.1.1.3.2.4.2.2.5.3.6.5l-.1.1c0 .3.4.6.4.9.5-.2.9.2 1.3.3.1.4.3.6.6.8 0-.3.3-.3.4-.5.2-1.1-.7-1.4-.9-2-.1-.4.1-1 .1-1.6-.4-.4-1.1-.5-1.7-.7.3-.4-.1-1.5.3-1.8.3.3.7.6.9.9.3-.1.7-.1.9-.3 0-.3.1-.5.3-.6-.1-.2-.2-.4-.1-.7-.2-.2-.3-.5-.4-.9-.5-.4-1.1-1-1.4-1.7-.2-.4-.3-.8-.5-1-.3-.4-.8-1.1-1.1-1.7-.2-.3-.2-.7-.3-1-.2-.6-.6-1.2-.5-1.7 0-.4.3-.8.3-1.2.3-.3.5-.8.8-1.2-.2-.1-.2-.5-.3-.8-.5-.2-.7-.6-1.3-.7-.2.2-.4.4-.7.5-.2.1-.4 0-.6.1-.4.2-.4.7-.8.9-.4-.3-1.2 0-1.7-.2 0-1-.8-1.1-1-1.8-.3-.1-.5-.1-.8-.2 0-.2.1-.3 0-.5-.3-.2-.8-.1-1-.4.1-.8-.1-1.2.1-1.9-.6-.4-1.2-.9-1.9-1.2-.4.2-.6 0-1.1 0-.2-.2-.4-.3-.6-.5h-.5c-1-1-2.6-1.3-3.3-2.6-.2 0-.2-.1-.4-.1-.1-.4-.5-.6-.7-.9-.4-.7-.6-1.3-.7-2.4-.7-.7-1-1.8-1.1-3l.3-.6c-.1-.2-.4-.3-.3-.6.7-.8.2-2.5 1-3.2v1c.1.3.7.1.8.4-.2.4-.3.8-.5 1.3.6.7 1.2 2.1.5 3 .6.7.5 2.2 1.2 2.8.2 0 .2.1.5.1.8.6 1.3 1.5 2.3 1.8.1.2.3.3.4.5.5.1.9.3 1.5.5.3.1.5.3.8.4h.5c.5.1.8.5 1.1.7-.2.3 0 .5 0 .9.3.1.6.1.9 0 .1-.7.4-1.1.9-1.3.1.4-.2 1-.3 1.4.1.1.2.2.2.3-.1.9.6 1.8.7 2.7.1.8.1.9.4 1.4.2.3.3.6.7.5.3-.3-.1-.8-.1-1.1.3 0 .3-.2.5-.2 0 .3.2.4.3.7.5.2.8.4 1.5.2.3-.6.7-.9 1.1-1.3.2-.6.6-.9.8-1.5-.2-.3-.1-1.1.2-1.3-.7-.3-.8-1.2-1.3-1.7-.2-.2-.6-.4-.8-.7-.1-.2-.2-.5-.3-.6-.2-.2-.5-.2-.7-.4-.4-.3-.7-.8-.9-1.1-.1-.2-.4-.4-.5-.6-.2-.3-.4-.7-.6-.9-.4-.3-.8-.4-1.1-.7-.1-.2-.3-.5-.4-.7-.2-.5-.3-1-.5-1.5s-.4-1-.5-1.5c.3-.6.1-1.3 0-2 0-.3.1-.7.1-1.1 0-.4-.1-.7-.1-1.1 0-.4.3-.9.3-1.3s-.3-1-.4-1.2c.1-1-.1-1.7-.5-2.2.2-.5-.1-.9-.1-1.4v-.8c0-.2-.1-.3-.1-.5 0-.6.5-1.2.3-1.8-.4-.4-1.1-.6-1.5-1 0-.2.1-.3.1-.5-.4-.3-.3-1-.5-1.5.3-.4.7-.6 1.1-.7.2-.6.7-.9 1.3-1.1.3-.6 1-1.2 1.2-2 .2-.7.2-1.8-.2-2.5-.7.1-1.1.2-1.5-.2.1-.5.3-1 .6-1.3.7.1 1.4-.3 1.5-.9.1-.4-.3-1.1-.4-1.5-.5-.1-.8-.3-1.4-.3-.1-.3-.3-.6-.4-.9-.8 0-1.1-1-1.9-1.1-.3 0-.6.1-1 .1-.1-.8-.8-.9-1.3-1.2.4 0 .5-.3.8-.3.5 0 .9.8 1.5.8.3 0 .5-.2.9-.3.5 1 1.9 1 2.1 2.3.4-.1.7.1.9-.2.2.3.5.4.7.7.1.2.1.4.3.6.3.3.6.5 1.1.5.2-.2.1-.7-.1-.9.2-.4-.1-.8 0-1.3.2-.1.2-.4.4-.6.2-.2.3 0 .3-.3 0-.6-.8-.4-1.3-.7.1-.3-.2-.3-.1-.7-.2-.1-.5-.2-.7-.3-.4-.9-1.1-1.3-1.4-2.3-.4 0-.5.2-.8.3.1-.3.4-.4.3-.8-.9-.1-1.2-.8-1.7-1.4-.6-.2-1.2-.3-1.7-.3.1-.5.4-.7.7-.9-.1-.2-.2-.3-.1-.7-.4-.1-.6-.4-.8-.7-.2-.1-.5-.1-.5-.3.3-.3.8.2 1.4 0 0 .9.9.8 1.2 1.3-.1.1-.1.3-.1.5.3.2.3.6.7.6.1.5.6.7.9 1 .5 1.1 1.4 1.8 2.2 2.6.4 0 .8 0 1 .1.8-.2.5-.9.4-1.4.3-.1.4.2.8.1.2 0-.1-.5.2-.4.2.1.3.3.5.4.7.2 1.1-.1 1.7-.3.1-.3.3-.4.3-.7-.2-.2-.3-.6-.7-.7-.1-.6-.7-.8-1-1.2-.9.1-1.4-.6-2.2-.1-.1-.3-.1-.4 0-.7-.5-.4-1.3-.5-1.9-.8-.2 0-.6.1-.7-.1l.3-.6c.5.2.6-.3 1.4-.1.3-.2.3-.8.7-.9.5-.2.9.1 1.1.4-.1.3-.1.8-.4 1.1.3.3.6.7 1.1.9.4-.2.6-.5.7-.9-.1-.1.1-.6.1-1.1-.2-.5-.6-1.1-.5-1.7-.4-.6-.8-1.2-.9-2.1-.3-.3-.4-.7-.9-.7-.4-.4-.6-1.1-1.1-1.5-.6-.1-.9.2-1.4.2-.3-.1-.5-.5-.9-.3-.2-.5-.6-.7-.9-1.1 0-.4-.2-.6-.3-.9 0-.2.3 0 .3-.3-.3-.4-.8-.9-1.5-.7-.3-.4-.8-.5-.7-1.2-.5-.6-1.4-.8-1.9-1.4.3-.3.4-.8.7-1.1-.2 0-.5 0-.5-.3.4-.1.8.2 1.2.2.1.3.3.6.4.9.3 0 .2-.3.5-.3.2.6 1.2.5 1.3 1.3.3.1.6.2 1.1.1.2.2.3.5.2.8.4.3 1.1.3 1.5.5 0 .3.1.9.1 1.3.6.1 1.4-.3 1.9-.5.2.5.3 1.4 1.1.9 0-.2-.1-.5.1-.5 1.1.1 1.1-1 2.1-1.1.1-.2.2-.5.3-.8-.6-.3-1 .2-1.5.1-.2 0-.4-.3-.6-.4-.6-.4-1-1-1.2-1.7-.5-.1-.7-.6-.9-.9-.6-.1-.9-.6-1.1-1.1-.1-.2-.3-.4-.2-.5.5-.2.8.3 1.3.2.2.2.3.5.5.8.4.2.9.2 1.1.6-.3.4.1 1 .2 1.4.6.2.7.9 1.3.8.6-.1.5-.8 1.1-1.1 0-.2 0-.4.1-.5.3-.3.5-.8.7-1.2-.4-.3-.5-.3-1.1-.2V29c-.4 0-.5-.3-.7-.4-.5 0-.7-.2-.9-.4.2-.1.1-.4.2-.5.8 0 1.5.2 1.7.7.3.1.3-.3.5-.3.1.2.1.4.3.5.9.1 1.1-.6 1.6-.9.2.4.8.3.8.8.4 0 .4-.4.7-.5.3-.1.5-.3.5-.7-.2-.2-.8 0-.9-.3.1-.3.5-.2.5-.5-.2-.9-.9-1.6-.7-2.7-.4-.6-1.2-.7-1.8-1.1.2-.2.4-.5.5-.8.5-.2 1.1 0 1.3.3.6-.1 1 .1 1.5.2.3.7.9 1.7-.3 1.9 0 .2.1.2.1.5.3.1.7.1 1 .3-.4.5.1 1.1.3 1.5-.3.2 0 1-.2 1.4.4.8 1.3.4 1.3-.5.3-.2.5-.3.7-.6-.1-.5.2-.7.3-1.1 0-.5-.4-.8-.6-1.3-.2-.4-.4-1-.4-1.3 0-.2.2-.4.3-.6.1-.6.2-.7.5-1.1 0-.3-.1-.3-.1-.5.3-.1.8-.4.9-.9.1-.5 0-1.3-.2-1.7-.5 0-1.1.3-1.5.1.3-.5 1.1-.3 1.7-.6.3-.2.4-.4.7-.5 0 .2.3.1.3.3-.2.2-.1.7-.1 1.1.2.2.5.4.7.7-.3.4-.3.9-.6 1.4-.2.3-.5.5-.6.8-.1.3.1.6 0 .9-.1.5-.6.8-.5 1.3 0 .3.5.3.8.5.3.3.4.7.7.7.4.1.7-.3.9-.6.3-.2.7-.4 1-.7-.2-.4.1-.7.2-1.1 1.4.3 1.4-.9 1.7-1.6.6-.2 1.2-.3 1.7-.6.3-.2.6-.6.9-.8.5-.2 1-.2 1.1-.7.1-.8-.4-1.5 0-2.2-.2-.2-.1-.7-.1-1.1-.2-.2-.4-.5-.7-.7-.4.1-.6 0-.8-.3.1 0 .1-.1.1-.1.1-.2.5 0 .6-.1.2-.6.4-1.1.7-1.6.3-.7.6-1.2 1.4-1.1.3-.7 1.4-.6 2-.9v-.7c.2 0 .3-.1.5-.1-.1.9 1.1 1 1.5 1.5.2-.4.4-.9.5-1.5.2-.4 1.1-.4 1.5-1 .2-.3.3-1.1.6-1.1.2 0 .2.5.4.5-.4.4-.3 1.3-1 1.4.2.5-.3 1.3.1 1.7-.4.5-.9.8-.8 1.7-.5.7-1.1 1.3-1 2.6-.3.4-1 1-.4 1.5.9-.1 1.3-.7 1.6-1.5.4 0 .4-.3.6-.5 1-.6 2-1.2 2.6-2.2.5.1.5-.3.8-.4.2.2.7.1 1.1.1 0-.4.2-.6.1-1.1.4-.3.4-.8.7-1.1.3-.4.8-.5 1-.9.4-.5.3-1.2.9-1.5.1.1.2.3.3.4-.4.7-.6 1.6-.9 2.3-.8 0-.8.7-1.3.9-.1.3.2.2.1.5-.4.3-.7.9-1.2 1.1-.5 0-.9.4-1.5.5 0 .4-.2.4-.3.8.4.3 1.1.3 1.7.1 0 .4.5.4.6.7-.3 0-.1.3-.3.3-.3-.1-.5-.2-.7-.3-.6.5-1.4 0-2.4.1.1.5-.1.7-.2 1.1-.7-.2-1.3.2-1.7.5-.1.1-.1.3-.1.5-.7.5-1 1.3-1.6 1.9-.6.6-1.4 1-1.8 1.7.2.4.4.7.7 1.1.3 0 .6.2.9.3.3 0 .6-.1.8.1 0 .2-.4.1-.5.2-.3.3-.5.7-.9.9v-.6c-.4 0-.6-.3-1-.5-.5.7-2.8.4-3.2 0-.3.3-.7 0-1.1.1-.1.9-.6 1.3-1.1 1.7 0 .5.4.6.5 1 .1.3-.1.3-.3.4-.1.1-.1.4-.3.5-.4 0-.4-.5-.5-.9-1-.2-2.1.4-2.3 1.1-.1.3.1.7 0 1.1-.1.4-.4.6-.3 1.1-.4.3-.6.8-.9 1.2-.2 0-.2-.1-.4-.1-.2.7-.5.9-.5 1.7-.5.5-.7 1.3-1.2 1.9v.5c-.8 1.3-1.9 2.4-2.1 4.4.1.2.4.2.7.2.3.6 1 .7 1.1 1.4 0 .2-.1.4-.1.7 0 .3.3.9.4 1.3.3.8.5 1.9.4 2.8-.1.6-.5 1.1-.5 1.5 0 .7.9 1.1 1.1 1.5.4-.1.9.1 1.3.1.1-.1.1-.4.2-.5-.1-.3-.4-.5-.5-.8.4-.3.1-.9-.3-1-.1-.3-.1-.4-.1-.7.6-.5.6-1.7.3-2.5 1 0 1.3-.7 1.9-1.1.2.2.2.5.5.5.5-.2.9-.6 1.5-.7.2-.3.3-.7.7-.7.1.3.4.4.8.4-.1-1.3 1-1.3 1.9-1.6-.1-.3-.3-.4-.2-.9.3-.2.9-.4 1.2-.1-.1.3-.2.5-.3.7-.2-.1-.2.1-.3.1-.3.5-.8 1-1.3 1.3-.4.3-.6.5-.9.9-.3.3-.7.5-1.2.6-.4.8-1.2 1.4-1 2.5-.4.1-.3.7-.7.8-.2-.1.1-.7-.3-.7-.4.1-.7.5-.7.7 0 .4.6.6.4 1.1.1.2.5.2.6.4 0 .8-.2 1.4-.1 2.1-1.4 0-1.4 1.4-2.4 1.7-.1-.2-.1-.4-.2-.6-.3-.1-.7-.2-1.1-.3-.6.6-1 1.3-.6 2.1.3.7.7 1.3 1.3 1.5.1.4.4.5.5.9.1.3-.2.9-.1 1.1 0 .3.2.4.3.7.3 0 .2-.4.5-.3-.2.3-.5.9-.3 1.3.4.1.7-.4 1-.7.2-.3.6-.6.7-.9v-.5c0-.1.2-.2.2-.3 0-.1-.1-.1-.1-.3 0-.2.1-.2.1-.3 0-.3-.1-.6-.1-.8.2-.3.4-.6.5-.9-.2-.2-.7-1.3 0-1.3.3.6.7 1 .6 2.1-.1.3-.4.4-.5.7.3.2.1.6.1.9.3.3.6.1 1 .3.4.2.5.5.9.5.3 0 .4-.3.7-.2.2.2.2.5.4.7.2.2.5.2.7.5-.7 1-1.7-.8-2.3-.9-.7.1-1.7-.2-2.1.3v.6c-.4.1-.5.5-1.1.5-.1.3-.1.9.1 1.1.3-.1.6-.1.9-.2.2-.2.2-.5.5-.7 0 0 .3 0 .4-.1.2-.1.1-.2.3-.2.3-.1.6-.1.9-.1 0 .1.4.3.2.3-.9 0-1.4.3-1.7.8.1.2.4.2.4.5-.1.1-.2.3-.3.3-.8-.3-1.5.4-2.2.6 0 .4.3.6.5.9-.5.3-.5 1.2-.7 1.7.4.1.6-.3.8-.1 0 .4-.3.7-.3 1.1 0 .4.5.7.5 1.1 1.2.3 1.7-.4 2.3-.9-.2.4-.1.7.1 1.1-.4.1-.6.3-.9.5-.1.3-.1.7-.4.8-.8-.2-1.8-.6-2.3-1.1-.5-.4-.4-1.1-.7-1.7 0-.2.2-.1.1-.3-.4-.8-1.4-1-1.8-1.8-.4-.1-.5-.1-.8-.1-.3-1.2.7-1.1.7-2-.6-.2-.6.1-1.1.5-.5.5-1 .9-1.2 1.6-.9.1-1.4.6-1.5 1.5-.3.3-.6.5-.7.9.3 0 .5.1.7.2-.3.4-.7.7-1.1 1 0 .5-.2.8-.3 1.2-.2.2-.4.4-.5.7 0 .2.2.2.1.5-.2.4-.1.7-.1 1.1 0 .4-.2.9-.2 1.4 0 .1.1.3.1.4 0 1-.5 1.7-.1 2.3.7-.1 1.1-.7 1.7-1.2.1-.7-.1-.9-.4-1.2-.1-.9.5-1.2.8-1.7-.2-.1-.3-.5-.4-.7.2-.2.3-.5.4-.7-.3-.1-.3-.5-.3-1 .3 0 .4-.3.8-.3.1-.7 1-.7 1.3-1.3.2-.4 0-.7-.1-1.3.1.1.4.1.6.1-.1.3.2.3.3.4-.2.5-.2 1.2-.5 1.7-.6.5-1.2 1-1.7 1.5.4.6.3 1.4.3 2.3.7.1 1 .5 1.7.6.2-.6 0-1-.2-1.5.1-.3.3-.5.4-.9.5-.2 1-.4 1.3-.9-.2-.2-.4-.7-.4-.9.3.1.4.3.7.4.2-.3.3-.6.7-.7-.1.3.4.2.4.5-.3.8-.1 1.4.5 1.5.2 0 .4-.1.6-.1.3 0 .5.2.7.3-.2.2-.1.7-.4.9-.3 0-.4-.2-.8-.1 0-.2-.1-.3-.1-.5-.7 0-.9.3-1.2.6-.3.3-.4.4-.3.9.1.6.4 1.5.8 1.7.5 0 .1-1 .5-1.1.4 0 .6.2.7.5-.2.2-.6.3-.7.5.2.6.4 1.2.7 1.8.3-.1.7-.4.4-.7.4-.6 1.5-1 1-2.1.1-.2.4-.2.6-.3.3.2.2.5.5.5.4.1.9-.3 1.1-.7.1-.3-.2-.2-.1-.5.2-.5.6-.7.9-1.1.2 0 .4 0 .5-.1.3-.5.1-.9-.1-1.3.2-.2.9 0 1.1.1 0 .4-.4.4-.3.8.1.4.6.4.5 1-.3.2-.9.1-1.4.1-.2.3-.6.7-.3 1.1.4.1 1.1-.1 1.3.1-.3.3-.7.4-1.1.5 0 .4-.3.5-.6.6-.5-.2-.8-.6-1.4-.5-.4.1-.4.8-.9.8v1.6c.1.1.4.2.5.4.3-.2.7-.1 1-.1.3-.1.6-.3.9-.4.7-.3 1.2-.5 1.8-.8.1.1 0 .5.1.7-.4-.1-.5.2-.9.3-.7.3-1.6.3-1.9.7 0 .6-.1 1.3.4 1.5.4-.4 1.3.2 1.7-.1v-.7c.4-.2.7-.6 1.1-.8 1 1-.9 1.4-1.1 2.2-.1.4.1.8.5 1 .2-.2.1-.5.3-.5.3.1.5.4.9.2.5.6 1.1 1 1.6 1.6.2.1.4.2.5.3 0 .2-.3.3-.1.5.2.2.7.2.9.4-.1.1-.3.2-.4.3-.6-.6-2-.5-2.7-1.1-.8.2-1 .5-1.6.3-.8-.3-1.2-1.9-2.3-.9-.3-.3-1-.1-1.2-.5.6-.3.6-.9.9-1.4-1.1-.9-1.8.8-2.8 1-.2-.4-1-.2-1.4-.4l.3-.6c-.3-.4-1.2-.2-1.4.1-.1.3.1.4.1.7-.2.2-.5.3-.9.3 0-.8-.5-1-.7-1.6h-.7c-.2.7.5 1 .7 1.6.1.2 0 .5.1.8.2.1.7 0 .7.3-.2.4-.3.9-.6 1.1-.8-.7-1.7.1-2.3.5.1.3 0 .3.1.6.5.1.6.2 1.1.1.3.3.6.3.8.8.1.4-.1 1 .4 1.1.3-.1.2-.5.4-.6.5-.1.6.2.9.2.4-.3-.2-.9.5-1 .2.1 0 .6.2.8.8-.1 1-1.3.9-1.9.9 0 .8.7 1.9.6.2-.1.3-.3.5-.3-.1-.5.8-.9.9-.3-.3 0-.4.2-.6.4v.7c-.8.1-1.9 0-2.2.6.6.2.6 1.1 1.5 1.1-.1.4.5.4.6.8-.3-.1-.3-.4-.8-.3-.6-.4-1.1-.9-1.8-1.1-.2.3.1.4.1.7-1.6-.1-2.4.5-2.5 1.8.3 0 .3.4.3.7-.7-.1-.9.2-1.3.5 0 .5-.3.7-.3 1.1 0 .6.8.7.7 1.3-.8-.2-1.3-.9-1.3-1.7.4-.4.6-1 .9-1.6-.2-.2-.2-.6-.6-.7-.1.1-.1.3-.3.2-.1.2-.2.5-.4.6-1-.1-1.6.2-1.9.7 0 .6.4.9.5 1.5.4.3.4.9.7 1.3.3.3.7.6.9.9.1.1.2.4.3.5.1.2.2.3.3.5.3.6.3 1.1.3 1.7 0 .7.4 1.2.5 1.9.4 0 .3-.4.6-.5 0 0 .5.2.6.1.3.4.5 1 1.1 1.1.2-.3-.1-.5 0-.8 0-.3.3-.5.3-.8 0-.3-.1-.5-.1-.7.2-.1.2-.3.5-.3.2.1.3.4.4.6-.1.2-.3.4-.3.7.4.3.8.6 1.5.6.3.5 1 .5 1.3 1 .1.3.1.5.2.9.5.1.6.5.9.9-.8.4-.2 1.3.3 1.5.5 0 1.1 0 1.3.2-.4.6-1.6 1.1-1.1 2.2.4-.1.7-.3 1.3-.3-.1-.6-.3-1.4.3-1.5.4.1.4.4.4.7.3.2.8.1.8.6.2 0 .3-.1.5-.1-.1.2.1.5.1.7-.1.2-.5.2-.6.5-.1.1.3.3.1.7.3 0 .5 0 .7-.1l.9.9c.1 1.1 1.3 1.2 2.1 1.6.2-.9-.3-1.6-.3-2.3 0-.6.4-1.3-.1-1.7.2-.2.5-.4.8-.7-.2-.9-1.1-1.2-1.7-1.7.3-.1.5-.3.7-.4 0-.8.9-1.1 1.3-1.7.1-.1.2-.4.3-.5.2-.2.3-.3.3-.5.1-.2-.1-.4-.1-.5 0-.1.2-.3.3-.4.1-.1.1-.3.3-.4.5.3 1.1.4 1.5.8-.1.5.5.5.6.9.1.3-.2.8-.1 1.1-.3.1-.6.2-.9.2-.4.6-1.5.5-2.2.8-.2 1 .6 1 .9 1.7.1.2 0 .3.1.4.1.2.5.3.4.6.2 0 .3-.2.5-.2.1.9.5 1.4.9 1.9-.2.3-.3 1-.2 1.3.5.1 1-.3 1.5-.3.1-.2.2-.5.3-.7-.4-.3-.8-.5-.7-1.3.2-.3.6-.5.9-.7-.1-.5.3-.6.4-.9-.3-.3-.4-.9-.3-1.3.1-.3.7-.6.9-.9.2-.3.3-.6.4-.8.2-.3.4-.4.5-.7.7-.4 1.3-.9 1.9-1.3-.1-1 .5-1.6 1.1-2-.2-1 .5-1.9.7-2.7.1-.3 0-.5.1-.7.1-.4.2-.6.5-.7.2.4.6.5.9.6.3 1.3-.6 1.4-1.5 1.6 0 .1-.2.2-.2.3-.2.7.3 1.4.7 1.6-.4.3-.5.9-1.3.7 0 .3-.3.3-.3.5.2.3.1.6 0 .9-1.1.5-1.2 2.1-2.2 2.7-.2.3 0 .6-.1.9-.1.4-.5.5-.6.9-.1.4.1.7 0 1.3-.6.1-.9 1.2-.4 1.7 0 .4 0 .7.1.9.5.1.5.7.8 1 .3 0 .6.1.8-.1 0 0 0-.1.1-.1.1-.5-.3-.3-.3-.7.1-.5.5-.7.5-1.2.2.5.9.6 1.4.7.6-.6 2-1.1 3-.6-1.3.1-2.7.6-3.5 1.4.3.1.4.4.7.6.4-.1 1.1 0 1.5.2-.3.2-.4.4-.7.6h-.3c-.4.5-1.2.7-1.9 1.1-.3 0-.2-.3-.5-.1-.8.3-1.9.4-2.5.9-.4-.2-1.1.1-1.4.3-.3.6.1 1.1 0 1.5-.1.5-.6.8-.7 1.3.2.2.4.4.5.7.7-.1 1.4 1.1 2.1.3-.1-.2-.4-.4-.4-.7.3.1.3-.2.5-.3.3.3 1 .1 1.5.1.5.4.7.7 1.3.6.5-.1.8-.8 1.3-.9.1.1.3.2.5.3.2-.5 1.1-.7 1.3-.1.3-.2.8-.2 1.2-.5.5-.3.7-.8 1.1-.8.2 0 .6.2.7.5-.8-.1-1.4.8-1.6 1.3-1 .3-2.3.2-3.1.8.1.2.2.5.1.9.1.2.4.7.1.9-.5-.1-.4-.7-.9-.5-.4.5-.9.9-1.3 1.3-.2.7 0 1.9.7 1.9.3 0 .3-.3.7-.4.3 0 .4.1.7.1.4-.3.9 0 1.3 0 .1 0 .1-.1.2-.1.6-.2 1-.3 1.5-.5 0-.3-.3-.4-.4-.7.2-.2 1-.3 1.3-.1-.3 1.4-1.3 2.1-2.3 2.7-.4-.3-.9.2-1.3.5.1.4 0 .7-.3.7-.3-.1-.3-.5-.5-.7-.4-.1-.8 0-1.1.1-.1.4.1.8.1 1.4-.3-.1-.3.2-.5.3-.1.4-.4.7-.7 1.1-.3.5-1 1-.6 1.7 1-.1.9-1.3 1.8-1.5 0 .8.1 1.6-.3 2.1.2.1.5.3.5.6-.4-.1-.5.2-.9.1-.2 0-.1-.4-.4-.4-.4.3-.6.7-.7 1.2.4.6.9 1.1 1.5 1.4.3-.2.4-.6.7-.7.5.2.7.1 1.3.1.2-.5 1-.8.7-1.6.3-.2.6-.4 1.2-.3.3-.3.5-.7 1.1-.8.5-.1 1.2.1 1.7 0 .3-.1.4-.3.7-.4.1.4.2.7.1 1.2.7-.1.7-.7 1.1-1 0-.6.2-.9.6-1.1 0 .8.9 1.2 1.8 1.3.3.4.9.6 1.5.8.1-.4.4-.7.7-.8 0-.8.6-1 .9-1.5 4.8-.6 9.6-1.3 14.5-1.9 0-.4-.4-.8-.3-1.1.5 0 .3.4.5.7.3 0 .5-.1.7-.1.2-.3.2-.6.1-1 .2-.4.4-.8.4-1.3-.3-.2-.6-.4-.7-.8.6-.1.7-.8 1.4-.9.1-.3.3-.4.5-.6-.1-.4.2-.5.5-.6.1.1.1.3.4.3.3 0 .2-.3.5-.3.4.1.5.4.9.5.2-.4.3-1 .3-1.7.3-.6.8-1.1.8-1.9.3-.4.7-.8 1-1.1-.3-.4.3-.7.4-1.1-.3-.5.1-.9-.1-1.5.3-.5.5-1.1 1.1-1.3.1-.5-.3-.6-.1-.9.1-.1.3.1.5 0 .4-.5.9-.8 1.5-1 .1-.3 0-.7.2-.9 0 .2.1.3.3.3.3 0 .4-.5.7-.3-.3.6-1.3.9-1.4 1.6-.2.8.1 1.7.6 2.1.6-.1.3-1.1.7-1.5.4 0 .7-.1.9-.1.1-.7.8-.9 1.1-1.3-.1-.3-.1-.3 0-.7.3-.2.5-.5.7-.8 0-.5.2-.7.2-1.3.9-.9 1.4-2.3 2.1-3.4-.3-.4-.4-1-.9-1.2-.2.1-.4.1-.5.1-.2 0-.4.2-.5.2 0 0-.2-.1-.3-.1-.2 0-.2.1-.5.1-.2-.2-.8 0-.9-.3.3-.2 1.1-.1 1.4-.3.1-.3.3-.5.5-.7-.3-.5.2-1.4-.3-1.9-.8-.2-1.4-.7-2.1-.9.5-.5 1.4 0 1.9.1.1.4.6.5.7 1 .5.1.7.4 1.2.3.5-.2.5-.9.5-1.4-.6-.6-.8-1.5-1.6-1.9-.1-.6-.5-.8-1-.9-1.1-.2-2.3 0-3.5-.1-2.7-.1-5.4.1-8.2-.1-6.7-.3-13.7-.1-20.6-.3-1.6-24-3.5-48-4.7-72.3-.2-5.3-.8-10.7-1-16C143.4.1 72 .2.7.3.3 12.1.2 24.1 0 36.2c.3.2.5.3.9.2z"/><path d="M198.1 17.1c-.5.1-.4-.2-.8-.2-.1.7-.3 1.4-.3 2.4.4 0 .5.4.9.5 0-.4.5-.4.7-.7 0-.6-.3-.9 0-1.4-.2 0-.3-.3-.5-.6zM187.2 29.8c-.8-.1-.8.8-.4 1.2.3-.1.5-.3.7-.5-.2-.2 0-.6-.3-.7zM180.6 33.1h-.7c-.1.4-.1.6 0 1 .5-.2.7-.4.7-1zM183.4 59.2c.4-1.1-.6-1.6-.6-2.7.5-.1.6-.3.9.1 0-.3.3-.3.3-.6-.1-.4 0-.9.1-1.3-.4-.3-.8-.7-1.1-1.1.5-.2 1.1.1 1.5-.3.2.1.4.3.5.5-.5 1-.7 2.7.5 3.1.2-.9-.1-2.2.7-2.3.4.2.9.4.8 1.2.2.1.4.3.8.3.1-.2.3-.3.3-.5-.4-.4-.1-.6-.1-1.3-.4-.5-.5-1.4 0-1.9-.1-.3-.2-.6-.1-.9-.8-.1-1.2-.6-2-.7-.6-.7-.9-1.8-.7-3.1-.5-.1-.8.4-1.3.5 0 .5-.3.7-.5 1 0 .7-.3 1.2-.3 1.9-1.2 1.8-3 4.7-1.8 7.5 0 .7-.7 1.5-.7 2.3 0 .2 0 .7.3.9.3-.1.5-.4.5-.8.7-.7 1.2-1.4 2-1.8zM187.7 57c.2.1.6 0 .7 0 0-.4.1-.4.1-.7-.6-.1-.7.3-.8.7zM179.5 67.2c.2.1.5.2.7.3 0-.5.3-1.1.1-1.5-.6.1-.7.6-.8 1.2zM181.1 68.4c.1-.2.2-.4.4-.5-.3-.4-.9-.5-1 .1.2.2.3.4.6.4zM183.5 83.4c-.2-.3-.5-.5-.8-.6-.4.5.1 1.1.6 1.3 0-.3.2-.4.2-.7zM182.4 83.9c-.2.5-.2 1 .3 1.2.2-.3.2-1.2-.3-1.2zM256 97.5c0-.7.4-1.2.5-1.7v-.7c.1-.7.6-1.3.8-1.9v-.5c0-.2.2-.4.3-.6.1-.3.1-.6.1-.9.1-.8.2-1.3.1-2.1-.2-.4-.6-.4-1.1-.3.1.3.1.6.3.7-.3.4 0 1-.1 1.5-.1.3-.3.4-.4.6.4 1.1-.5 1.9-.5 3-.3.8-.9 2.1-.5 3.1.2 0 .3-.1.5-.2zM187.9 97.5c.1-.8-.3-1.1-.7-1.5-.3 1.2 0 2.6 1.2 2.9.1-.7-.1-1.2-.5-1.4zM190.1 96.6c-.4-.5-1.2-.5-1.3.3.2.3.4.9.3 1.3.1.3.5.3.4.8.2.1.5.2.7.3.1-.1.2-.3.4-.3-.5-.4-.8-.8-.7-1.9 0-.2.2-.3.2-.5zM192.4 97.5c0-.6-.8-1-1-.3.2.5.5.5 1 .3zM191.5 98.5c0-.4-.2-.6-.2-.9-.6.1-.3 1 .2.9zM245 118.7c.5 0 .7-.2 1.2-.1.6-.4 1.2-.8 1.3-1.7.2-.1.3-.2.5-.3.1-.5.5-.8.7-1.3.1-.1 0-.3.1-.5.2-.4.5-.6.7-1 .1-.2.2-.6.4-.9.2-.3.3-.6.5-.9.4-1 .5-2.1.7-3.1.1-.3 0-.6.1-.9.1-.6.6-1.2.6-1.9.9-1.3 1.8-2.7 2.2-4.5.7-.8.8-2.3 1.4-3.2-.1-.2-.3-.3-.5-.3 0 .1-.1.1-.1.1-.2.2-.1.4-.2.7-.3.8-.9 1.3-1.2 2-.2.4-.1.7-.2 1.1-.3 1-1.1 1.5-1.2 2.6-.8.6-1.1 2-1.3 2.9-1.4.5-1.1 2.6-1.5 4.1-.1.2-.3.3-.3.7-.5.6-.8 1.2-1.3 1.8-.1.1-.2.1-.4.1.1.5.6.5.7.9-.2.4-.8.4-1.3.6.1.5-.2.7-.3.9v.5c-.1.3-.5.5-.3.9-.4-.1-1 .3-1 .7zM191.4 101.2c.1.2 0 .4.1.7.1.4.6.8.9 1.1.5.4 1.3.6 1.8.9.2.1.2.3.3.3.2 0 .4-.1.6-.3.1-.4-.2-.6-.1-.9-.5-.1-1-.3-1.4-.3-.4-.3-.8-.7-1.2-1 .1-.6.2-1.3.3-2-.2-.1-.3-.2-.5-.3-.2.5-1.2.1-1.5.6 0 .3.2.4 0 .7.3.1.6.2.7.5zM153.9 102c-.2-.3-.7-.3-1-.6-.4.6.3 1 .8 1.1.1-.2.1-.4.2-.5zM197.2 109.1c.3.1.6.1.7.3.2-.2.5-.3.7-.5.2.3.8.3.7.9.6.2.8 0 1.4-.2 0-.4 0-.6-.1-.9.2-.1.3-.2.5-.2 0-.3.2-.4.2-.7-.4-.2-.5-.7-1.1-.7-.4-.6-.5-1.6-1.5-1.6-.1.3-.3.4-.4.7.2.1.3.3.4.5-.1.1-.3.2-.3.4-.4-.1-1-.1-1.4-.1 0 .5.2.7.3 1-.2.1-.3.3-.3.5.2.2.2.4.2.6zM198.9 111.3c.2-.1.5-.1.5-.3-.1-.5-.9-.1-.5.3zM201.5 112.1c.4-.2.5-.6.7-1.1-.2-.1-.4-.2-.7-.3-.3.4-.1 1 0 1.4zM197.5 110.9c0 .5-.3 1-.1 1.5.3 0 .3-.3.7-.3 0-.5.1-1.2-.6-1.2zM175.1 112.9c.2-.2.4 0 .6-.1-.2-.9-.8-1.4-1.8-1.5-.1.6.3.7.6 1 .2.3.4.5.6.6zM200.9 112c0-.2-.2-.3-.3-.5-.4 0-.5.3-.7.5.1.2.3.2.5.3.3 0 .3-.3.5-.3zM206.2 111.5c-.9-.3-1.1.8-.6 1.1.4-.3 1-.5.6-1.1zM202 113.1c-.4 0-.6-.4-1-.4-.2 0-.5.2-.7.1 0 .2-.1.3-.1.4.4.5.7 1 .9 1.7.4.1.9 0 1.1.3.2-.5.3-.8.2-1.4-.1-.3-.4-.4-.4-.7zM243.9 114.9c-.1-.5-.3-.8-.7-.9-.1.4-.5.4-.6.7.3.6.8.3 1.3.2zM241.3 114.6c-.3 0-.4-.1-.7-.2-.4.4.2.7.4.9.1-.3.4-.4.3-.7zM239.9 117.5c.4.5.8-.1 1.3-.1.2-.7-.2-1.3-.9-1.3.2.7-.1 1-.4 1.4zM203.1 119.7c-.5-.5-.7-1.3-.9-2.1-.6-.2-1.4.1-2.1-.1-.1.5-.2 1-.4 1.4.1.1.2.2.3.5.4 0 .7-.2 1.1-.2.5.4 1.1.7 1.3 1.3.1.2 0 .5.1.7.4.1.9-.2 1-.6 0-.1-.2-.1-.2-.3-.1-.2-.1-.4-.2-.6z"/><path d="M200.9 120c-.3.1-.4.1-.7 0-.2.3-.5.6-.8.7.3.7.8 1.1 1.5 1.3.7-.6.6-1.4 0-2zM201.7 121.2c-.3 1.2.3 1.7.7 2.4.4-.1.7-.4.7-.9-.5-.4-.5-1.4-1.4-1.5zM199.7 121.9c-.2.3-.1 1-.1 1.4.2.1.4.1.6.2.2-.5-.1-1.1-.3-1.5-.1 0-.1-.1-.2-.1zM201.5 123.5c-.2-.3-.3-.8-.7-.9-.5.5.4 1.2.7.9zM209.4 126.2c-.3-.6-.4-1.3-1.4-1.3.2.7.5 1.2 1.4 1.3zM207.8 126c0 .3-.3.3-.3.6h.4c0-.3.1-.6-.1-.6z"/>
</svg>
