<svg xmlns="http://www.w3.org/2000/svg" viewBox="0 0 248 136.5"><path d="M12.7 69.2c11.6.5 23.5.7 35.1 1.3v2.8c.9 0 2.1-.4 3.1-.5.5-.8.9-1.9 1.5-2.7 3.3 0 6.4.3 9.3.8.3.1.3.3.6.4.4.1 1-.1 1.5 0 .3 0 .3-.4.6-.4 1.2-.4 2.2-.4 3.7-.3 1.2.1 2.6-.1 3.8 0 4.2.3 9 .1 13.6.3 4.4.2 8.8.1 13 .3h2.9c5.7.3 11.2.1 16.8.4 0 .3-.1.7.1.9 9.6-.3 19.5-.3 28.9-.6 0 3.2-.1 7.1.1 10.5.9-.3 1.7-.6 2.5-.9.1.2-.3.2-.1.3.1-.1.6-.3.6-.3 0 .7.2 1.3.2 2.1 0 .9-.3 1.8-.2 2.8.1 1.1-.1 2.8.1 3.8.1.6.7 1 .9 1.5.7.3 1.2.7 1.6 1.2.7.2 1.2.6 1.9.9.8.7 1.9 2.2 2.9 3 .1.1.3 0 .4.1.4.3.6.8 1 .9.2.1.9 0 1.3-.1.7-.1 1.3-.9 1.7-1.1.3.2.6 0 .9 0-.1.2 0 .5.1.7-.7 1.1-1.7 2-2.3 3.2.2.6 1.2.4 1.6.8.9-.1 1.7.7 1.8 1.2 0 .3 0 .9-.1 1.1-.1.3-.4.6-.6.8.2.4.3.9.4 1.4.1.5.3.9.4 1.4.1.7.1 1.4.2 2.1.2 1.9.5 4.1.7 5.8.7.1 1-.2 1.5-.4.1-.3.2-.7.3-.9-.3-.6-.7-1.2-1-1.8-.1-.3-.4-.6 0-.8 1 .3 1.8 2.1 3.1 1.1.3-1-.6-1.7-.7-2.5-.1-1 .2-1.7.3-2.5 0-.3-.1-.6.1-.9.5.5.1 1.1.1 1.6-.1 1.1.2 1.7.6 2.3.1.2.1.4.3.6.1.2.3.3.4.5.1.2 0 .4 0 .6.1.4.3.7.3 1.1-.4.3-.9.4-1.5.4-.3.2-.9.4-.9.8.9 0 1.6.3 2.1.7.3.5.4 1.2.7 1.8.2-.1.4-.1.6-.1 0-.7.4-1.3 0-2 .5-.1.7-.6 1.3-.8.6-.2 1.3 0 2-.2.5-.9-.1-1.4-.1-2.5.4 0 .7 0 1 .1 0 .2.1.3.1.5.5.4.6 1.1 1.1 1.5.4-.3.2-1.1.4-1.6.3-.1.5-.5 1-.4.1-.3.1-.5.3-.7-.3-.6-.8-1.2-1.2-1.8-.4-.5-1.1-1.1-.9-2 .8-.1 1.2.6 1.8.4.3-.6.2-1.7.8-2.1.5.2.5.8.8 1.3.2 0 .5 0 .8.2-.2-1.6-1.3-2.3-1.9-3.5.1-.1.3-.1.2-.4-.1-.1-.2-.2-.2-.5.1-.3.3-.6.3-1.1.4-.2.5-.9.9-.8-.1 1.3.6 1.8.6 3.1.4.2.6.4 1.1.5.1.5.6.6.9.9.1.5.4 1 .6 1.5.3.7.5 1.5 1.2 1.5.2-1.3-.3-2.2-.3-3.1-.3-.2-.7-.4-1.1-.5.3-.3.4-.6.8-.6.5-.1 1.1.6 1.8.5.5-.1.3-.5.9-.6.3.6 1.1.3 1.4-.1-.5-.7-1.3-1-1.6-1.8.9-.7 1.6.5 2.8.3.4.2.4.9 1 .6.4-.6.6-1.4.5-2.5.3-.3.6-.6.6-1.1 0-.3-.4-.7-.4-1.1 0-.2.2-.3.4-.6.3.3.8.5.7 1.2.2.1.3.3.4.4h1.3c-.2-.2.1-.5-.1-.7-.2-.1-.2-.4-.2-.7 1-.3.2-1-.4-1.1-.2-.4-.5-.7-.7-1.1.3.3.7 0 1.1 0 0-.3.1-.5.2-.7.2.1.5-.1.8 0v.7c.5.4 1.2.6 1.8.3.4.4.7.9 1.3 1.1-.5.5-1.1 1.1-1.2 1.7.5.3.9-.2 1.1-.5.4-.4 1-.9.8-1.8-.1-.4-.5-.5-.3-.9.1-.2.2-.1.5-.3.5-.2 1-.2 1.3.2 0 .4-.4.4-.6.7.1.1.1.3.1.6.3.1.8.3.8.9-.2.4-.9.3-1.1.7-.2 0-.3.1-.5.1-.2.4-.8.5-.9 1.1.6.5 1.3 0 1.8-.3.2.4.9.5.7 1.3-.5.3-1.4.2-2 .4.2.4.5.7 1.3.6 0 .2.1.3.1.5-.3.3-.7.3-.9.6 0 1.7-.2 3.7-.1 5.4-.2.4-.8.6-1 1.2-.2.5 0 1.3-.2 1.8-.1.2-.3.3-.3.5-.6.3-1.1.7-1.6 1.1.4.4.8.3 1.3.1.2.4.5.6 1.1.5.3-.4.8-.7 1.3-1.1.4-.3 1-.8 1.5-.9.5-.1 1.1.1 1.8-.1.1-.4.1-1 .2-1.4.2.2.4-.1.6 0 0 .5.2.9-.1 1.3.9 0 1.5-.2 2.4-.2.2-.9.8-1.4 1.2-2.1.1.1.2-.1.4 0 .1.9-.2 1.3-.2 2.1.9.1 1.5-.1 2.1-.2.9-1 2.2-2 3-3.2.4-.7.6-1.2.5-2.3.7-.3 1.3-.7 2-1.1.3.2.8-.2 1.1.1 0 .6 0 1.3.1 1.8.6.2 1.1-.3 1.6-.7.3-.3.7-.8 1.1-.9.7-.2 1.8 0 2.6.1.2 0 .5.1.7.1.2-.1.3-.3.6-.4.4-.2.9-.1 1.3-.2.5-.2.8-.8 1.2-.9.7-.1 1.2.4 1.4.7-.4.3-1.1.5-1.6.7 0 .5.1 1.2-.1 1.5.7.2.8-.4 1.1-.8 1-1.2 2.7-1.3 3.9-2.3.7 0 1.4-.3 2.1-.4.9-.1 1.8 0 2.6-.1.3 0 .7-.2 1.1-.3.4-.1.8-.1 1.1-.2.3-.1.5-.3.8-.4.8-.1 1.6.1 2.4 0 .2 0 .3-.2.5-.2 1-.2 2 0 3.1-.1.4.2.6.6 1.1.7.2-.3.5-.7.9-.8.2-.1.5-.2.6-.1-.2.3-.4.5-.5.9.3.3.8.2 1.1 0 0-.6.5-.9.6-1.4.1-.8-.4-1.5-.3-2.3-.4-.4-.9-.2-1.6-.2-.4-.3.1-.8-.2-1.1-.3-.2-.8.4-1.1 0 .1-.7.6-1 .9-1.5.2 0 .4 0 .5-.1.3-.2.3-.8.4-1.3.1-.2.2-.4.2-.6-.1-.4-.6-.4-.4-.8.3-.3.7.2.9.3.3-.1.4-.4.8-.4.2.7.6 1.5.7 2.5.1.5 0 1.2.1 1.8.1.5.2.9.2 1.3 0 .2-.1.3-.2.5-.1.5-.1 1-.2 1.5s-.8 1.2-.8 1.8c0 .1-.1.5.1.6.4.2.7-.4.9-.8.2-.4.5-.8.6-1.3.1-.3-.1-.8 0-1.1 0-.3.2-.5.2-.7 0-.3-.1-.6-.2-.8.5-.5.1-1.4.1-2.3-.1-.8-.1-1.8-.2-2.8-.1-1.1.2-2-.3-2.4-.4-.2-.9 0-1.1.2-.1-.5-.3-.5-.8-.5-.3.4-.6 1.1-1.3.9-.1-.8.9-1.4 1.1-2 .1-.3-.1-.7 0-1 .1-.4.6-.7 1-.5.3.2.2.7.2 1.1.1.3.3.4.3.9.2.1.4.2.6.2.2-.7-.2-1.6-.1-2.1-.7-1.4-1-3.2-1.5-4.8-.5-1.5-1.1-3.1-1.8-4.5-1-2.1-2.2-4.2-3.5-6-.4-.6-.9-1.4-1.3-1.8l-.9-.6c-.9-.7-1.9-1.6-3-1.9-.4-.1-.9-.1-1.3-.2s-.8-.4-1.1-.4h-.4c-.2-.1-.4-.3-.7-.3-.2 0-.4.1-.6.1-2.2.1-4.8-.4-5.2 1.2.1 0 .2.2.2.3.2.2.4-.1.6-.1-.1 1.1 1.1 1.1.9 2.1.2.3.5.4.8.7.3.3.5.8.9.9.5.1.9-.3 1.3-.6.4 0 .7-.1.6-.6-.3-.2-.5 0-.8.1-.2.1-.5.4-.6.4-.3 0-.6-.1-.6-.4 0-.2.2-.3.3-.6.1-.2.3-.4.4-.5.6-.7 1.3-.9 2.5-.8.6.1.9.3 1.4.6.8.4 1.1.7 1.7 1.3.7.7 1.1 1 1.3 1.9v.5c0 .2.2.3.2.5.6 2.7.2 6 .4 9.1.3.3.4.8 1.1.6.2-.3-.2-.6-.3-1-.1-.6.1-1.4 0-2.1.3-.6.7-1 1.7-.8.5.5.6 1.4 1.4 1.5.4.1.7-.4 1.1 0-.2.6-1.3.7-1.2 1.3.3.2.9.2 1 .6-.4 1.8.2 3.7.1 5.7-.8.7-1.2 2-2.1 2.6-.3 0-.4.2-.7.2-.4.4-1 .5-1.6.7-.6.2-1.2.3-1.8.5-1.2.3-2.5.5-3.7.8-.9 0-1.7.3-2.5.5-.6.1-1.4.2-2 .5-.6.3-1.2.9-1.8 1.5-.3.2-.6.4-.9.7-.4.3-.7.6-1 .7-.8.2-1.9.1-2.8 0-.5 0-1.1-.1-1.6-.2 0-.3-.1-.4-.1-.6 1.2 0 2.9.1 4.1-.3-1.7-1.6-4.9-.8-7.4-1.3-3-.5-5.4-2.1-8.1-2.8-.8-1.3-2.1-2.1-3-3.4.1-.3 0-.7-.1-1 .2-.6.6-1 .6-1.8.5-.3.4-1.3.1-1.6-.1-.6.1-1 .1-1.4-.1-.9-.9-1.4-1-2.3.2-.2.4-.4.5-.6-.4 0 0-.4-.2-.6-.8-.3-1.4-.9-2.5-1-.7-.1-1.5.1-2.4-.1-.9-.7-1.8-1.3-2-2.6-.3-.2-.4-.6-1-.6 0 .8 1 1.4.4 2-.5-.2-.9-.6-1.4-.8-.6-1.4-2-2-2.8-3.1.2-.6 1-1 1.6-.6.1-.4.4-.6.5-1.1.3-.1.6-.4.7-.7.3-.5.6-.7.9-1.1-.1-.5-.7-.4-1-.7-.1-.1 0-.3-.2-.5.2-.2.6-.2 1-.1.7 1.2 1.5 2.3 2.3 3.4-.2.2 0 .4 0 .8-.4.3-1.4.8-.8 1.5.6 0 .9-.7 1.4-.8.4-.1.9.1 1.3-.2-.1-.4-.3-.7-.3-1.1-1-.6-1.5-1.3-2.1-2.3-.4-.7-1.1-1.2-1-2 0-.3.3-.5.3-.8 0-.5-.5-1.3-.8-1.8-.2-.3-.6-.5-.9-.8-.2-.3-.4-.8-.6-1.1-.6-1.1-1.4-2.3-2.3-3 .1.4.3.7.1 1.1-.6-.1-.6-.8-.9-1.2-.1-.2-.4-.2-.4-.4.3.1.8 0 .9-.3 0-.4-.2-1.3.1-1.8-.2-.7-1.1-1-.6-1.7-1.1-.4-1.8-1.2-2.5-2.1 0-.7-.2-1.1-.6-1.4-.6.3-.8 1.1-1.4 1.4-.8-.1-.5-1.4-1-1.8-1.1-.2-2.3-.9-3.5-1.1 0 0-.1 0-.1-.1-.7-.3-1.5-1.2-1.5-2-.2-.2-.4-.3-.5-.6.2-.1.1-.5.1-.7-.5.1-.9-.1-1.3-.1-.2 0-.5.1-.7.2-.2.1-.7.6-.6.8.6.2 1.3 0 1.9.3.5.6.6 1.5 1.1 2.1.3.3.7.3.8.8-.5.6-1.2 1.4-2.2 1.1.2-.3.1-.7-.1-1-.4-.1-.8.2-1.1.4-.3.2-.7.4-.8.6-.2.4-.1.8-.4 1.3h-.5c0-.5-.3-1-.1-1.5-.8 0-1.1.6-1.6 1.1-.1.3.2.5.1.6-.1.1-.3.1-.4.2-.2-.3-.4-.6-.5-.9.2-.5.6-.7.8-1.2-.1 0-.4.1-.4-.1.5-.2.8-.6.9-1.2-1.1-.2-1.1.7-2.3.5-.4-.5-1.2-.7-1.8-1.2.1-.3.1-.5.1-.9.4-.2.7-.4.9-.9-.9-.3-1.3 0-2.4 0-.3.2-.5.9-.8.9.1-.4-.2-.5-.1-.9.1-.2.3-.3.3-.6.1-.4-.2-.8-.2-1 .7-.4 1.7-.6 1.5-1.7-.6-.2-1.4-.2-1.8-.4.1-.5-.1-1.2.3-1.6.7.4 1.6.6 2.1 1.1.5 0 1.2.1 1.5-.3 0-.5-.4-.7-.7-.9 0-.5-.6-.8-.5-1.3.5-.2.6.1.8.4.2.3.5.4.6.7.5-.1.8.2 1 .4.1.6.4 1.1 1.1 1.1.1-.3-.1-.8-.1-1.3-.3-.4-.8-.7-.8-1.3 0-.2.2-.5.1-.7-.2-.5-1.3-1-1.4-1.5-.1-.5.5-.6.5-1.1.7-.6 1.2-1.4 2.1-1.9.5.1.6.7.6 1.4.5.6 1.1 1.3 2.3 1.2 0-.4.2-.5.3-.8-.2-.2-.3-.5-.5-.7-1.7.1-1.3-2.5-.2-2.8.9.6 1.6.2 2.3-.3 0-.7.6-1.3 1.4-1.2 0-.4.4-.4.6-.6.3.1.8 0 1.1.1.2-.3.5-.7.5-1.2-.3 0-.6-.1-.8 0 .5-.4-.4-.7-.5-1.1-.3.1-.6-.1-.9 0-.5.3-.5 1-.9 1.2-.1-.1-.3-.1-.4-.1 0-.4 0-.5.1-.6.3-.5-.1-1.4.1-2-.6-.4-1.9-.1-2.3-.8.1-.1.1-.2.1-.4.8-.2 1.4.3 1.9.3.8.1 1.8-.2 2.6-.4.9-.1 1.4-.2 2.1-.4.5-.2 1-.4 1.5-.5.6-.1 1.6 0 2.1-.2.4-.1.6-.6 1-.7.5-.1 1.1.1 1.6 0s.9-.4 1.4-.4c.1 0 0-.3.2-.3.3-.3 1-.7 1.5-1.3.3-.4.5-1.1 1.1-1 .3 0 .5.3.5.5.1.4-.3.6-.4.9.2.3.2.4 0 .8.4 0 .5.1.9-.3.3-.9 1.4-1 1.4-2.2.5-.6 1.1-1.2 1.7-1.8.2 0 .3-.1.5-.1.5-.5.5-1.1.1-1.6s-1.1-1-1.5-1.7c-.4-.7-.3-1.2-.8-1.6-1 .2-1.6.8-2.4 1.4-.6.5-1.3 1-1.3 1.5.1.6 1 .6 1 1.4-.1.6-1.3 1-1.8.4.2-.4.5-.7.4-1.4-.3-.2-.8-.4-1.2-.3-.7-1.2-1 .3-1.7.8-.4.2-.6.1-.9.4-.1-.1 0-.4-.2-.4-.3.2-.7.4-1.1.4.1-.5-.5-.5-.6-.8.2-.5 0-1-.1-1.5.7-1.3 2 .9 3 0-.1-.7-.7-1-1.1-1.3-1-.1-2.1-1-3.2-.4-.4-.3-.5-.8-.9-1.1-.3.3-.8.4-1.1 0 .2-.4.4-.9.1-1.4.3-.5.4-1.2.4-2.1.5.3 1 .9.8 1.6.3.3.5.7.6 1.2.6.2.7 1.2 1.4.8.2-.6-.5-1.1-.3-1.8-.4-.7-.7-1.5-.9-2.3-.4-1.2-.9-2.3-.8-4.1-.2-.1-.4-.1-.5-.3 0-.5 0-.9-.1-1.2-.9-.1-.7.9-1 1.4-1.6.1-2.4-.7-3.3-1.3.4-.2.9 0 1.3-.1.3-.1.5-.3.8-.3.7-.1 1.3 0 2-.3.4-1-.3-1.9-.1-2.8.1-.3.2-.4.2-.7 0-.2-.3-.4-.3-.6-.5 0-.8.3-.9.6-.4-.3-1 0-1.4.1-.4-.2-.8-.5-1.2-.7-.2-.1-.4-.1-.5-.2-.2-.2-.3-.4-.6-.5-.4-.1-1.2 0-1.8 0-.7 0-1.3 0-1.8.1-.6.1-1.3.5-1.9.7-.4.1-.7.2-1 .3-.4.1-.8.1-1.1.2-.5.1-.9.5-1.4.6-.9 1.2-2.5 1.7-2.8 3.5-.3.2-.5.6-1 .7-1.8-.4-4.1-1.5-6-.5l-1.8 1.8c.1.4-.1.7-.1 1.1-.1 1 .2 2.1-.2 3-.4-.2-.8.1-1.1.1-.6 0-1.2-.5-2.1-.3-.2 0 0 .3-.1.3-1.4.9-2.4 2.2-3.6 3.3-.5-.4-.7.3-1.3.4-.2 0-.4-.1-.6-.1-1.2-.1-2.4 0-3.5-.1-12.3-.6-24.7-.6-37-1.1h-1c-13-.6-26.1-.6-39.1-1.2h-1c-11-.5-22-.5-33-1-6.8-.3-13.7-.3-20.4-.6C11.1 29.6 5.5 48 0 66.4c.4.9.8 1.9 1.1 2.8 3.8-.4 7.7-.2 11.6 0z"/><path d="M191.1 18.8c-.1-.5-.4-.9-.9-1.1-.1.8.1 1.2.9 1.1zM175 47.4c.1.3.4.4.6.6.2-.3.8-.6.9-1.1 0-.1 0-.4-.2-.6-.7.1-1 .6-1.3 1.1zM178.1 48.1c-.1.5-.6.6-.6 1.2.1.2.3.4.5.5.3-.4.8-1 .5-1.6-.2-.1-.2-.2-.4-.1zM246.3 93.2h-.1c.1.3-.4.5-.2 1 .3 0 .3.2.6.2.3-.3.2-1.1-.3-1.2zM245.5 96.7c.2.1.3.2.6.2 0-.2.2-.3.2-.5-.2-.4-1-.5-.8.3zM245 103.6c.3-.2.2-.7.1-1-.7-.1-.6.6-.9.9v.6c-.1.2-.4.3-.4.5.1.9-.4 1.9-.6 2.9-.1.9-.3 1.6-.7 2.3-.2.3-.5.4-.6.7.3.3.4.8.9.8s1-.7 1.1-1.1v-.5c.3-2 1.4-3.9 1.4-5.7-.1-.4-.3-.3-.3-.4zM214.6 106c.2-.4.2-.6.1-1.2-.3 0-.4-.1-.6-.3-.3.5-.7 1.6.5 1.5zM186.5 108c0-.2.1-.4 0-.6-.1-.4-1.3-1.4-1.7-1.5-.1.9-.2 1.5.3 2 .6-.1 1 0 1.4.1zM190.5 116.8c.7-.2 1.3-.9 2.2-1 .4-.1.6 0 .8-.1.6-.3 1.2-1 1.5-1.4-.3-.5-.8-.8-1.4-1-.3.4-.8 1-1.3 1.2-.3.1-.8.1-1.1.3-.3.2-.6.6-1 .9-.3.2-.6.3-.9.5-.2.1-.4.4-.6.4-.1.1-.3 0-.3.1-.2.1-.4.4-.6.6-.4.5-.7.8-.8 1.5.2.2.5.4.7.6 1.2-.6 2-1.7 2.8-2.6zM191.5 128.9c.6-.4 1.3-.4 2.2-.5.5-.1 1.1-.2 1.5-.3.9-.1 1.9.1 2.8 0 .6 0 1.1-.3 1.6-.3.4 0 .9.1 1.3 0 .2 0 .4-.1.6-.2.9-.2 1.9-.2 2.8-.1.5.1 1.1.1 1.7.1.4 0 .7.2 1.1.2.5 0 1-.1 1.3-.1.2 0 .4 0 .6-.1 0-.6-.7-.6-1.1-.9-.9-.7-1.2-1.5-1.1-3-.5-.8-1.1-1.4-2.1-1.8-.4.2-.6.6-1.1.8.1-.6-.3-1-.3-1.3.3 0 .3.2.6.1.4-.7.2-1.4.2-2.3-.3-.4-.6-.6-.5-1.4-.3-.1-.5-.4-.8-.4-.3.3-1 .5-1.1 1.1-.1.3.1.6 0 .9-.1.2-.3.4-.4.6-.2.2-.3.4-.6.5-.1-1.2.3-2.3.2-3.3-.5-.7-1.6-.3-1.9.2-.1.5.3.8.1 1.1-.5-.2-1.3-.3-2-.2-1.6 1.5-3.2 3-4.7 4.6-.5.5-1 1.1-1.3 1.8-.4.2-.7.7-1.1.9 0 .6-.4 1-.5 1.4-.1.7.2 1.5-.2 2-.4 0-.7 0-.9-.2.2-.5-.3-1-.1-1.4-.9-.5-3.1-.6-3.8.1.2 1.3 1.1 1.7 1.9 2.5.8.6 1.5 1.4 2.5 1.6 1.2-1.1 1.6-2.1 2.6-2.7zM185.8 119.7l.3-.6c-.3-.8-1.2-.9-2-.6-.2 1.1.6 1.3 1.7 1.2zM182.9 121.2c.3-.2.3-.6.7-.7v-.9c-.2-.2-.3-.4-.6-.5v.2c-.8.5-1.5 1.1-2.8 1 0 .4.2.5.1.8.5.4 1.8.2 2.6.1zM176.8 122c.4.3.8.5 1.4.5.4-.4.2-1.5.1-2.1-.5.6-1.1 1-1.5 1.6zM227.9 133.6c1.6.3 2.7 1.5 4.2 2 .3.1.7.1 1.1.2.4.1.6.3 1 .3.9.1 1.6-.2 2.2-.2.3 0 .7.1 1 .1.9.1 1.4.2 2.1.3 1.4.2 3 .2 4.2-.1.6-.4.7-1.1.8-2 0-.3.2-.6.2-.8.2-1.7-.1-2.5-.6-3.6-.2-.5-.5-1-.8-1.5-1-2-1.8-4.6-3.9-5.3-.1.1-.1.3-.2.4.2.8 1 1.2 1.3 1.9.1.4 0 .9.1 1.6l-.6.6v.6c-.4.4-.7.8-.9 1.4-.8.5-1.3 1.3-2.1 1.8.2.1.2.3.3.4.7-.1 1.2-.6 1.7-1s1.2-.8 1.5-1.3c.2-.3.3-.8.6-1.1.2.1.6 0 .8.1.1.3.3.6.2 1.1-.5.2-.9.5-1.3.8-.1.3-.1.6-.3.8-.7-.1-1.1.2-1.5.4-.3.1-.6.2-.8.4-.4.3-.7.9-1.3 1-.2-.3-.9-.4-1.1-.7-.1-.1 0-.1-.1-.1-.9-.9-2.3-.3-3.7-.4-.7 0-1.7-.2-2.5-.1-.2.2-.4.3-.6.4.2.4.4.7.4 1.2-.9.1-1.2.2-1.4.4zM220.7 128.7c0 .5.6.9 1.3.9.1-.3.3-.6.6-.7-.1-.4-.3-.6-.5-.9-.7 0-1.3.2-1.4.7zM223.4 130.5c0 .2.1.3.1.6.7.5 1.1 1.2 2.3 1.1.2-.2.5-.3.5-.6.1-.5-.3-1-.6-1.1-.7-.4-1.7-.1-2.3 0zM187.3 135.7c0-.7-.3-1.2-.8-1.4-.3.2-.6.3-1 .4 0 .2.2.4.1.7.3.4 1.1.5 1.7.3z"/>
</svg>
