<svg xmlns="http://www.w3.org/2000/svg" viewBox="0 0 201.7 124.5"><path d="M198.1 103.3c-1.1-7.3-2-14.5-3.1-21.9-.7-4.9-1-10-1.4-15.2-.2-2.6-.5-5.2-.7-7.6-.1-.6-.1-1.2-.3-1.8-1.6-4.6-3.1-9.4-4.7-14-.2-.6-.3-1.1-.3-1.7-1-10.9-1.5-22-2.3-33.1-7.1-.5-14.3-.5-21.5-1-1.8-.1-3.7-.1-5.6 0-1.9.1-3.8 0-5.7 0-3.8.1-7.6.1-11.4.1-22.8 0-45.4-.5-66.9-1.7C67 5 59.9 4.5 52.8 3.9 42.1 3.1 31.7 2.1 21.4 1c-3.5-.4-7-1-10.5-1-.1 0-.1.1-.2.1-.2.4-.6.7-.8 1.1-.1.6-.1 1.3-.1 1.9-.8 8.4-1.5 17-2.3 25.2-2.6 29-5 58-7.5 86.7 9.9.9 20.1 2.1 30.1 3.1 2.1.2 4.1.3 6.2.4 8.3.5 16.6.8 24.8 1.3 4.1.3 8.3.4 12.4.6 8.3.5 16.8.9 25.2 1.1 2.1.1 4.2.1 6.3.2 2.1.1 4.3.1 6.4.2 4.2.2 8.4.3 12.7.5 4.3.2 8.6.1 13 .3 6.5.2 13 .3 19.4.5 2.1.1 4.3.1 6.4.1 2.2 0 4.3.1 6.5.1 2.1 0 4.3.1 6.4.2 8.6.4 17.3.3 26 .6-.9-4.7-1.7-9.3-2.6-14-.5-2.1-.8-4.5-1.1-6.9z"/></svg>