<svg xmlns="http://www.w3.org/2000/svg" viewBox="0 0 207.4 164.9"><path d="M201.8 74.3c.1-.1.3.1.4-.1.7-1.3 2-1.9 3-2.8.2 0 .3 0 .4-.1.2-.4.5-.7.8-1 .5-.1.8-.5 1-.9-.4-.5-.9-.9-1.3-1.4-.4-.5-.9-.9-1.2-1.5-.5-.2-.7-.7-1-1 .1-.3-.3-.2-.3-.5h-.3c-.3-.7-1.1-1-1.5-1.6-.1-.1-.1-.3-.2-.4-.2-.3-.6-.6-.9-1-3.8-4.4-7.6-8.7-11.4-13-.6-.7-1.3-1.2-1.7-2-1.2-1.1-2.1-2.3-3.2-3.5-7.4-8.4-14.7-16.7-22-25 0-.1-.1-.1-.1-.3-1-.2-1.1-1.2-1.9-1.5-.7-.2-2 0-3.1 0-15.4 0-31.6.1-46.4-.1-.2-1.8.4-3.5-.1-4.9.2-.6 0-1.2-.3-1.5-.2-.2-.5-.3-.8-.6-.1-.1-.1-.3-.3-.4-.2-.2-.6-.4-.8-.6-.4-.5-.8-.9-1.2-1.2 0-.4-.3-.6-.5-.9-.1-.1 0-.3-.1-.4-.1-.2-.3-.3-.4-.5-.1-.2-.1-.5-.2-.6-.1-.2-.4-.2-.6-.4-.3-.3-.3-.7-.6-.8-.3-.1-1 .1-1.3.2-.4.2-1 .6-1.6 1-.5.3-.9.4-1.1.8h-1.1c-.2-.7.2-.9.6-1.2 0-.3.1-.6-.1-.9-.2-.3-.6-.3-.7-.6-.1-.4.2-.5.3-.8-.2-.2-.4.3-.6 0 1-.4.6-2.2-.8-1.8-.1-.2-.3-.2-.4-.4-.7-.2-1.4 0-1.7.4V.1H57.4c-2 0-4.4.1-5.9-.1-.3-.1-.7 0-1 .1-1.7.1-3.6.1-5.2.1-.2 0 0 .3-.2.2-2.9.1-5.9-.2-8.3.3-.5.6-1.2 1.2-2 1.3h-.6c-.4.1-.8.3-1.3.4-1.5.4-3 .7-4.4 1.1-1.2.3-2.3.8-3.4 1h-.7c-.5.1-.9.7-1.4.7-.4.6-1 1-1.6 1.5-1-.3-2.2-.3-3.1-.1-.5.5-1.4.9-2 1-.3.4-.9.5-1.3.8-.5.2-.9.5-1.4.7h-.4c-.8.6-1.5 1-2.2 1.6-.9 1-1.3 2.5-2.2 3.3-2 .4-3 1.8-3.7 3.5-1 .4-2.2.6-2 2.2-.1.2-.4.2-.4.4-.2.6-.4 1.1-.9 1.3-.4.6-.5 1.3-.8 2-.1.3-.3.5-.4.8-.1.3-.3.6-.3 1v.8c0 .3-.3.7-.3 1 0 1.2 1.1 1.4 1.6 2.4.6.6 1.6.8 2.4 1.3.7.4 1 1.3 2.1 1.2.1.7.9.7 1 1.4.2.1.3 0 .5.1.1.5.6.5.8.9 0 .2.2.4.3.6.4.1.7-.1.9.2 0 .3-.2.2-.1.5.3.4.6.9 1.3.8.1.1.2.3.3.5.3.3.6.3 1.1.5.2.1.4.3.5.4.1 0 .2 0 .3.1.6.3.6-.1 1.1-.3.4 0 .7 0 1-.1.1.2.3.3.7.3.3 0 .2-.3.5-.3s.4.2.6.2c.7-.6 1.6-.1 1.9.4.2.2.4.5.6.7.4.6.5 1.7.7 2.5.1.5.6 1.3.6 1.7.1.3 0 .6.1.8.5.5 1.2.8 1.5 1.3.3.5.2 1.1.4 1.5.1.3.4.8.6 1.1.2.2.6.4.8.7.3.4.2.9.4 1.4 0 .1.2.2.2.4.1.5 0 1.1.1 1.7.3.3.6.9.4 1.5.2.5.5 1 .6 1.6.3.3.7.6 1.2.6.2.3.5.4.8.7.3.3.3.9.6 1.1.3.3.6.3.7.7.1.3-.1.7 0 1l.3.3c.1.1.3.1.5.2.2.5.7.7.8 1.3.6.1.5.5.5.9 0 .6.4.8.6 1.3.1.3.2.7.3 1 .1.3.4.4.3.8.2.2.3.5.5.6.5.4 1.4.2 2 .6.4.9 1.1 1.6 1.9 2.2l.6.6c.1.1.3.1.4.2.4.3.9.9 1.3 1 .4.1.9 0 1.2.3.1 0 .1.3.2.3.3.4.7.5 1.1.8.2 0 .2-.1.4-.1.7.8 1.7 1.2 2.3 2.2 0 .3 0 .5.1.7.1.1.3.2.5.1.8.7 1.7 1.3 2 2.5.1.4 0 .9.1 1.1.2.9 1.5 1.5 1.7 2.3 0 .2-.1.4-.1.6-.1 1.5.8 2.2 2 2.4.2.5.5 1 1.1 1 .4 0 .5-.4 1-.4.9.7 2 1.1 2.9 1.7.6.9 1.3 1.6 1.9 2.4-.1.1-.1.2-.1.3.3 0 .3.3.5.4-.1.5.2.8.4 1 1 .2 1.7.7 2.6 1.1.1.5.4.8.6 1.2-.1.4-.7.1-.8.6 0 .3.3.3.3.7-.1 0-.1 0-.1.1-.3.1-.7-.1-.8.3 0 .4.4.4.6.7-.3.5.4.8.3 1.2-.3-.2-.7-.4-.9 0 0 .4.4.4.4.8.1.3-.2.4-.1.6.3.2.6-.1.9.1-.2.6.5.6.4 1.2.4.1.2-.3.5-.4.1.4.3.6.8.7-.1.1.1.3 0 .5.4.1.5-.4.8-.3 0 .2 0 .3.2.3.2.2.4-.5.6 0 0 .3-.5 0-.6.2-.4 1.1 1.1.7 1.1 1.7h-.4c0 .3 0 .5.1.6-.2 0-.3 0-.3.2.1.8.9.8 1.1 1.3.3 0 .5.1.6.1.1.2.1.5.3.6.4.1.8.4 1.3.2.2-.2-.1-.4 0-.6.5.2.5.7.8 1.1-.1.3-.3.3-.4.5-.3 1.8 1.3 2.3 2 3.3.4-.1.5.3.8.4.2.1.6.1.9.2.3.1.5.3.8.3.3.8 1.5.8 2.4.7.1.3-.3.5-.1.7.4.1.4-.4.6-.2 0 .3-.2.3-.1.6.2.2.4.1.6.1.4.2.4.8 1 .9v.4c.3.2.7.1 1-.1 0 .3.4.4.6.4 0 .4.4.5.6.6-.3.4.3.4.2 1 .3 0 .6-.2.8.1-.1.2-.4.1-.3.4.1.2.3.2.4.3-.3.4-.2 1-.4 1.5-.2 0-.3-.3-.6-.1 0 .6.2 1 .5 1.3 0 .1-.1.2-.1.4.2.3.6.5.8.8-.2.4.4.5.2 1.1 0 .2.3.1.4.3-.2.1-.3.3-.3.6.3.5 1.1.1 1.3.8-.1.4-.4.6-.3 1.2.3.2.4-.1.6-.2 0 .4.3.5.6.3.1.2.4.3.4.6-.1 0-.4-.1-.3.1.1.3.1.6.3.8-.3.2-.2.8-.1 1.1-.2.2-.3.2-.2.6.1.1.3.1.4.2-.2.1-.5.1-.5.4.2.2.3.1.4.1 0 .3.4.2.4.5-.1.2-.4.2-.3.6.2.2.5-.1.6.1-.5.4-.4 1-.4 1.6-.3.1-.5.2-.5.6.2.3.4.5.8.6.4.6.3 1.1.1 1.8.2.1.5 0 .5.2-.4.6-1.3.5-.9 1.4.3.7 1.2 1.5 1.6 2 .3 0 .3-.2.5-.1.1.2.1.4.2.6.2.2.3-.2.4-.1 0 .1-.1.1-.1.3.6.5 1.6.9 2.7.6 0 .5.5.3.8.4 0 1.3.9 1.8 2 2 .2.2-.2.4-.1.6.6.8 1.2 1.6 2.1 2.1-.1.3-.5.4-.7.7 0 .2.2.2.2.4-.1.1-.3.1-.3.3-.1 1.6 1.5 1.6 1.2 3.1.2.2.5.4.4 1 .4 0 .3.5.6.6-.1.1-.1.3 0 .4.4.1.5-.3.6-.4.1.2.4.3.6.5 0 .3-.3.3-.3.6.3.1.3.6.2 1 .4.2.4.7.4 1.1-.1.1-.3.3-.3.5-.2 0-.3.2-.5.3-.1.2-.2.3-.4.5-.1.2-.1.3 0 .6-.2.1-.4.2-.4.5.1.3.4.4.5.8-.1.1-.3 0-.3.3 0 .2.4.1.5.3.2.6 1 .9.8 1.5.1.2.4.6.4.8-.4-.1-.7 0-.8.3 0 0-.1.4.3.4 0-.2-.2-.3.1-.4.4.2.5-.2.8-.1-.3.6-.3 1.5-.8 1.9.2.4-.2.7.1.9.3.1.2-.2.4-.2 1.3-.1 2.2-.3 3.6-.4 1.2.9 2.4 1.7 3.6 2.5.4.3.9.5 1.2.8.1.1.2.3.3.4.3.2.7.3 1 .5 1.1-1 2.1-2.1 3.3-3.1 0 .1.3 0 .3.1.8-.6 1.6-1.1 2.4-1.6.3-.2.7-.3 1-.4.9-.6 1.5-2 2.2-2.8.4-.5 1-.9 1-1.7-.1 0-.2.1-.2 0-.2-.6-.7-.6-1.2-1.1-.5-.5-.7-1-1.1-1.1-.6-.2-.6.4-.9.6 0-.4-.4-.7-.8-.6 0-.2.1-.1.1-.3l-.3-.3c.2-.3-.2-.6-.4-1s-.2-.8-.7-.8c-.6.3-.1 1.6-.7 1.9-.1-.2-.4-.2-.4-.4.4-.1.6-.5.4-1 0-.2.2-.4.3-.6 0-.5-.2-.7-.4-1 0-.2-.1-.5-.2-.6-.3-.1-.7-.2-.8-.4 1-.3 1 .9 1.5 1.1.6-.4.5-1.3.2-2l.3-.3c.3.4.5-.1.6-.1.2.9.8 1.8 1.8 1.6 0 .1-.1.2-.1.4.4.4 1 .9 1.3 1.5.4.6.8 1.4 1.7 1-.1-1.3.3-2.4-.4-3-.2-.2-.7 0-.6-.5 0-.1.3-.2.4-.3 0-.5-.4-1.4.1-1.7.3.1.1.4.1.7.1.2.1.5.1.8-.1.2-.2.3-.2.6.2.2.6.3.9.4.1-.3.4-.9.6-.9 0 .4-.2.5-.4.7.1.2-.1.5-.1.8 0 .4.1.7.2 1.1.1.9-.1 2 .1 2.7-.3 0-.2.2-.3.4 1 1.1 2-.2 2.6-.7.2-1 1.2-1.2 1.4-2.2.4.8-.6 1.1-.9 1.6-.2.3-.2.6-.2 1 .5.2 1.1-.2 1.4-.5.9-.2 1.3-1 2.2-1.3.9 0 1.3-.9 2.3-.6.2-1.1-1.2-1-1.5-1.8.7 0 .8.9 1.4.7.2-.1.1-.3.3-.6.3-.6.7-1.3.7-2.1 0-.4 0-1.2-.4-1.2-.3.1-.2.6-.5.6.1-.1 0-.1-.1-.1 0-.3-.3-.5-.4-.9-.4-.9-.3-1.6-1.7-1.4-.3-.4-1-.2-1.3-.1-.3-.2-.8-.3-1.2-.4-.2.3-.6.2-1 .3-.4.1-.7.5-1 .4.1-.6.7-.5 1.2-.6.5-.2.9-.5 1.3-.8-.2-.4-.1-.7-.5-.9-.4-.2-1.1.3-1.7.1-.2-.1-.4-.4-.4-.7-.6-.3-1.7 0-2.2 0v-.6c.4.2.6-.1.9-.2 1.3-.1 1.7.8 2.9.6 0-.1.1-.2.1-.2 0-.8-.5-1.1-1-1.5.1-.1.3-.1.3-.2 0-.2-.2-.4-.1-.5.7-.1.5.7.7 1 .1.2.4.4.5.7.1.2 0 .4.2.6.6-.1 1 .1 1.3-.2-.2-.7-1-.8-1-1.7-.2-.2-.4-.7-.3-1 .2 0 .1.1.3.1.1.6.4 1 .4 1.7.3.3.7.2 1 .4.4.3.4.9.8 1.3.8.4 1.6 0 2.4-.1.2.1.4.3.6.3.6-.1.3-.9.6-1.3.2.4.4.6.3 1-.1.7-1.1 1.1-.5 1.7.5.1 1.4-.1 1.4-.7.6-.1.8-.5 1.1-.8-.5-.9-.8-2-2.2-1.9-.1-.3-.4-.5-.5-.8.2-.4.3-.7.9-.5.5-.3.1-1.4.2-2 0-.4.5-.9-.1-.9-.1.4-.6 1-1 .5-.1-.5-.4-1.2 0-1.5.2-.1.4 0 .6.1 0-.5.4-.5.5-.8-.4-.1-1-.6-.7-1 .2 0 .1.4.3.4.2.3.7.2.8.6-.2.4-.4.8-.8 1.1-.3 0-.6 0-.8.1-.1.5.1.8.3 1.1.4-.1.3-.6.7-.6 1-.2.6.6.5 1.1-.1.8.1 1.2.3 1.6-.3.3-.8.5-1 .8.3.5.9.5 1.4.8.1.3.4.4.6.7.1.6.7.7.8 1.3 0 .1-.2.1-.1.3.2.3.2.8.6.9.2 0 .2-.2.5-.2 0-.2 0-.2.1-.3 1.4-.9 2.3-2.2 4.1-2.7.3-.3.6-.6.8-1 .2-.1.5-.1.6-.4.1-.1 0-.2 0-.4-.2-.1-.3-.2-.6-.2 0-.3-.3-.3-.6-.4-.3-.3-.5-.7-.6-1.1-.4-.2-.7-.5-1.3-.6-.1-.2-.2-.3-.2-.6-.4 0-.6.1-1 0-.1.1-.2.3-.4.4-.1-.3-.6-.2-.8-.4.1-.2.1-.5.4-.6.2.2.5.3.8.1.1 0 0 .3.3.2.8-.3.6-1.5 1.7-1.5.2-.2.4-.6.3-.9-.3-.1-.4.3-.5.1-.1-1.2 1.1-.5 1.5-1.1 0-.2-.3-.2-.1-.4.2 0 .4 0 .4-.1.2-.1 0-.5.3-.6 0 .1.3.1.4.2.1-.2.1-.4.3-.4 0 .2.4.1.4.2.1.6-.4.5-.7.7-.3.2-.6.5-.9.5 0 .3.3.3.3.6-.2.3-.8.1-1.2.1 0 .3.1.4.1.7-.2.4-.6.5-.7.8-.1.3.1.6-.1 1-.2.1-.3-.1-.5.1.2.7 1 .7 1.7 1 .1.5.2.9.5 1.1.3.1.4-.2.5-.1 0 .1.1.3.1.4.1.2 1 1.1 1.1 1.1l.4-.1c.3-.2.7-.8 1-1.1 1.8-.7 3.4-1.4 5.8-1.5.2.2.3.2.6.2.8-.1.4-1.5-.6-1.4-.4-.4-1-.3-1.3-.6h.9c.3-.8.9-1.1 1-2 .1.3.2.5.3.7-.2.2-.3.5-.6.6 0 .3-.2.5-.2.8l.1.1c.3.3 1 .2 1.2-.1.6 0 .8-.6 1.2-.6-.1.3-.5.3-.4.8.4 0 .5-.3.8-.4.2-.1.5-.2.8-.3.8-.4 1.6-1 2.2-1.6 0-.2-.2-.3-.3-.5.2 0 .3-.2.4-.3.1-.4.5-1 .6-1.5 0-.2.2-.5-.1-.6-.3.1-.2.5-.5.6-.1-.1-.3-.1-.4-.2.1-.6-.1-.7-.1-1.2-.7.3-1.5.1-2.1-.3 0-.1-.1-.4.1-.4.4.3 1 .1 1-.4 0-.1-.2-.2-.3-.4-.1-.4-.4-.7-.3-.9.2 0 0 .3.4.2.2 0 .1-.4.3-.4.2.1.3.1.4.2 0 .3-.2.4-.1.8.4.3.8-.1 1.2-.1.3.2.4.6.7.9.1.1.5 0 .4.2-.2.1-.6 0-.5.4.9.7 2.1-.2 2.7-.8h.3c.6-.7 1.5-.8 2.3-1.2.1.1.2.2.4.1.2 0 .1-.1.2-.2.2.2.4.1.7.2-.1-.8.2-.9-.1-1.5.6.1 1-.5 1.1-1-.1-.1-.3-.3-.3-.4.2 0 .3.1.5.1.3-.2.5-.4.8-.6.3-.2.7-.3.9-.6.1-.4-.5-.4-.3-.6.3 0 .3.3.6.3.9-.7 2-1 3.2-1.4.1-.4.4-1.1.1-1.5-.5.1-.7.5-1.3.4-.2.2-.4.8-.8.6 0-.3.5-.2.5-.5.1-.3-.2-.3-.2-.5-.1-.1-.6.1-.6-.3.2 0 .4.2.5 0-.3-.7.4-.9.3-1.7.3-.4.9-.5 1-1.1.1-.2-.2-.3-.1-.4.7-.5 1.3-1 2.2-1.3.1-.2-.2 0-.1-.3.5-.1.9.1 1.2-.2.1.8.8.9.9 1.5.2.1.4-.1.4 0-.2.4-.8.2-.8.8.6.2 1.2-.4 1.9-.6.6-.2 1.3-.3 2.1-.3.1-.1.2-.2.4-.2.1 0 0 .2.2.1.5-.1.9.4 1.2.1 0-.7-.6-.7-1.2-.6-.3-.1-.4-.4-.7-.4-.4 0-.3.5-.6.6-.2-.1.1-.2-.1-.3-.2 0-.4.2-.5-.1.5-.1.9-.4 1.4-.4.3 0 .3.3.5.4.6-.2.8.1 1.1.3.1-.2.2-.5.1-.8-.2-.1-.5-.1-.6-.4-.3-.1-.7 0-.7-.3.4-.1.6.2 1 .1.1-.3-.2-.4-.2-.8.4-.3.8-.6 1.3-.7.4-.5.6-.8 1.5-.6.4-.3 1.2-.4 1.1-.9.4-.2.6-.5.6-1-.5-.9-2.4-.5-2.9-1.3 1.1-.1 1.6.5 2.6.2.4.3.9.4 1 1-.1.3-.3.3-.3.6.4.2.8-.2 1.1-.4 0-1-.6-1.2-1-1.8-.2 0-.6.1-.8-.1.1-.4 1 0 1.1-.4-.3-.7-1.3-.3-1.5.3-.3-.1-.7-.1-.7-.5.8.2 1.2-.4 1.8-.6.2.1.3.3.4.6.3.1.8.2 1 .5.2.7 0 1.5.1 2.2.5-.3.3-.8.6-1.2.3-.4.8-.6 1.2-.8.2-.5.9-.9.7-1.6-.6.1-.4.9-1 1 0-.4.4-.4.3-.8-.2-.3-.3-.3-.4-.6-.1-.6.3-1.1.2-1.5-.1-.5-.6-.8-1.1-1-.4-.2-.8-.2-1.2-.3-.9-.3-2.2-1.8-1.6-3-.1-.2-.1-.4-.2-.7.2-.6.5-1.1.4-1.7.2 0 .2.2.3.2.1-.4.3-.7.6-.9 0 .3-.1.8.3.7.2-.1 0-.7.4-.6 0 .6-.2 1.7-.6 2.1-.2-.1-.2-.4-.5-.4-.2.4.1.6.2.8-.3.3-.3.5-.2 1 .3.2.6.4 1 .4.2 0 .4-.2.6-.3.5-.1 1.1.1 1.5-.1.6.3.3.7.2 1.1 0 .1.1.3.1.4 0 .1-.1.2-.1.3 0 .5.3 1 .4 1.5.2.5.3 1.1.4 1.6h.4c-.1-.7-.4-1.3-.4-1.9 0-.1.1-.3.1-.4.1-.4.1-1 .2-1.5.2-.7.5-1.4.5-2.2-.3-.2-.3-.7-.7-.8.2-.3-.2-1 .1-1.2.3.3.2.6.1 1.1.2.1.3 0 .5-.1 0 .2-.2.3.1.4.6-.4.5-1.6.6-2.6.4-.6.6-1.5 1.1-2-.1-.2-.1-.2 0-.4.2-.4.5-.7.7-1.1.1-.2.2-.3.3-.5.3-.6.6-1 1-1.5.2-.4.4-.7.7-1 .1-.1.2-.1.3-.1.5-.4.7-1.1 1.1-1.5.1 0 .2.2.2-.1.5-1 1.2-2 1.9-2.7.2-.3.4-.7.8-.7-.1-.3.2-.5.4-.7.6-.7 1.1-1.4 1.7-2 .8-.9 1.8-1.6 2.5-2.5h.6c1.3-2.3 2.4-3.7 4-4.8z"/>
</svg>
