<svg xmlns="http://www.w3.org/2000/svg" viewBox="0 0 147.4 182"><path d="M56.8 0c-2.4 2.2-4.7 4.5-7.1 6.8l-6.9 6.6-6.9 6.6c-2.3 2.2-4.7 4.4-6.9 6.6l-6.9 6.6c-2.3 2.3-4.7 4.4-6.9 6.6-2.3 2.3-4.6 4.4-6.9 6.6-2 2-4 4-6 5.8-.3.3-.7.5-1 .8-.2.3-.4.6-.6.8-.3.4-.7.6-.7.9.3 1.1 1 1.9 1.3 2.7.1.4 0 .8.2 1.3l.3.6c.3.5.5.9.7 1.3.7 1.2 1.6 2.7 2.5 3.6.1.1.1.2.2.3.9.9 2 1.7 2.6 2.8.6 1 1 2 1.5 3.1.5 1.2.8 2.6 1.5 3.7.3.5.7.9 1.2 1.4.9.9 1.6 1.9 2.4 2.7.8.9 1.8 1.6 2.9 2.3l.9-.6c.2.6.7.4 1.2.6.6.3 1 .9 1.6 1.3.1.1.4.1.6.2.2.1.3.3.5.4.6.2 1.5.2 1.8.7.2.2 0 .7.3.8 1 .3 2-.1 3 .1.7.1 1.4.4 2 .6.7.2 1.5.3 2 .6 1.1-.1 2 0 2.6.4.1.1.1.3.3.4.1.1.4.2.5.3.3.3.5.5.7.8 0 .7.5 1.1.3 1.8 1.1 2.1 2 4.3 2 7.5.4.7.7 1.4 1.1 2.1.4.8.9 2.2 1.7 2.4 0 0 .1-.2.2-.1l.2.2c.5.3.7 1.1.9 1.6.8.5 1.4.7 2.5.8.4.2.6.6.8 1.1.4.2.7.4 1 .7.4.4 1.2 1.7 1.3 2.2.1.8-.2 1.7-.1 2.4 0 .1.2.5.3.6.6 1.1 2 .7 2.4-.3-.1-.5-.1-1.2-.1-1.9.3-.2.3-.6.6-.8.4.2.7.5 1 .8.3 0 .6 0 .7.1 1 1.3 2.3 2.5 3.1 4 .3.5.7 1 .8 1.5.3.8.3 1.8.8 2.7-.3.9-.1 2.2-.5 2.9.5 1.1 1.2 1.9 1.7 2.9-.3.2-.4.5-.5.8.5 1.6 1.4 3.2 1.7 5 .1.4 0 .7.1 1.1.1.3.2.7.2 1 0 .7-.2 1.6-.3 2.6-.1 1.1-.8 3.2.6 3.1-.5 2.2-.8 4.5-2.6 5.3-1.5-.2-3 .2-4.3-.2-.4-.1-.7-.5-1.1-.5-.2 0-.6.2-.8.1-.1.5-.2 1-.2 1.6 0 .5.3 1 .3 1.5.1.8 0 1.7.8 2 .4.1 1.2.1 1.6 0 .7.9 1.9 1.3 2.3 2.4.2.5.3 1.4.3 1.9 0 .7-.5 1.4-.6 2.2v.5c-.1.7-.2 1.3-.4 1.8-.5.4-.8 1-1.1 1.6.4.8.7 1.7 1 2.6.1.5.2.9.3 1.4.1.5.2 1.1.3 1.5.3.5.9.8 1.1 1.3.1.4 0 .7.1 1-.2.9-.5 1.8-.6 2.9-.4.7-.6 1.7-.8 2.5-.1.5 0 1-.1 1.5-.2.9-.7 1.5-.9 2.5-.2 1.1-.1 2.2-.1 3.6 0 .9-.1 1.8-.1 2.7 0 .7.2 1.1.4 1.5.1.2.2.5.4.6.4 0 .8-.2 1.2-.3.4-.2.8-.3 1.1-.5.4-.2.9-.9 1.4-1.3 1-.9 1.8-1.9 2.7-2.7 3.5-3.2 6.6-6.4 9.9-9.4 2.9-2.7 5.7-5.4 8.5-8.1 7.5-7.3 15.1-14.5 22.5-21.6l22.5-21.6c3.8-3.6 7.6-7.1 11.2-10.8 3.7-3.7 7.7-7.1 11.2-10.8C117.2 63.2 87 31.7 56.9 0h-.1z"/>
</svg>
