<svg xmlns="http://www.w3.org/2000/svg" viewBox="0 0 177.1 134.3"><path d="M32.2 133.7c3.7.2 7.4.2 11.1.2 5.5 0 11.1.3 16.6.3.9 0 1.8.1 2.7.1h47.7c1.8 0 3.7-.1 5.5-.1 5.7 0 11.2-.1 16.8-.1 7.5 0 14.9 0 22.3-.2 3.6-.1 7.3-.4 10.9-.4h11.3c-1-27.9-1.8-55.9-3.2-83.6-.8-15.3-1.1-30.8-1.8-46-.1-1-.2-2.3-.1-3.1.1-.3.3-.5.2-.8-.8.3-1.7.1-2.6.1-2.6.1-5.1.1-7.7.3-3.4.2-6.8.1-10.3.2-6.9.2-13.9.4-21 .6-7 .2-14.1.2-21.3.1-3.5 0-7.1-.1-10.6-.1-3.6 0-7.2.1-10.8.1-14.2 0-28.4.4-42.3-.3C40.5.8 35.4.7 30.2.4 28.9.3 27.4.2 26.4.3c-1.2.1-2.2.7-3.4.7-1.6-.1-3.4-.4-5-.4-.9 0-1.7.1-2.6.1-1 .1-1.8.2-2.6.1-.6-.1-1.3-.5-2-.7-1.7-.4-3.6.2-5.4 0-.1 0-.2.1-.2.2-.6 13.5-1.1 27.5-1.8 41.1-.2 5.6-.3 11-.5 16.6-.2 5.6-.4 11.1-.6 16.6-.4 8.4-.5 16.7-.8 25-.5 11-1 22-1.4 32.8 7 .3 14 .8 21.2 1.1 3.5.1 7.2 0 10.9.2z"/></svg>